<?xml version="1.0" encoding="utf-8"?>
<!-- Generator: Adobe Illustrator 26.5.0, SVG Export Plug-In . SVG Version: 6.00 Build 0)  -->
<svg class="line-drawing-demo fragment" version="1.1" id="Layer_1" xmlns="http://www.w3.org/2000/svg" xmlns:xlink="http://www.w3.org/1999/xlink" x="0px" y="0px"
	 viewBox="0 0 198.43 198.43" style="enable-background:new 0 0 198.43 198.43;" xml:space="preserve">
<style type="text/css">
	.st0{fill:#eb8500;}
	.st1{clip-path:url(#SVGID_00000054252553527922011880000016519199144123296180_);}
	.st2{clip-path:url(#SVGID_00000087410740255651126060000012876247977455600779_);stroke:#FFFFFF; fill:none; }
</style>
<g>
	<path class="st0" d="M99.21,198.43c54.79,0,99.21-44.42,99.21-99.21C198.43,44.42,154.01,0,99.21,0S0,44.42,0,99.21
		C0,154.01,44.42,198.43,99.21,198.43"/>
</g>
<g>
	<g>
		<defs>
			<rect id="SVGID_1_" x="-4" y="-2.87" width="208.87" height="208.87"/>
		</defs>
		<clipPath class="lines" id="SVGID_00000046312296879115367680000007745165157005334680_">
			<use xlink:href="#SVGID_1_"  style="overflow:visible;"/>
		</clipPath>
		<g style="clip-path:url(#SVGID_00000046312296879115367680000007745165157005334680_);">
			<defs>
				<rect id="SVGID_00000152948063933285858720000007597066071016946613_" x="-4" y="-2.87" width="208.87" height="208.87"/>
			</defs>
			<clipPath id="SVGID_00000032638142360329149400000012236776437812957360_">
				<use xlink:href="#SVGID_00000152948063933285858720000007597066071016946613_"  style="overflow:visible;"/>
			</clipPath>
<g id="tlc" stroke-width=".75">
			<path id="T" style="clip-path:url(#SVGID_00000032638142360329149400000012236776437812957360_);stroke:#FFFFFF; fill:none;" d="M26.74,83.53
				c0,1.08,0.13,1.55,1.33,1.65l1.62,0.13v0.89H19.42v-0.89l1.62-0.13c1.2-0.1,1.3-0.6,1.3-1.65V66.47h-1.43
				c-2.95,0-3.39,1.4-4.25,4.5h-0.92V65.4h17.6v5.58h-0.92c-0.89-3.11-1.33-4.5-4.25-4.5h-1.43V83.53z"/>
			<path style="clip-path:url(#SVGID_00000032638142360329149400000012236776437812957360_);stroke:#FFFFFF; fill:none; " d="M37.14,78.49
				c-0.03,3.3,0.92,6.15,4.06,6.15c2.06,0,3.27-1.01,4.22-2.92l0.76,0.41c-0.95,2.6-2.76,4.44-6.25,4.44c-5.42,0-7.1-3.39-7.1-7.67
				c0-4.22,1.97-7.7,7.17-7.7c5.68,0,6.37,3.93,6.37,6.12c0,0.89-0.48,1.17-1.52,1.17H37.14z M41.23,77.41
				c0.76,0,0.98-0.25,0.98-1.05c0-1.65-0.32-4.12-2.38-4.12c-2.19,0-2.7,3.08-2.7,5.17H41.23z"/>
			<path style="clip-path:url(#SVGID_00000032638142360329149400000012236776437812957360_);stroke:#FFFFFF; fill:none; " d="M60.99,82.52
				c0,1.68,0.32,2.16,0.82,2.35c0.35,0.13,0.86,0.16,1.24,0.13l0.06,0.73c-0.92,0.48-2.19,0.86-3.71,0.86c-1.43,0-2-0.76-2.31-1.84
				c-1.01,0.67-2.38,1.84-4.28,1.84c-2.98,0-4.38-2.06-4.38-4.31c0-1.65,0.73-2.92,3.08-3.65c2.09-0.6,4.66-1.36,5.52-2.09v-1.62
				c0-1.93-0.86-2.7-2.03-2.7c-1.08,0-2.03,0.6-2.7,3.3c-0.16,0.67-0.54,1.01-1.17,1.01c-0.73,0-2.25-0.48-2.25-1.71
				c0-1.74,2.31-3.61,6.47-3.61c5.1,0,5.64,2.44,5.64,4.28V82.52z M57.02,77.67c-0.7,0.35-1.87,0.82-2.89,1.33
				c-1.05,0.54-1.52,1.3-1.52,2.7c0,1.74,0.95,3.01,2.38,3.01c0.79,0,2.03-0.44,2.03-2.25V77.67z"/>
			<path style="clip-path:url(#SVGID_00000032638142360329149400000012236776437812957360_);stroke:#FFFFFF; fill:none; " d="M77.76,82.01
				c-0.98,3.52-3.71,4.57-6.31,4.57c-4.28,0-6.91-2.5-6.91-7.55c0-4.63,2.47-7.83,7.48-7.83c2.82,0,5.49,1.24,5.49,3.2
				c0,1.27-1.33,1.78-2.28,1.78c-0.73,0-1.17-0.32-1.33-0.98c-0.44-1.87-0.95-2.95-2.25-2.95c-1.49,0-2.79,1.93-2.79,6.02
				c0,4.31,1.65,6.37,3.93,6.37c1.74,0,3.2-0.73,4.25-2.98L77.76,82.01z"/>
			<path style="clip-path:url(#SVGID_00000032638142360329149400000012236776437812957360_);stroke:#FFFFFF; fill:none; " d="M80.64,66.89
				c0-1.2-0.22-1.46-0.76-1.55l-1.01-0.16v-0.82l5.68-0.63l0.16,0.1v9.54c1.81-1.17,3.2-2.16,5.07-2.16c3.04,0,4.47,1.78,4.47,4.63
				v7.93c0,1.3,0.16,1.46,1.93,1.55v0.89h-7.67v-0.89c1.24-0.13,1.68-0.1,1.68-1.36v-7.96c0-1.97-0.89-2.92-2.5-2.92
				c-1.33,0-2.25,0.7-2.7,1.55c-0.22,0.44-0.29,1.05-0.29,1.74v7.58c0,1.27,0.44,1.24,1.65,1.36v0.89h-7.64v-0.89
				c1.78-0.1,1.93-0.25,1.93-1.55V66.89z"/>
			<path style="clip-path:url(#SVGID_00000032638142360329149400000012236776437812957360_);stroke:#FFFFFF; fill:none; " d="M99.22,74.53
				c0-1.17-0.22-1.43-0.79-1.49l-0.95-0.16v-0.82l5.64-0.82l0.16,0.13v12.4c0,1.33,0.16,1.43,1.93,1.55v0.89h-7.93v-0.89
				c1.74-0.1,1.93-0.22,1.93-1.55V74.53z M103.41,67.3c0,1.2-0.86,2.22-2.22,2.22c-1.4,0-2.22-1.01-2.22-2.22
				c0-1.2,0.82-2.22,2.25-2.22C102.58,65.08,103.41,66.09,103.41,67.3"/>
			<path style="clip-path:url(#SVGID_00000032638142360329149400000012236776437812957360_);stroke:#FFFFFF; fill:none; " d="M121.93,83.82
				c0,1.33,0.16,1.36,1.93,1.49v0.89h-7.7v-0.89c1.27-0.1,1.71-0.06,1.71-1.4v-7.86c0-1.97-0.89-2.98-2.54-2.98
				c-1.3,0-2.28,0.73-2.7,1.59c-0.22,0.41-0.29,1.05-0.29,1.71v7.51c0,1.33,0.48,1.3,1.71,1.43v0.89h-7.7v-0.89
				c1.78-0.1,1.93-0.22,1.93-1.55v-9.19c0-1.2-0.19-1.46-0.76-1.52l-1.01-0.16v-0.79l5.42-0.86l0.41,2.09
				c1.93-1.17,3.33-2.12,5.17-2.12c2.98,0,4.41,1.81,4.41,4.66V83.82z"/>
			<path style="clip-path:url(#SVGID_00000032638142360329149400000012236776437812957360_);stroke:#FFFFFF; fill:none; " d="M140,71.29l0.25,0.25
				l-0.63,2h-2.12c0.48,0.54,0.82,1.59,0.82,2.66c0,3.61-3.01,4.91-6.37,4.91c-0.38,0-1.2-0.06-1.71-0.13
				c-0.41,0.1-1.2,0.44-1.2,1.11c0,0.73,0.7,1.2,2.31,1.2h2.82c3.11,0,5.71,0.92,5.71,4.53c0,2.12-1.14,3.61-2.54,4.53
				c-1.52,0.95-3.49,1.36-5.26,1.36c-4.31,0-7.07-1.49-7.07-4.34c0-1.93,1.97-2.63,3.65-2.85v-0.06c-1.55-0.25-2.89-1.3-2.89-2.85
				c0-1.27,1.3-2.38,3.14-2.85v-0.06c-1.74-0.35-3.42-1.74-3.42-4.5c0-2.38,1.4-5.01,6.63-5.01c1.59,0,3.3,0.38,4.31,1.01L140,71.29
				z M136.57,89.49c0-1.93-1.4-2.7-4.34-2.7c-1.84,0-2.66,0.16-3.11,0.51c-0.54,0.35-0.95,0.89-0.95,1.87
				c0,2.16,2.12,3.55,4.53,3.55C135.02,92.73,136.57,91.58,136.57,89.49 M129.57,76.24c0,2.06,0.79,3.87,2.41,3.87
				c1.65,0,2.38-1.62,2.38-3.87c0-2.6-0.89-3.99-2.41-3.99C130.49,72.24,129.57,73.45,129.57,76.24"/>
			<path style="clip-path:url(#SVGID_00000032638142360329149400000012236776437812957360_);stroke:#FFFFFF; fill:none; " d="M160.54,70.25
				c0,2.47-2.28,3.23-4.6,4.47c1.46,1.78,3.96,4.28,6.34,6.4c0.79-1.01,1.14-2.63,1.14-4.03c0-1.11-0.19-2.03-0.48-2.98
				c0.73-0.73,2-1.24,2.89-1.14c0.7,0.79,0.82,1.81,0.76,2.76c-0.13,2.03-2,4.6-3.55,6.06c1.52,1.52,3.71,3.42,4.88,3.87l-0.13,0.76
				l-1.33-0.03c-2.54-0.1-4.34-0.48-6.21-1.87c-1.87,1.4-3.42,2.03-5.93,2.03c-3.71,0-6.79-1.97-6.79-5.87
				c0-2.89,1.59-3.58,4.22-5.14c-0.95-1.24-1.71-2.73-1.71-4.44c0-3.01,2.16-5.23,5.49-5.23C158.36,65.87,160.54,67.55,160.54,70.25
				 M151.44,79.41c0,3.11,2.31,5.23,4.85,5.23c1.33,0,2.5-0.25,3.17-0.79c-2.79-2.25-5.64-5.64-7.1-7.45
				C151.86,76.97,151.44,77.95,151.44,79.41 M153.31,69.68c0,1.55,0.82,3.01,2,4.34c1.24-0.92,2.03-2.03,2.03-4.09
				c0-2.03-0.89-3.04-2.06-3.04C154.11,66.89,153.31,67.9,153.31,69.68"/>
			<path style="clip-path:url(#SVGID_00000032638142360329149400000012236776437812957360_);stroke:#FFFFFF; fill:none; " d="M68.63,108.2
				c0,1.97,0.57,2.28,3.36,2.28c3.33,0,4.22-1.59,5.23-4.88h0.92l-0.44,5.96H61.81v-0.89c2.22-0.13,2.41-0.25,2.41-1.81V93.45
				c0-1.59-0.19-1.68-2.41-1.81v-0.89h9.51v0.89c-2.54,0.1-2.7,0.22-2.7,1.81V108.2z"/>
			<path style="clip-path:url(#SVGID_00000032638142360329149400000012236776437812957360_);stroke:#FFFFFF; fill:none; " d="M84.42,103.85
				c-0.03,3.3,0.92,6.15,4.06,6.15c2.06,0,3.27-1.01,4.22-2.92l0.76,0.41c-0.95,2.6-2.76,4.44-6.25,4.44c-5.42,0-7.1-3.39-7.1-7.67
				c0-4.22,1.97-7.7,7.17-7.7c5.68,0,6.37,3.93,6.37,6.12c0,0.89-0.48,1.17-1.52,1.17H84.42z M88.51,102.78
				c0.76,0,0.98-0.25,0.98-1.05c0-1.65-0.32-4.12-2.38-4.12c-2.19,0-2.7,3.08-2.7,5.17H88.51z"/>
			<path style="clip-path:url(#SVGID_00000032638142360329149400000012236776437812957360_);stroke:#FFFFFF; fill:none; " d="M108.26,107.88
				c0,1.68,0.32,2.16,0.82,2.35c0.35,0.13,0.86,0.16,1.24,0.13l0.06,0.73c-0.92,0.48-2.19,0.86-3.71,0.86c-1.43,0-2-0.76-2.31-1.84
				c-1.01,0.67-2.38,1.84-4.28,1.84c-2.98,0-4.38-2.06-4.38-4.31c0-1.65,0.73-2.92,3.08-3.65c2.09-0.6,4.66-1.36,5.52-2.09v-1.62
				c0-1.93-0.86-2.7-2.03-2.7c-1.08,0-2.03,0.6-2.69,3.3c-0.16,0.67-0.54,1.01-1.17,1.01c-0.73,0-2.25-0.48-2.25-1.71
				c0-1.74,2.31-3.61,6.47-3.61c5.1,0,5.64,2.44,5.64,4.28V107.88z M104.29,103.03c-0.7,0.35-1.87,0.82-2.89,1.33
				c-1.05,0.54-1.52,1.3-1.52,2.7c0,1.74,0.95,3.01,2.38,3.01c0.79,0,2.03-0.44,2.03-2.25V103.03z"/>
			<path style="clip-path:url(#SVGID_00000032638142360329149400000012236776437812957360_);stroke:#FFFFFF; fill:none; " d="M117.29,109.12
				c0,1.33,0.19,1.43,2.54,1.55v0.89h-8.53v-0.89c1.78-0.1,1.93-0.22,1.93-1.55v-9.23c0-1.14-0.22-1.4-0.76-1.49l-1.01-0.13v-0.82
				l5.42-0.86l0.35,2.73c1.81-1.9,2.73-2.76,3.93-2.76c1.27,0,1.97,0.79,1.97,1.97c0,1.11-0.73,2.38-1.93,2.38
				c-0.48,0-0.79-0.22-1.11-0.48c-0.63-0.54-1.08-0.79-1.59-0.79c-0.73,0-1.2,0.73-1.2,2.44V109.12z"/>
			<path style="clip-path:url(#SVGID_00000032638142360329149400000012236776437812957360_);stroke:#FFFFFF; fill:none; " d="M139.61,109.18
				c0,1.33,0.16,1.36,1.93,1.49v0.89h-7.7v-0.89c1.27-0.1,1.71-0.06,1.71-1.4v-7.86c0-1.97-0.89-2.98-2.54-2.98
				c-1.3,0-2.28,0.73-2.7,1.59c-0.22,0.41-0.29,1.05-0.29,1.71v7.51c0,1.33,0.48,1.3,1.71,1.43v0.89h-7.7v-0.89
				c1.78-0.1,1.93-0.22,1.93-1.55v-9.19c0-1.2-0.19-1.46-0.76-1.52l-1.01-0.16v-0.79l5.42-0.86l0.41,2.09
				c1.93-1.17,3.33-2.12,5.17-2.12c2.98,0,4.41,1.81,4.41,4.66V109.18z"/>
			<path style="clip-path:url(#SVGID_00000032638142360329149400000012236776437812957360_);stroke:#FFFFFF; fill:none; " d="M144.59,99.89
				c0-1.17-0.22-1.43-0.79-1.49l-0.95-0.16v-0.82l5.64-0.82l0.16,0.13v12.4c0,1.33,0.16,1.43,1.93,1.55v0.89h-7.93v-0.89
				c1.74-0.1,1.93-0.22,1.93-1.55V99.89z M148.78,92.66c0,1.2-0.86,2.22-2.22,2.22c-1.4,0-2.22-1.01-2.22-2.22
				c0-1.2,0.82-2.22,2.25-2.22C147.95,90.44,148.78,91.46,148.78,92.66"/>
			<path style="clip-path:url(#SVGID_00000032638142360329149400000012236776437812957360_);stroke:#FFFFFF; fill:none; " d="M167.29,109.18
				c0,1.33,0.16,1.36,1.93,1.49v0.89h-7.7v-0.89c1.27-0.1,1.71-0.06,1.71-1.4v-7.86c0-1.97-0.89-2.98-2.54-2.98
				c-1.3,0-2.28,0.73-2.7,1.59c-0.22,0.41-0.29,1.05-0.29,1.71v7.51c0,1.33,0.48,1.3,1.71,1.43v0.89h-7.7v-0.89
				c1.78-0.1,1.93-0.22,1.93-1.55v-9.19c0-1.2-0.19-1.46-0.76-1.52l-1.01-0.16v-0.79l5.42-0.86l0.41,2.09
				c1.93-1.17,3.33-2.12,5.17-2.12c2.98,0,4.41,1.81,4.41,4.66V109.18z"/>
			<path style="clip-path:url(#SVGID_00000032638142360329149400000012236776437812957360_);stroke:#FFFFFF; fill:none; " d="M185.34,96.66
				l0.25,0.25l-0.63,2h-2.12c0.48,0.54,0.82,1.59,0.82,2.66c0,3.61-3.01,4.91-6.37,4.91c-0.38,0-1.2-0.06-1.71-0.13
				c-0.41,0.1-1.2,0.44-1.2,1.11c0,0.73,0.7,1.2,2.31,1.2h2.82c3.11,0,5.71,0.92,5.71,4.53c0,2.12-1.14,3.61-2.54,4.53
				c-1.52,0.95-3.49,1.36-5.26,1.36c-4.31,0-7.07-1.49-7.07-4.34c0-1.93,1.97-2.63,3.65-2.85v-0.06c-1.55-0.25-2.89-1.3-2.89-2.85
				c0-1.27,1.3-2.38,3.14-2.85v-0.06c-1.74-0.35-3.42-1.74-3.42-4.5c0-2.38,1.4-5.01,6.63-5.01c1.59,0,3.3,0.38,4.31,1.01
				L185.34,96.66z M181.91,114.86c0-1.93-1.4-2.7-4.34-2.7c-1.84,0-2.66,0.16-3.11,0.51c-0.54,0.35-0.95,0.89-0.95,1.87
				c0,2.16,2.12,3.55,4.53,3.55C180.36,118.09,181.91,116.95,181.91,114.86 M174.9,101.6c0,2.06,0.79,3.87,2.41,3.87
				c1.65,0,2.38-1.62,2.38-3.87c0-2.6-0.89-3.99-2.41-3.99C175.82,97.61,174.9,98.81,174.9,101.6"/>
			<path style="clip-path:url(#SVGID_00000032638142360329149400000012236776437812957360_);stroke:#FFFFFF; fill:none; " d="M34.64,128.77
				l-0.41,5.58c-1.71,0.98-4.76,1.4-6.91,1.4c-7.7,0-10.88-3.96-10.88-10.72c0-3.2,0.76-5.93,2.57-7.96
				c1.78-1.97,4.47-3.17,8.78-3.17c1.84,0,4.79,0.35,6.44,1.3v5.26h-0.92c-0.7-2.66-2.12-5.52-5.8-5.52c-5.45,0-6.18,6.63-6.18,9.67
				c0,4,0.92,10.08,6.44,10.08c3.55,0,4.85-2.41,5.96-5.93H34.64z"/>
			<path style="clip-path:url(#SVGID_00000032638142360329149400000012236776437812957360_);stroke:#FFFFFF; fill:none; " d="M41.33,127.53
				c-0.03,3.3,0.92,6.15,4.06,6.15c2.06,0,3.27-1.01,4.22-2.92l0.76,0.41c-0.95,2.6-2.76,4.44-6.25,4.44c-5.42,0-7.1-3.39-7.1-7.67
				c0-4.22,1.97-7.7,7.17-7.7c5.68,0,6.37,3.93,6.37,6.12c0,0.89-0.48,1.17-1.52,1.17H41.33z M45.42,126.45
				c0.76,0,0.98-0.25,0.98-1.05c0-1.65-0.32-4.12-2.38-4.12c-2.19,0-2.7,3.08-2.7,5.17H45.42z"/>
			<path style="clip-path:url(#SVGID_00000032638142360329149400000012236776437812957360_);stroke:#FFFFFF; fill:none; " d="M67.58,132.86
				c0,1.33,0.16,1.36,1.93,1.49v0.89h-7.7v-0.89c1.27-0.1,1.71-0.06,1.71-1.4v-7.86c0-1.97-0.89-2.98-2.54-2.98
				c-1.3,0-2.28,0.73-2.7,1.59c-0.22,0.41-0.29,1.05-0.29,1.71v7.51c0,1.33,0.48,1.3,1.71,1.43v0.89h-7.7v-0.89
				c1.78-0.1,1.93-0.22,1.93-1.55v-9.19c0-1.2-0.19-1.46-0.76-1.52l-1.01-0.16v-0.79l5.42-0.86l0.41,2.09
				c1.93-1.17,3.33-2.12,5.17-2.12c2.98,0,4.41,1.81,4.41,4.66V132.86z"/>
			<path style="clip-path:url(#SVGID_00000032638142360329149400000012236776437812957360_);stroke:#FFFFFF; fill:none; " d="M76.3,121.89v9.04
				c0,2,0.76,2.79,1.84,2.79c0.51,0,1.05-0.1,1.52-0.32l0.25,0.7c-1.52,1.05-2.98,1.52-4.25,1.52c-1.49,0-3.42-0.89-3.42-3.74v-9.99
				h-1.81v-1.27h1.97l2.44-3.74h1.46v3.74h3.2v1.27H76.3z"/>
			<path style="clip-path:url(#SVGID_00000032638142360329149400000012236776437812957360_);stroke:#FFFFFF; fill:none; " d="M86.57,132.79
				c0,1.33,0.19,1.43,2.54,1.55v0.89h-8.53v-0.89c1.78-0.1,1.93-0.22,1.93-1.55v-9.23c0-1.14-0.22-1.4-0.76-1.49l-1.01-0.13v-0.82
				l5.42-0.86l0.35,2.73c1.81-1.9,2.73-2.76,3.93-2.76c1.27,0,1.97,0.79,1.97,1.97c0,1.11-0.73,2.38-1.93,2.38
				c-0.48,0-0.79-0.22-1.11-0.48c-0.63-0.54-1.08-0.79-1.59-0.79c-0.73,0-1.2,0.73-1.2,2.44V132.79z"/>
			<path style="clip-path:url(#SVGID_00000032638142360329149400000012236776437812957360_);stroke:#FFFFFF; fill:none; " d="M98.05,127.53
				c-0.03,3.3,0.92,6.15,4.06,6.15c2.06,0,3.27-1.01,4.22-2.92l0.76,0.41c-0.95,2.6-2.76,4.44-6.25,4.44c-5.42,0-7.1-3.39-7.1-7.67
				c0-4.22,1.97-7.7,7.17-7.7c5.68,0,6.37,3.93,6.37,6.12c0,0.89-0.48,1.17-1.52,1.17H98.05z M102.14,126.45
				c0.76,0,0.98-0.25,0.98-1.05c0-1.65-0.32-4.12-2.38-4.12c-2.19,0-2.7,3.08-2.7,5.17H102.14z"/>
				</g>
		</g>
	</g>
</g>
</svg>
