<?xml version="1.0" encoding="UTF-8"?>
<svg xmlns="http://www.w3.org/2000/svg" version="1.1" viewBox="0 0 1500 1080">
  <defs>
    <style>
      .cls-1 {
        fill: #c1beee;
      }

      .cls-2 {
        fill: #fc55c7;
      }

      .cls-3 {
        fill: #e2e5e9;
      }

      .cls-4 {
        fill: #dd3193;
      }

      .cls-5 {
        fill: #492090;
      }

      .cls-6 {
        fill: #c6123b;
      }

      .cls-7 {
        fill: #22777a;
      }

      .cls-8 {
        fill: #ebf0e7;
      }

      .cls-9 {
        fill: #c63513;
      }

      .cls-10 {
        fill: #f1b322;
      }

      .cls-11 {
        fill: #1c2021;
      }

      .cls-12 {
        fill: #de728b;
      }

      .cls-13 {
        fill: #c9b929;
      }

      .cls-14 {
        fill: #1545fe;
      }

      .cls-15 {
        fill: #847dde;
      }

      .cls-16 {
        fill: #903f5f;
      }

      .cls-17 {
        fill: #93fa1a;
      }

      .cls-18 {
        fill: #1c1658;
      }

      .cls-19 {
        fill: #0c1115;
      }

      .cls-20 {
        fill: #0b3df9;
      }

      .cls-21 {
        fill: #2a1098;
      }

      .cls-22 {
        fill: #c60ab2;
      }

      .cls-23 {
        fill: #fb4c74;
      }

      .cls-24 {
        fill: #d9d1e8;
      }

      .cls-25 {
        fill: #fe2c2c;
      }

      .cls-26 {
        fill: #ec701c;
      }

      .cls-27 {
        fill: #803a8f;
      }

      .cls-28 {
        fill: #2f23c7;
      }

      .cls-29 {
        fill: #fe0190;
      }

      .cls-30 {
        fill: #b45386;
      }

      .cls-31 {
        fill: #4cc5fd;
      }

      .cls-32 {
        fill: #4ebff2;
      }

      .cls-33 {
        fill: #c3b7da;
      }

      .cls-34 {
        fill: #21f7fd;
      }
    </style>
  </defs>
  <!-- Generator: Adobe Illustrator 28.6.0, SVG Export Plug-In . SVG Version: 1.2.0 Build 709)  -->
  <g>
    <g id="Layer_1">
      <path class="cls-20" d="M321.1,470.4c0-10.4,0-20.8.3-31.8.3-10.6.4-20.6.9-30.5,39.9,0,79.3,0,118.9.3,0,21.5.1,42.7.1,63.9,0,7.9-.1,15.9-.5,23.8-39.8,0-79.3,0-118.9-.4,0-4.9,0-9.4-.1-13.9,0-3.8-.4-7.6-.6-11.5M432.9,477.9c-2.6-2.8-5.9-4-9.1-2.1-2.2,1.3-4.2,3.9-4.9,6.4-1,3.6,1,6.6,4.4,8.3,3.4,1.6,6.6,1,9.3-1.7,2.7-2.7,2.9-6.2.3-10.8M425.7,413.6c-5.2,1.7-7.6,4.7-7.1,9.1.4,3.9,3.5,7,7.4,7.3,4.6.4,8.5-2.7,9.1-7.2.6-4.8-2.8-8.5-9.3-9.2M370.6,464.4c-1.8-3.9-3.3-1.4-4.4-.2-1.3-.6-2.6-1.8-3.2-1.5-.9.4-1.6,1.9-1.7,2.9,0,.9,1.1,2.6,1.6,2.6,1.1,0,2.2-1,3.1-1.4.8.4,1.9,1,3,1.6.6-1.2,1.1-2.3,1.6-4M358.9,432.4c-3,.5-3,2.6-2.1,4.7.8,1.9,2.2,1.9,3.7.5.2-.2,1.1.4,1.7.4,1,0,2.8,0,2.9-.4.3-1.4.2-2.9-.2-4.3,0-.3-1.9,0-2.9-.1-.9,0-1.7-.3-3.1-.7M380.7,454.2c-1.8-3.3-3.2-1.4-4.5-.5-1.3-.2-2.5-.5-3.8-.7,0,1.7-.1,3.3-.2,5,1.4-.2,2.8-.4,4.3-.6.8.3,2.6,1.3,2.8,1,.8-.9,1.1-2.3,1.4-4.1M382.9,472.7c-.9.2-1.7.5-2.6.6-1.2.2-2.3.3-3.5.5.2,1.4.2,3,.8,4.2.2.3,2.2-.2,3.3-.4,1-.1,2.2.6,3.5.5.5,0,1.5-1.8,1.3-2.4-.4-1.2-1.5-2.2-2.8-3.1M354.7,455.6c.7.5,1.2,1.3,2,1.5,1.1.4,2.3.5,3.4.7,0-1.5,0-3.1,0-4.6-1.1.2-2.4.3-3.4.7-1.2.5-2.2,1.3-2.7,1.6-.5,0-.1,0,.8,0M384,448.4c2.5-1.5,2.4-3.5.9-5.4-.3-.4-2.5-.3-2.8.3-1.3,2-1.4,4.1,1.9,5.2M361.5,474c.4,1.5.8,3,1.1,4.4.8-.2,2.2-.3,2.3-.7.4-1.3.6-2.8.2-4-.1-.4-2.2-.2-3.6.2M391.5,444.5c.6,1.3,1.2,2.6,1.8,3.9.8-.5,2.2-1,2.3-1.5,0-1.4-.5-2.8-.8-4.2-1,.4-2.1.8-3.3,1.8M381.6,463.8c.4,1.5.7,3,1.2,4.4,0,0,2.2-.2,2.2-.5.3-1.4.2-2.9.2-4.4-1.1,0-2.2,0-3.6.4M395.1,437.9c.3-1.1.9-2.3.7-3.2-.2-.9-1.4-1.5-2.2-2.3-.7.8-1.9,1.5-2,2.4-.3,2.1,0,4.1,3.5,3.1M400.9,454.6c-1-.6-2-1.3-3-1.9-.4,1.3-1.1,2.5-1.1,3.8,0,.7,1.2,1.4,1.8,2.1.8-1.1,1.5-2.2,2.3-4M364.8,447.9c.3-1.1,1-2.2.8-3.2-.2-.9-1.3-1.6-2-2.4-.7.8-2,1.4-2.1,2.3-.3,2-.1,4.1,3.4,3.3M375.8,434.5c-.8-.7-1.5-1.6-2.4-2-.3-.1-1.8,1.2-1.7,1.7.2,1.5,1,2.8,1.5,4.3.9-1.1,1.8-2.2,2.6-3.9M375.3,447.5c.2-.5.6-1.1.4-1.4-.7-1.3-1.5-2.5-2.3-3.7-.7,1.1-1.9,2.2-1.9,3.3,0,1.9.8,3.7,3.9,1.8M393.4,468.4c3-.5,2.9-2.6,2.1-4.6-.3-.7-1.8-.8-2.8-1.1-.2,1.6-.5,3.2-.6,4.8,0,.2.5.5,1.4.9M362.5,457.1c.8.6,1.5,1.2,3,2.3-.6-3.1-.9-4.9-1.3-6.8-4.4.4-.3,2.9-1.7,4.5M389.7,445.7c0-1.1-.2-2.1-.3-3.2-.4,0-.9,0-1.3-.1-.2,1.9-.4,3.9-.6,6.6.8-1.3,4.3,1.2,2.2-3.2M399.8,444.6c-.5-.6-1-1.3-1.4-1.9,0,.7,0,1.4-.2,2.1-.2,1.1-.4,2.3-.6,3.5h3c-.3-1.2-.5-2.1-.8-3.7M378.2,436c-.3.7-.5,1.4-.8,2.3h2.9c-.3-1.9-.6-3.7-.9-5.6-.4,0-.8,0-1.2,0,0,.9,0,1.8,0,3.3Z"/>
      <path class="cls-29" d="M993.6,634.8c.4,15.8-3.1,30.9-9.3,45.2-6.2,14.3-15,27-26.4,37.7-11.1,10.4-23.7,18.4-37.9,23.9-10,3.8-20.3,6.5-31.1,7.1-2.7.1-5.3.5-8.4.3-.4-16.5-.4-32.6-.2-49,.2-13.1.2-25.9.4-38.9,7.1-6,13.9-12,21.1-17.8,11,.2,21.7.4,32.3.5,1,0,2.8-1.1,3-1.9,1.2-4.9,4.6-6.6,9.4-7.2,1.2-.1,2.1-.3,3.1-.3,13.5.3,26.9.3,40.5.3,1.3,0,2.3.1,3.3.1Z"/>
      <path class="cls-28" d="M880.2,700.3c0,16.1,0,32.2,0,48.6-.5.4-1,.5-1.6.5-82.6,0-165.2,0-248-.3,1.7-1.1,3.7-1.9,6-2.8,25.2,0,50,0,74.7-.1,1.4,0,2.7-.3,4.5-.6,16.4-.3,32.4-.4,48.4-.6,8.9-.1,11-2.7,9.5-11.9-3.3,0-6.6,0-10,0-3.6.1-5.4-1.2-5.2-5,.1-2.6,0-5.2,0-7.8,0-4.2,1-5.2,5.3-5.2,3.3,0,6.7,0,10.7,0-.5-3.3-1-5.9-1.5-8.8-.9-2.2-1.7-4.1-2.1-6,36.7,0,72.9,0,109.2,0Z"/>
      <path class="cls-29" d="M420.2,521.1s0-.3,0-.8c0-6.5,0-12.6,0-18.9-.1-2.6,1.4-2.7,3.1-2.7,6,0,11.9,0,18.3,0,3.2,0,6.1,0,9.3,0,9.8,0,19.1,0,28.9.1,4.6,0,8.8,0,13.4,0,.9,0,1.6,0,2.3-.1.1,0,.4,0,.8,0,9,0,17.7,0,26.3,0q4.8,0,4.6-5.4c.1-1.7.2-3,.5-4.3.8.1,1.3.3,1.8.7.4,3.2.7,6,1.4,8.9,18.1,0,35.9.1,53.6,0,2.8,0,3.9.7,3.8,3.7-.2,5.6,0,11.1,0,17.1,0,5.2,0,10,0,14.8,0,20-.1,39.9-.5,60-54.9.1-109.5.1-164.1.2-1.1,0-2.3-.3-3.4-.4,0-17.1,0-34.3,0-52.1,0-7.3,0-14,0-20.6M435.7,583.6c.8.3,1.6,1,2.4,1,4.3,0,8.6,0,12.8,0,21.5,0,43-.1,65.3-.2h53v-76.1c-18.1,0-35.9,0-54.2-.3-2.7,0-5.5.1-8.8.2h-70.5c0,22.5,0,44.3-.3,66.6.2,2.7.3,5.4.4,8.6Z"/>
      <path class="cls-10" d="M492.9,498.5c-4.2,0-8.4,0-13.1-.3-.4-32-.4-63.6-.4-95.6-1.8,0-3.2,0-5,0-11.3,0-22.2,0-33.5,0-40,0-79.6,0-119.2-.4,0-6.3,0-12.3,0-18.3,10,0,20-.1,30.1-.1,45.6,0,91.1,0,136.7,0h4.6c0,6.1,0,12.1-.1,18.8-.1,32.5-.1,64.2-.2,96Z"/>
      <path class="cls-13" d="M1260.3,339.4c2.1-4.4,3.8-9.2,6.6-13.1,3.6-5.2,10.3-3.6,13.8,2.4,5.6,9.6,8.1,20.2,9.9,31,1.5,9,2.5,18.2,3.1,27.3.8,11.3,1.9,22.7,1.5,34-.6,15.6-2.3,31.2-3.7,46.8-1,11-3.5,21.8-7.9,32-1.4,3.3-3.7,6.4-6.1,9.1-2.8,3.2-7,3.4-9.4,0-3.4-4.9-5.8-10.6-8.4-16.3,1.9-3.7,4.2-6.9,5.2-10.4,5.2-17.6,8.3-35.5,8.7-53.9.4-18.8-.6-37.6-3.4-56.2-1.5-9.8-3.9-19.5-6.1-29.3-.4-1.8-1-4-3.8-3.4Z"/>
      <path class="cls-26" d="M1260.1,339.6c3-.8,3.6,1.4,4,3.2,2.1,9.7,4.6,19.4,6.1,29.3,2.7,18.6,3.8,37.4,3.4,56.2-.4,18.4-3.5,36.3-8.7,53.9-1,3.5-3.3,6.6-5.2,10.1-1.2-2.8-2.1-5.7-3.1-9.2-1.2-5-2.5-9.3-3.2-13.8-2-12.9-3.7-25.8-5.6-39.1-.3-18.5.9-36.5,3.9-54.4,1-6,2.1-12,3.1-18,1.7-6,3.5-12,5.4-18.2Z"/>
      <path class="cls-32" d="M420,593.9c1.4.1,2.6.4,3.7.4,54.6,0,109.2,0,164.3,0,1.2,1.5,2,2.9,2.6,4.3,3.4,8,6.7,16.1,10.1,24.3,1,2.7,2.1,5.1,3.1,7.6,0,.4.1.6.3,1,.2.4.4.7.6,1.2,1.4,3.4,2.7,6.5,4,9.9,2,5,4,9.8,6.1,14.8,1.6,4.4,3.2,8.4,5,13h-4.6c-15.1,0-30.1,0-45.2,0-18.3,0-36.6.1-55.3.1-7.1,0-13.9,0-20.9,0-2.6.2-4.8.5-7.1.8h-99.3c4.8-11.8,9.3-23.2,14-34.6,5.5-13.5,11.1-27,16.7-40.5.3-.8,1.1-1.5,2-2.2M546.1,613.8s0,0-.7,0c-.4,0-.9-.1-2.1-.3-.3,0-.5,0-1.3.2-.4,0-.7,0-1,0,0,0,0,0-.6,0-.4,0-.8,0-2,0-1.4,0-2.8,0-5.1,0-.6,0-1.1,0-2.1.2-1.4,0-2.8,0-4.6-.2-.7.1-1.3.2-2.4.4-.5,0-1,0-2.1-.3-2.6,0-5.3-.1-8.5,0-1.6.2-3.2.3-5.3,0-2.7,0-5.5,0-8.9-.1-1.3,0-2.7.1-4.4,0,0,0-.4,0-1,0-1.4.2-2.7.5-4.5.2-5,0-10,0-15.3,0-.5,0-1,0-2.3,0-.5,0-1.1,0-2.1,0-1.1.2-2.1.5-3.6.2-1.5,0-3.1,0-5.3-.1-3.6,0-7.2,0-11.5-.1-4.3,0-8.5,0-13.4,0-1.7.2-3.4.4-5.5.5-.2,0-.5,0-1.3-.1q-6.6-.5-9.7,5.6c-7.2,14.1-14.3,28.3-21.5,42.4-.6,1.2-1.2,2.5-2.1,4.2h218.3c0-.3,0-.6,0-.8-8.3-16.6-16.6-33.3-25-49.8-.4-.8-2.2-1-4-1.4-.9,0-1.9,0-3.2-.1-.9,0-1.8.1-3.3.2-1.4,0-2.8,0-4.7-.4-1.4,0-2.9.1-4.8.3-.2,0-.3,0-1-.1-1.3.1-2.5.2-4.2.3-.2,0-.5-.1-1.3-.4-3,0-6,0-9.7,0-1.7,0-3.3,0-5.6,0-.4,0-.9,0-1.3,0M559,596.9h-136.1v15.3h165.3v-15.3h-29.1Z"/>
      <path class="cls-10" d="M1080.5,532.1c-28.7,0-57.3,0-86.6,0-1.6,0-2.4,0-3.5-.2-.5,0-.8,0-1.5,0-4.2-.1-8.1,0-12-.3-1,0-1.9-1.1-2.8-2,0-.8,0-1.2,0-2,0-2.9,0-5.4,0-8.3,0-20.4.1-40.5,0-60.6,0-1.1-.5-2.2-.8-3.6,0-4,0-7.6.3-11.3,9.9,0,19.4,0,28.9,0,24.6,0,49.2,0,73.6.3-8.6,2.1-15.8,6.2-22.7,11.7-15.5,0-30.7,0-46.2,0-2.1,0-3.8,0-5.9,0-6.3,0-12.2,0-17.8,0-.4.7-.5.8-.5.9,0,20.4-.1,40.8-.2,61.2,0,2.3,1.3,2.6,3.5,2.1,7.3,0,14.3,0,21.6,0,15.8,0,31.2,0,46.9.1,2.3,1.7,4.2,3.7,6.5,4.7,6.3,2.6,12.7,4.8,19.1,7.2Z"/>
      <path class="cls-29" d="M321.5,383.8c.3,6,.3,12,.3,18.7,0,2.3,0,4,.1,5.6-.1,10-.2,19.9-.6,30.2-5.2-2.1-10.4-4.4-15.3-7-9.1-4.8-18.1-9.8-27.1-14.7-7.3-3.9-14.6-7.8-21.9-11.7-3.8-2.1-5.9-8.1-4.7-13,1.1-4.3,6.4-8.1,11.4-8.1,19.1,0,38.2,0,57.7,0Z"/>
      <path class="cls-23" d="M1080.8,532.1c-6.7-2.4-13.2-4.6-19.5-7.2-2.3-1-4.2-3-6.7-4.8-1.5-1.4-2.6-2.5-3.8-3.9-3-6-6.8-11.5-8.6-17.6-4.2-14.2-.4-27.2,8.5-39.1,1.2-1.3,2.1-2.4,3.1-3.6,6.5-5.6,13.7-9.7,22.7-11.8,3.3-.2,6.1-.3,8.8,0,0,1.6.1,2.9.2,4.1,23.6,1.5,37,18.8,38.5,36.1.8,9.4-1.5,18.1-7,25.8-7.6,10.8-18.4,16.1-31.3,16.9-.2.7-.3,1.1-.3,1.5,0,1.2,0,2.3,0,3.5-1.4,0-2.9,0-4.7,0M1084.9,456.9c-20.4.3-34.7,18.2-30.2,37.8,3.2,14.2,17.7,25.3,31.4,23.6,17.6-.8,30.2-14.6,29.6-32.1-.6-16.1-14.3-29.3-30.8-29.3Z"/>
      <path class="cls-29" d="M320.8,470.4c.5,3.8.8,7.6.9,11.4.1,4.5,0,9,0,14.3,0,2.3,0,3.9,0,5.9,0,6.3,0,12.3,0,18.3-19.5,0-39,.1-58.5,0-5.9,0-11-4.1-11.8-9-1-6.1,1.8-10.2,8.1-13,11.9-5.4,23.7-11.1,35.5-16.6,8.4-3.9,16.8-7.6,25.6-11.5Z"/>
      <path class="cls-10" d="M322.2,520.4c-.4-6-.4-12,0-18.3,33-.4,65.5-.4,98.1-.4,0,6,0,12,0,18.4-32.6.3-65.1.3-98,.3Z"/>
      <path class="cls-29" d="M1254.4,358c-.8,5.9-1.8,11.9-2.8,17.9-3,17.9-4.1,35.9-4.2,54.4-13.4.4-26.4.3-39.4,0,0-6,0-11.7,0-17.3-1.4-.4-2.3-.8-3.3-1.1,6.9-5.7,13.9-11.1,20.6-17,4.5-4,9.1-8.1,12.7-12.9,5.8-7.7,10.9-15.9,16.5-24Z"/>
      <path class="cls-9" d="M607,384.6c23.8,0,47.7,0,71.5-.1,20.7,0,41.4,0,62.6.3,2.8,1.9,5,3.6,7.4,5.5.4,3.7.7,7.1.9,10.8,0,19.9,0,39.3-.4,58.9-5.3,0-10.3,0-15.3-.4,0-1.4,0-2.4,0-3.5,0-19.6,0-39.3,0-58.9,0-6-3.1-9.4-9.1-10-1.7-.2-3.4,0-5.1,0-38,0-75.9-.1-113.8-.4.5-.9.9-1.5,1.4-2.1Z"/>
      <path class="cls-16" d="M1003.1,411.8c5.5,0,11,0,17.2,0,4.9,0,9.1,0,13.3,0,19,0,37.9,0,56.9.1,30.8,0,61.6,0,92.7.4.4,2.1.4,3.9,0,5.7-46.7,0-93,0-139.4,0-25.2,0-50.5,0-75.7-.4,0-1.8-.2-3.3,0-4.8,2-.4,3.6-.7,5.3-1,5.2,0,10.4,0,16.3,0,4.9,0,9.1,0,13.4-.1Z"/>
      <path class="cls-25" d="M1208,430.5c13,0,25.9,0,39.3,0,2.2,12.9,4,25.8,6,38.7.7,4.5,2,8.8,3.1,13.5-3.8-3.9-7.3-8.3-11.3-12.2-9.2-8.7-19.4-16-30.5-22.2-2.4-1.4-4.9-2.7-7.2-4.6.3-4.8.5-9,.8-13.3Z"/>
      <path class="cls-17" d="M486.7,671.5c2.1-.5,4.4-.8,7-.7,18.8,55.1,74.7,85.7,132.1,72.8.9,1.1,1.6,2.4,2.6,2.5,2.6.3,5.3.2,8,.2-2,.8-3.9,1.6-6,2.7-13.1,4-26.4,5.3-39.7,4.1-24.9-2.1-47.4-10.7-66.7-27.1-12.7-10.8-22.8-23.4-30.3-38.2-2.6-5.2-4.5-10.7-6.8-16.3Z"/>
      <path class="cls-2" d="M1085.4,443.9c-2.7,0-5.5,0-8.6,0-25,0-49.6,0-74.2,0-9.5,0-19,0-29.2,0-2.2,0-3.7,0-5.2-.4,0-1.9,0-3.5.4-5.1,71.9,0,143.5,0,215.1.3,0,1.9,0,3.5,0,5.1-29.4,0-58.9,0-89,0-3.5,0-6.3,0-9.1,0Z"/>
      <path class="cls-17" d="M973.4,455.6c.3,1.1.8,2.2.8,3.2,0,20.1,0,40.2-.4,60.6-8.5.4-16.6.5-25,.5-1,0-1.7,0-2.8,0-2-.1-4,.4-3.9-2.8,0-2.2,0-4.1,0-6.4,0-7.3,0-14.2,0-21.5.1-10.8.1-21.2.2-31.6,0-16,.2-32,.4-48.3,0-1.5,0-2.6,0-4-.7-.6-1.5-1-2.2-1.7,0-4.7,0-9,0-13.6-3.1,0-5.8,0-8.8,0-14.5,0-28.5,0-43,0-2.9,0-5.4,0-8.1,0,0,5.1,0,9.6-.3,14.1-1.6,0-2.9,0-4.3-.4,0-6.6,0-12.8,0-19h69.3c0,8.9,0,17.7-.3,27-.5,1.1-1.1,1.6-1.1,2.2,0,9.2,0,18.4,0,27.6,0,.8.9,1.7,1.3,2.9,0,3.9,0,7.5,0,11.2h28.1M944.8,486c.9,0,1.9,0,3.6.1,7.9,0,15.8-.1,24-.2.2-.1.2-.3.2-1.3,0-7.7,0-15.3,0-23.5-.2-1-.4-2.1-1.3-3.3h-27c0,9.5,0,18.7.5,28.2M972.4,517.2v-27.2c-9.5,0-18.7,0-28.3.5v27.3c9.8,0,19,0,28.3-.6Z"/>
      <path class="cls-10" d="M875.7,384.6c.4,6.3.4,12.4,0,19.1-1.7.4-3.1.4-4.4,0,0-4.7,0-9.1,0-13.7h-122.9c-2.3-1.6-4.6-3.3-7-5.2,11.7-.3,23.5-.3,35.3-.3,32.9,0,65.7,0,98.9,0Z"/>
      <path class="cls-21" d="M1183.9,443.9c-.3-1.6-.3-3.2-.3-5.5,0-7.3,0-13.8,0-20.4,0-1.8,0-3.5,0-5.6,6.7-.4,13.5-.4,20.6-.5,1.3.3,2.3.6,3.7,1.1,0,5.5,0,11.2,0,17.3-.2,4.6-.4,8.9-.9,13.4-7.8.3-15.3.3-23.2.2Z"/>
      <path class="cls-21" d="M945.4,444c-.5-.8-1.3-1.7-1.3-2.5,0-9.2,0-18.4,0-27.6,0-.5.5-1.1,1.1-1.8,4.9-.2,9.6-.1,15-.1,3.1.3,5.4.6,7.8,1,0,1.5.2,3,.2,5.1,0,7.3,0,13.9.1,20.5,0,1.6,0,3.1-.4,5.1-7.7.4-15.1.4-22.4.5Z"/>
      <path class="cls-20" d="M1085.4,444.2c2.8-.3,5.6-.3,8.8-.3,7.1,2.3,13.6,5,19.2,9.7,8.5,7.1,13.6,16,15.4,26.7,2.6,15.3-1.9,28.8-13.1,39.5-8.1,7.8-18,12.1-29.8,12.2-.3-1.2-.4-2.4-.4-3.6,0-.4.1-.8.3-1.5,13-.8,23.7-6.1,31.3-16.9,5.5-7.7,7.8-16.4,7-25.8-1.4-17.3-14.8-34.6-38.5-36.1,0-1.2-.1-2.5-.2-4.1Z"/>
      <path class="cls-17" d="M493.3,498.6c-.3-31.8-.3-63.6-.2-95.7,10.9-.4,21.8-.4,33.3-.2.7,1.1.8,2,.5,3-10.6.1-20.8.2-31.2.6-.2,2-.2,3.8-.2,5.9,0,12.5,0,24.6,0,36.9,0,.4.2.5.8.5,10.4,0,20.3,0,30.5,0,.1,0,.5.1.5.5,0,1.8,0,3.4-.4,4.9-10.6,0-20.8,0-31.2,0,0,13.3,0,26.1,0,39.3,0,1.6,0,2.9,0,4.3-.6,0-1.3.1-2.2.1Z"/>
      <path class="cls-6" d="M527.2,405.6c0-.9-.2-1.9-.5-3-.2-2.3-.2-4.3-.2-6.4,0-7.2,4.4-11.6,11.8-11.6,22.6,0,45.3,0,68.3,0,0,.7-.5,1.3-1.3,2.2-1.9.4-3.5.4-5,.4-20,0-40,0-60,0-7.1,0-10.5,3.5-10.6,10.5,0,1.3,0,2.6,0,4.3,0,20.5,0,40.7,0,60.8,0,8.8-.1,17.7-.2,26.5-.5-.1-1-.2-1.9-.6-.4-.6-.5-.9-.5-1.5,0-6.8,0-13.3,0-20.1,0-1.7,0-3.1,0-4.8,0-2.7,0-5.1,0-7.4,0-1.5,0-3,.1-5.1,0-.8,0-.9,0-1.4,0-2.5,0-4.6,0-7,0-1.6,0-2.9,0-4.6,0-6.8,0-13.3,0-20,0-2.1,0-3.8.1-5.9,0-2,0-3.6,0-5.2Z"/>
      <path class="cls-1" d="M990.5,532c.9,0,1.8,0,2.9.1.3,34,.3,68,.2,102.3-1.1.3-2.1.3-3.4,0-.3-.7-.4-1.1-.2-1.7.3-1.3.4-2.3.4-3.3,0-32.4,0-64.9,0-97.3Z"/>
      <path class="cls-9" d="M1003.2,411.5c-4.4.3-8.6.3-13.1.3-4.9-4-7.9-8.6-6-15,1.7-5.8,6.9-9.9,12.2-9.9,5.6,0,11.4,4.2,12.9,9,2.1,6.8-.8,12.7-6.1,15.6M1006.3,398.5c-1.1-1.7-1.8-3.6-3.2-5-3.9-4-8.6-3.9-12.6.1-3.8,3.8-4,9.5-.6,13.2,3.1,3.4,6.9,3.3,10.8,2.3,3.8-1,5.7-4.7,5.7-10.6Z"/>
      <path class="cls-9" d="M1033.7,411.5c-4.3.2-8.5.3-13.1.3-4.8-2.8-7.3-7-7-12.1.3-5,2.7-9,7.7-11.4,6.9-3.4,14.5.2,17.4,5.9,2.5,4.8,2.2,13.1-5,17.4M1023.1,409.2c4,.6,7.9,1.1,11-2.7,2.9-3.5,3.6-8,1.1-11.4-2.9-4-8.5-5.6-12.4-3.6-4.2,2.2-6.7,6.9-5,11,1,2.4,3.2,4.3,5.3,6.7Z"/>
      <path class="cls-9" d="M968.2,412.8c-2.7-.2-5.1-.6-7.8-.9-4-3.2-6.7-6.8-6.5-12.1.2-6.3,5-11.9,11.4-12.9,5.7-.9,12.7,3.7,14.3,9.3,1.7,6-.5,11.6-6.1,15.3-1.8.5-3.4.8-5.4,1.2M970.9,409.2c6.5-3.9,7.7-12.2,2.3-16.5-3.5-2.8-9.1-2.8-12.2,0-3.7,3.2-4.9,7.9-2.8,11.9,2.3,4.5,7.1,6.4,12.8,4.7Z"/>
      <path class="cls-22" d="M419.9,521.3c.3,6.4.3,13.1.3,20-.3-1.3-.8-3-.8-4.7,0-5.1,0-10.1.5-15.3Z"/>
      <path d="M441.4,402.6c10.9,0,21.9,0,33.2.3.4,5.6.4,10.8,0,16-8.1,0-15.9,0-23.5,0-.2.8-.4,1.2-.4,1.5,0,19.9,0,39.7,0,59.9,0,2.9,0,5.4,0,8.4,0,2.3,0,4.2,0,6.5,0,1.3,0,2.2,0,3.2-2.9,0-5.7.1-9-.1-.4-1-.5-1.6-.6-2.2,0-7.9.2-15.9.2-23.8,0-21.2,0-42.4,0-64.3,0-2.3.1-3.9.2-5.5Z"/>
      <path class="cls-9" d="M441,402.6c.3,1.6.2,3.2.1,5.2-39.6.3-79,.3-118.9.3-.4-1.6-.4-3.2-.4-5.2,39.6-.3,79.2-.3,119.2-.3Z"/>
      <path class="cls-9" d="M440.7,496.1c.4.6.5,1.2.6,2.1-6,.3-11.9.4-17.9.4-1.7,0-3.2,0-3.1,2.7-32.6.3-65.2.3-98.1.3-.4-1.6-.4-3.2-.4-5.2,39.5-.3,79.1-.3,118.9-.3Z"/>
      <path class="cls-19" d="M433.1,478.1c2.4,4.5,2.2,7.9-.5,10.6-2.7,2.7-5.9,3.3-9.3,1.7-3.4-1.6-5.4-4.7-4.4-8.3.7-2.4,2.7-5.1,4.9-6.4,3.2-1.9,6.5-.7,9.3,2.3M427.5,489.3c4.3-.5,6-4.9,5.2-7.7-.9-3.4-4.2-5-8.5-4-2.9.7-4.7,3.6-3.9,6.9.8,3.3,3.3,4.7,7.2,4.8Z"/>
      <path class="cls-18" d="M426,413.5c6.2.8,9.6,4.4,9,9.2-.6,4.5-4.5,7.6-9.1,7.2-3.9-.3-7-3.4-7.4-7.3-.5-4.4,1.9-7.4,7.5-9.1M431.2,425.6c2.2-2.6,2.1-5.3,0-7.8-2-2.3-4.7-2.7-7.4-1.2-2.6,1.4-4,3.6-3.3,6.7,1,4.6,4.9,5.6,10.8,2.3Z"/>
      <path class="cls-13" d="M370.7,464.6c-.5,1.4-1.1,2.6-1.6,3.7-1.1-.6-2.2-1.2-3-1.6-.8.4-1.9,1.4-3.1,1.4-.5,0-1.6-1.7-1.6-2.6,0-1.1.8-2.6,1.7-2.9.7-.3,2,.8,3.2,1.5,1.1-1.2,2.6-3.7,4.4.5Z"/>
      <path class="cls-13" d="M359.2,432.5c1.1.3,2,.5,2.8.6,1,0,2.8-.1,2.9.1.3,1.4.4,2.9.2,4.3,0,.3-1.9.4-2.9.4-.6,0-1.4-.6-1.7-.4-1.5,1.4-2.9,1.4-3.7-.5-.9-2.1-.8-4.1,2.4-4.6Z"/>
      <path class="cls-13" d="M380.7,454.4c-.4,1.5-.6,2.9-1.5,3.9-.3.3-2-.7-2.8-1-1.4.2-2.9.4-4.3.6l.2-5c1.3.2,2.5.5,3.8.7,1.3-.9,2.8-2.7,4.6.8Z"/>
      <path class="cls-13" d="M383.1,472.7c1.1,1,2.2,2,2.6,3.2.2.6-.8,2.4-1.3,2.4-1.2,0-2.4-.7-3.5-.5-1.2.1-3.2.7-3.3.4-.6-1.3-.6-2.8-.8-4.2,1.2-.2,2.3-.3,3.5-.5.9-.2,1.7-.4,2.8-.7Z"/>
      <path class="cls-13" d="M354.4,455.6c-.6,0-1-.1-.5,0,.5-.3,1.6-1.1,2.7-1.6,1.1-.4,2.3-.5,3.4-.7,0,1.5,0,3.1,0,4.6-1.1-.2-2.3-.3-3.4-.7-.8-.3-1.3-1-2.3-1.6Z"/>
      <path class="cls-13" d="M383.7,448.5c-3.1-1.1-3-3.2-1.7-5.2.3-.5,2.5-.7,2.8-.3,1.5,2,1.6,4-1.1,5.5Z"/>
      <path class="cls-13" d="M361.7,473.7c1.3-.2,3.3-.4,3.5,0,.4,1.2.2,2.7-.2,4-.1.4-1.5.5-2.3.7-.4-1.5-.8-3-1-4.7Z"/>
      <path class="cls-13" d="M391.5,444.2c1.1-.7,2.2-1.1,3.2-1.5.3,1.4.8,2.8.8,4.2,0,.5-1.5,1-2.3,1.5-.6-1.3-1.2-2.6-1.7-4.2Z"/>
      <path class="cls-13" d="M381.7,463.5c1.3-.2,2.4-.2,3.5-.2,0,1.5,0,2.9-.2,4.4,0,.3-2.2.6-2.2.5-.5-1.4-.8-2.9-1-4.7Z"/>
      <path class="cls-13" d="M394.8,438.1c-3.2.7-3.6-1.3-3.3-3.3.1-.9,1.3-1.6,2-2.4.8.8,2,1.4,2.2,2.3.2,1-.4,2.2-.9,3.4Z"/>
      <path class="cls-13" d="M400.9,454.9c-.7,1.4-1.5,2.5-2.3,3.6-.7-.7-1.8-1.4-1.8-2.1,0-1.3.7-2.5,1.1-3.8,1,.6,2,1.3,3.1,2.2Z"/>
      <path class="cls-13" d="M364.5,448.1c-3.2.6-3.4-1.5-3.1-3.5.1-.9,1.4-1.5,2.1-2.3.7.8,1.8,1.5,2,2.4.2,1-.5,2.1-1,3.4Z"/>
      <path class="cls-13" d="M375.8,434.8c-.9,1.4-1.7,2.5-2.6,3.6-.5-1.4-1.3-2.8-1.5-4.3,0-.5,1.4-1.8,1.7-1.7.9.4,1.6,1.3,2.5,2.3Z"/>
      <path class="cls-13" d="M375.1,447.7c-2.8,1.7-3.6-.1-3.6-2,0-1.1,1.3-2.2,1.9-3.3.8,1.2,1.7,2.4,2.3,3.7.2.3-.3.9-.6,1.7Z"/>
      <path class="cls-13" d="M393.1,468.4c-.6-.3-1.1-.6-1.1-.8.2-1.6.4-3.2.6-4.8,1,.4,2.5.5,2.8,1.1.9,2,.9,4.1-2.3,4.5Z"/>
      <path class="cls-12" d="M362.7,456.9c1.2-1.4-2.9-3.9,1.5-4.3.3,1.8.7,3.6,1.3,6.8-1.4-1.1-2.2-1.7-2.8-2.5Z"/>
      <path class="cls-13" d="M389.7,446c2.1,4.1-1.4,1.7-2.2,2.9.3-2.7.4-4.6.6-6.6.4,0,.9,0,1.3.1,0,1.1.2,2.1.3,3.5Z"/>
      <path class="cls-13" d="M399.8,444.9c.2,1.2.5,2.2.8,3.4h-3c.2-1.2.4-2.4.6-3.5,0-.7.1-1.4.2-2.1.5.6,1,1.3,1.4,2.2Z"/>
      <path class="cls-13" d="M378.2,435.7c0-1.2,0-2.1,0-3,.4,0,.8,0,1.2,0,.3,1.8.6,3.6.9,5.6h-2.9c.3-.9.6-1.6.8-2.6Z"/>
      <path class="cls-1" d="M942.1,517.4c-.1,2.8,1.9,2.3,3.9,2.8,0,4.7-.1,8.9-.3,13.5-1.5,21.6-6.4,42.1-14.5,62.4,2.9-.3,5-.5,7.1-.4-.8.8-1.4,1.6-2.2,1.8-6.1,1.3-8.6,5.9-10.5,11.4-4.3,6.9-8.3,13.5-12.7,20.1-1,.2-1.8.6-2.8.8-3,.2-3.9,1.2-2,3.6.5.6,1,1.1,1.2,1.7-1.8,1.7-3.4,3.3-5.1,5-1,1.1-1.8,2.1-2.7,3-6.8,5.9-13.7,11.8-21,18-12.8,8.1-26,13.4-40.7,14.3-.3-4.3-.8-8.3-.7-12.2,0-6.5.5-13.1,1-19.7,10.4,0,20.4,0,30.8,0,0-11.3,0-22.2.2-33.2,5.3-2.5,10.4-4.8,15.5-7,7.1-3.1,14.3-6.1,21.9-8.9,5.2.2,10,.2,14.8.4,2.6.1,3.7-.8,3.3-3.4-1.7-10.6-2.7-21.4-5.3-31.7-3.9-15.7-12.3-29.4-22-42,14.5,0,28.6-.1,42.7-.1M899.2,628.3c-1.6.3-3.3.6-4.7.9-.7,3.2.8,5,3.3,5.7,1,.3,2.4-1,3.3-1.3-.6-2.1-1-3.6-1.8-5.3Z"/>
      <path class="cls-34" d="M839.8,675.8c14.7-1.2,27.9-6.5,40.5-14.5.3,12.7.3,25.5,0,38.7-36.4.3-72.7.3-109.5,0-4.1-8.1-7.7-16-11.4-23.9-.5-1.1-2-2.5-3.1-2.5-4.4-.3-8.8-.1-13.2-.1.2.4.5.8.7,1.2-2.6,2.3-5,5.1-8,6.7-6.2,3.3-13,4.4-20,3.5,0-3-.1-5.6,0-8.4.2-1.1.3-2,.7-3.1,8.2-12,17.3-22.6,32.3-26.4,8.9-1,16.3,1.8,23.1,7,1.9,1.5,4.1,2.7,6.2,4.2,18.6,13.6,39,19.7,61.7,17.4M871.3,685.3c-2.6-1.4-5.2-.7-6.5,1.6-.8,1.4-.7,4,0,5.7,1.2,2.7,4.7,2.9,7.3.8,2.4-1.9,2.3-4.6-.8-8Z"/>
      <path class="cls-15" d="M945.6,533.4c.2-4.3.4-8.5.6-13.1.8-.4,1.5-.4,2.5,0,.4,2.7.4,5,.5,7.6,0,1,.1,1.6,0,2.6,0,7.6,0,14.8-.1,22.2,0,.9,0,1.6,0,2.7,0,7.8,0,15.3,0,23.1,0,.9.2,1.6.1,2.6,0,8.4,0,16.5,0,24.9-.4,8.3-.7,16.4-.8,24.5,0,1,.6,1.9.9,3,0,.3,0,.5.1.6-.9.2-1.7.4-3,.2-.4-1.6-.5-2.8-.6-4.3,0-14.4,0-28.5,0-42.6,0-1.5-.5-2.9-.6-4.7.3-.7.5-1,.5-1.4,0-16-.2-31.9-.3-47.9Z"/>
      <path class="cls-33" d="M946.1,630.3c0,1.2.1,2.3.2,3.9-4.4,1-7.9,2.7-9.1,7.6-.2.9-2,1.9-3,1.9-10.7,0-21.3-.3-32.3-.5.5-1,1.3-2,2.5-2.8,1.8.2,3.2.5,4.6.5,6.1-.3,12.2-.6,18.6-.9,4.2.2,8.3,1.1,9.7-4.5.3-1.4,2.9-2.3,4.5-3.3,1.3-.8,2.8-1.2,4.3-1.8Z"/>
      <path class="cls-5" d="M949.8,634.3c-.3-.4-.3-.6,0-.9,13.6-.3,26.8-.4,40.1-.5,0,.4,0,.8,0,1.4-13.3.3-26.7.2-40.2,0Z"/>
      <path class="cls-25" d="M715.8,685.3c7,.5,13.8-.6,20-3.9,3-1.6,5.4-4.5,8-6.7-.2-.4-.5-.8-.7-1.2,4.4,0,8.8-.2,13.2.1,1.1,0,2.6,1.4,3.1,2.5,3.7,7.9,7.3,15.8,11,23.9.9,2.1,1.7,4,2.2,6.2-4.2.5-8.1.8-12,.8-30.8.1-61.5.2-92.3.4-3.1,0-6.2,0-9.2-.2,2.8-6.7,5.5-13,8.3-19.6.9-1.9,1.5-3.6,2.4-5.5,4.7-10.1,1.6-8,12.7-8.3.3,0,.5,0,.8,0,3.5-.7,6,.4,7.3,4.1,7.3,6.8,16,7.9,25.2,7.5Z"/>
      <path class="cls-10" d="M659.1,707.5c3.1,0,6.2,0,9.3-.1,30.8-.1,61.5-.2,92.3-.4,3.9,0,7.8-.3,12-.5.8,2.6,1.3,5.2,1.8,8.5-4,0-7.3,0-10.7,0-4.4,0-5.3,1-5.3,5.2,0,2.6.1,5.2,0,7.8-.2,3.8,1.6,5.1,5.2,5,3.3-.1,6.7,0,10,0,1.5,9.2-.6,11.8-9.5,11.9-16,.2-32,.4-48.7.5-15.6,0-30.4,0-45.2,0-10.9,0-11.9-.9-11.3-11.7,3.9,0,7.3,0,10.8,0,2.8,0,4.3-1.4,4.2-4.3,0-3.1-.1-6.2,0-9.3,0-3.2-1.6-4.4-4.6-4.4-3.6,0-7.2,0-10.9-.3.2-2.9.4-5.5.7-8M721.8,725.7c.6,2.4.9,4.9,2,7.1,4.2,8.2,15,10.9,23.3,5.9,7.5-4.5,9.9-14.5,5-21.8-4-6-9.9-8.3-16.9-7.3-6.9,1-11.5,6-14.1,14-3.3,0-6.6,0-10.1-.5-.3-1-.6-2-1-2.9-3-6.2-8.2-9.6-14.9-9.6-6.7,0-12.1,3-15,9.4-2.7,5.9-1.9,11.4,2.1,16.5,4.2,5.3,11.5,7.3,18,5.2,7.2-2.4,10.7-7.5,11.8-16.5,3.3,0,6.6,0,9.9.6Z"/>
      <path class="cls-23" d="M658.6,733.9c-.2,10.8.8,11.7,11.7,11.7,14.8,0,29.7,0,44.9,0-1,.2-2.4.6-3.8.6-24.8,0-49.6,0-74.7.1-3.1,0-5.7.2-8.4-.1-.9-.1-1.7-1.4-2.5-2.8.7-4.9,1.5-9.2,2.6-13.5,10.2,0,20-.1,29.9.1.1,1.5.2,2.7.3,3.9Z"/>
      <path class="cls-30" d="M588.5,519c0-5.6-.3-11.2,0-16.7,0-3-1-3.7-3.8-3.7-17.8,0-35.5,0-53.6-.4-.3-20.9-.2-41.5.2-62,6.5.5,12.7.6,18.8,1.6,5.3.8,10.5,2.5,15.8,4.1,0,.6,0,.9,0,1.6,0,4.9-.2,9.5,0,14,0,1.5,1,2.9,1.6,4.3.7-.1,1.3-.3,2-.4,0-5.9,0-11.8,0-18,0-6.3.2-12.2.6-18.2,9.7-.6,18.5,1.7,26.9,5.8-3.7,15.1,1.9,28,14.8,34.6,0,3.7,0,7-.2,10.5-.3,1.2-.4,2.2-.7,3.3-6.7,1-6.6,1.2-4.7,7.3,1.5,4.8,2.5,9.7,3.3,14.6.8,5.1,1.1,10.2,1.3,15.3-1.8,0-3.2-.1-4.5.1-2.1.3-4.2.9-6.5,1.6-3.9.3-7.5.5-11.1.6Z"/>
      <path class="cls-10" d="M515.6,508.4h53.7v76.1c-17.7,0-35.3,0-53.4-.2-.5-.5-.6-.8-.6-1.4,0-2.8,0-5.3,0-8.1,0-7.1,0-13.9,0-21.1,0-7.2-.1-14-.2-21.1,0-1.1,0-2,.1-3.1.1-7.1.2-13.9.3-20.8,0,0,.1-.3.1-.3Z"/>
      <path class="cls-10" d="M435.7,574.5v-66.1c23.8,0,47.2,0,71,.1.7.2,1,.3,1,.5-.9.3-1.5.5-2.2.5-16.7,1.9-31.3,8.4-44.1,19.6-1.1,1.1-2,2-3.1,3.1-6.8,6.4-12,13.5-15.7,22.1-2.1,6.8-4,13.4-6.2,20.1-.4,0-.6,0-.8,0Z"/>
      <path class="cls-26" d="M588.4,519.3c3.6-.5,7.2-.6,11.3-.7.6,1.6,1,3.1,1,4.6,0,15.6,0,31.2,0,46.7,0,17.5,0,35-.1,52.6-3.3-8-6.7-16.1-10-24.1-.6-1.4-1.3-2.8-2.2-4.4-.1-20.1,0-40.1,0-60.1,0-4.8,0-9.6,0-14.8Z"/>
      <path class="cls-23" d="M435.5,574.7c.3-.3.5-.3,1.2-.1,1.9,0,3.2-.2,4.6-.2,24.6.2,49.2.4,73.9.7,0,2.5.1,4.9-.3,7.7-26.6.3-52.8.4-79,.4-.2-2.7-.3-5.4-.3-8.4Z"/>
      <path class="cls-6" d="M474.9,418.9c0-5.2,0-10.4,0-15.9,1.4-.4,2.8-.4,4.6-.4,0,32,0,63.6,0,95.6-9.4.4-18.8.4-28.5.3-.4-1-.4-2,0-3.3,8.1-.3,15.8-.3,23.8-.3,0-2.5,0-4.5,0-6.9,0-2.4,0-4.5,0-6.9,0-.5,0-.8,0-1.5,0-20.5,0-40.6,0-60.7Z"/>
      <path class="cls-28" d="M527.2,462.7c0,1.4,0,2.7-.2,4.6-6.8,7.1-13.3,13.7-20,20.4-2,2.1-3.8,4-5.8,6-1.9,1.7-3.5,3.3-5.2,4.9,0,0-.3,0-.4,0-.1-1.3-.1-2.7.1-4.4,10.7-10.8,21.1-21.1,31.5-31.4Z"/>
      <path class="cls-32" d="M501.3,493.5c1.8-1.9,3.6-3.8,5.9-5.9,7-.1,13.4-.1,19.8-.1,0,.3.2.6.3,1.1,0,1.6,0,2.9-.5,4.6-8.8.3-17.2.3-25.5.3Z"/>
      <path class="cls-23" d="M501.1,493.6c8.6,0,17,0,25.7,0q.6,5-4.2,5c-8.7,0-17.3,0-26.3,0,1.3-1.6,2.9-3.2,4.8-4.9Z"/>
      <path class="cls-6" d="M435.8,583.3c26.3-.3,52.5-.3,79-.3.4.3.5.6.7,1.1-21.5.3-43,.4-64.5.4-4.3,0-8.6,0-12.8,0-.8,0-1.6-.6-2.3-1.2Z"/>
      <path class="cls-18" d="M530.8,436.2c0,20.5-.1,41.1-.2,62-.3-2.5-.7-5.3-1-8.5,0-9.2.1-18,.2-26.9,0-20.1,0-40.3.3-60.8.2-.4.5-.4.5,0,0,11.7.2,22.9.3,34.2Z"/>
      <path class="cls-23" d="M508,508.8c-.3,0-.5-.1-1-.3,2.6-.2,5.3-.2,8.3-.2.3.1.3.4-.2.4-2.7,0-4.9,0-7.2,0Z"/>
      <path class="cls-10" d="M515,670.6c18.3,0,36.6-.1,54.9-.2,15.1,0,30.1,0,45.2,0h4.6c-1.8-4.6-3.4-8.6-4.7-13.2,1.8-.6,3.3-.8,4.9-.8,9.1,0,18.1-.1,27.5-.2,13.6,0,26.9.2,40.1.5-.3,1.6-.6,3-1.2,4.5-11.6,4.6-22.2,10.4-31.2,19.3-2.2,2.2-4.1,4.2-6.3,6.4-7.8,8.6-13.5,18.2-17.3,29.2-1,2.1-1.8,4-2.9,5.9-48.4,15.9-96.4-9.1-113.7-51.4Z"/>
      <path class="cls-29" d="M514.6,670.5c17.7,42.4,65.7,67.4,114.1,51.8,0,2.7-.3,5.1-.6,7.5-.7,4.3-1.5,8.6-2.3,13.2-57.3,13.6-113.2-17.1-131.7-72.1,6.7-.3,13.4-.4,20.6-.4Z"/>
      <path d="M559.4,596.9h28.8v15.3h-165.3v-15.3h136.5M431.6,602.2c-.2,1.1-.4,2.3-.5,4,1.2,2.8,3.5,4.2,6.2,3.1,1.5-.6,3.3-2.9,3.3-4.5,0-1.6-1.5-3.8-2.9-4.8-2.1-1.3-4.5-.8-6.1,2.2M572,608.2c2.9-.2,7,1.2,7-3.6,0-4.8-4.1-3.5-7.7-3.8-3,0-6-.4-8.8.2-1.4.3-3.5,2.3-3.5,3.6,0,1.3,2,3.5,3.3,3.7,3,.5,6.1,0,9.7,0Z"/>
      <path class="cls-19" d="M524.7,614c.7-.1,1.3-.2,2.2-.2.3,0,.2,0,.2.5.1,7.5.3,14.7.4,22.2,0,9.2,0,18.1,0,26.8h9.4c-.2-4.8-.4-9.3-.3-13.9.6,0,.9,0,1.1.4.3,4.8.6,9.3.8,13.8,2.6,0,4.8,0,7.1,0,.5,0,.7,0,1.3,0,2.2,0,4,0,5.6,0,0-2.8,0-5,.2-7.2.5,0,.7,0,1.1.3,0,2.4,0,4.4,0,6.1,3.5,2.1,6.4-.4,9.6.3,3.1.7,6.6-.4,9.9-.4,3.4,0,6.8.5,10.6.8-.7-3.3-1.2-6-1.4-8.6.5,0,.7,0,1,.2.7,2.8,1.3,5.3,2,8h10.8c-.5-2-1-3.9-1.6-6.3,3.2,1.4,1.2,6.5,5.6,6.4,2.9,0,5.9,0,9.5,0-4.7-9.6-9.2-18.8-13.8-28.2-3.4-7.2-6.7-14.1-10.1-21,1.1.5,2.9.6,3.3,1.4,8.4,16.6,16.7,33.2,25,49.8,0,.2,0,.5,0,.8h-218.3c.9-1.8,1.4-3,2.1-4.2,7.2-14.1,14.3-28.3,21.5-42.4q3.1-6.1,9.7-5.6c-1.3.6-3.3.8-3.8,1.7-3.7,7.3-7.1,14.7-10.8,22.2-4.1,8.3-8,16.3-12.4,25.3,4.1-.6,7.1-1,10.3-1.4.4,0,.5,0,.8.3,3.1.3,6.1.3,9.3.3,1.3-3.3,2.6-6.6,4.2-9.8.4.4.5.7.7,1.2-.9,3-1.9,5.7-2.9,8.8,7,0,13.4,0,19.8,0,.9,0,1.7-1,2.8-1.5.5,0,.8,0,1.1.4.6.7,1.1,1.4,1.6,1.4,3.2,0,6.3-.1,9.7-.2.5,0,.8,0,1.5,0,3.2.1,6,.3,9.5.4,0-8.3,0-16.5,0-25.1.1-6.6.2-12.9.2-19.3,0-1.7-.4-3.5-.7-5.2.5,0,1.1,0,1.8.3.2,5.5.2,10.7.2,16.3,0,11.2,0,22.1,0,32.7h16c0-9.5,0-18.9,0-28.7,0-6.8,0-13.3,0-19.7h-4.7c0,6.9,0,13.5,0,20,0,0-.2,0-.5,0-1.8,0-3.4,0-4.9-.3-.1-1.6-.2-2.9-.2-4.6,0-4.3-.2-8.2,0-12.1.2-2.7-.9-3.8-3.4-3.8,5,0,10,0,15.1.7.2,5.1.3,9.5.3,14.3,0,11.7,0,23.1,0,34.5h8.3c0-4.7,0-9.2.3-13.7.4,0,.6,0,.8.3,0,4.7,0,9,0,13.5,3.2,0,5.9,0,8.7,0,.2,0,.5,0,.9,0,2.7,0,5.1,0,7.7,0,0-5,0-9.5.2-14,.5,0,.8,0,1.1.4,0,4.7,0,9.1,0,13.4h7.5c0-8.7,0-17.1,0-25.9-.3-8-.6-15.7-.9-23.3Z"/>
      <path class="cls-26" d="M647,656.2c-9.1,0-18.1.1-27.2.2-1.5,0-3.1.2-4.9.5-2.3-4.6-4.3-9.3-6-14.4,8-.7,15.7-1,23.3-1.4-1.7-3.4-3.3-6.5-4.7-9.6.6-.1,1-.2,1.7-.2,3.2,0,6.1,0,9.3,0,3.3,0,6.2,0,9.5,0,7.2,0,14,0,21.1,0,13.9,0,27.5,0,41.3.1,2.1.6,3.8,1.1,5.6,2,0,7.8-.1,15.2-.2,22.4-.3-.4-.5-.6-.8-1,.2-4.4.5-8.5.7-12.3h-75.4c1,1.7,1.7,2.8,2.2,3.9,1.5,3.2,3,6.5,4.4,9.7Z"/>
      <path class="cls-11" d="M600.7,622.9c0-17.8,0-35.3,0-52.8,0-15.6,0-31.2,0-46.7,0-1.5-.4-3-.8-4.8,1.9-.8,4-1.4,6.1-1.7,1.4-.2,2.8,0,4.9,0,15.6,0,30.4-.2,45.6-.2,16.2.1,32,.2,47.7.6-.2,1.6-.3,2.9-.8,4.2-7.8,0-15.2-.1-22.6,0-1.3,0-2.6,1-4.3,1.5-7.6,0-15,0-22.5,0-1.9-.4-3.6-.7-5.2-.7-6.2,0-12.7.9-18.7-.4-6.8-1.4-13.3-1.2-19.9-.4-3.5.4-5.1,2.5-5.5,5.5-.5,3.4-.8,7-.8,10.4,0,29.2,0,58.5,0,87.7,0,1.8-.1,3.6-.2,5.4-1-2.4-2-4.8-3.1-7.5Z"/>
      <path class="cls-18" d="M603.7,630.5c0-2,.2-3.8.2-5.6,0-29.2,0-58.5,0-87.7,0-3.5.3-7,.8-10.4.4-3,2-5.2,5.5-5.5,6.7-.7,13.2-1,19.9.4,6,1.3,12.4.3,18.7.4,1.7,0,3.3.3,5.3,1,.4,1.3.6,2.1.7,3.2.1,1.4.2,2.4,0,3.5-8.6,0-16.8,0-25.1-.2-.4-1.6-.7-3-1.1-4.6-1.1-.9-2.2-1.8-3.4-2-2.4-.3-4.9,0-7.4,0-7.7,0-12.3,4.5-12.3,12.2,0,4.1.7,8.3.6,12.4-.2,27.9-.5,55.8-.9,83.8-.2,0-.5.2-.7.1-.2,0-.6-.1-.6-.1-.1-.2-.2-.4-.3-.8Z"/>
      <path class="cls-10" d="M604.7,631.4s.3-.1.9,0c2.6,0,4.7,0,7.2,0,5.1,0,9.8.1,14.5.2,1.6,3.1,3.2,6.2,4.9,9.6-7.5.4-15.2.7-23.3,1.1-1.7-3.1-3-6.2-4.3-9.8,0-.7,0-.8,0-1Z"/>
      <path class="cls-33" d="M563.3,614c.2,0,.5.1,1,.5.6,6.1.9,11.9.9,17.7-5.5-1.2-3.5,3.7-5.2,5.7-.2-2.4.2-4.6.4-6.9,0-.8-.2-1.6-.2-2.4-.8.4-1.6.7-2.3,1.2-.8.5-1.5,1.1-2.3,1.4-.2-.8-.3-1.4-.4-2.4-.4-5.1-.8-9.9-.9-14.7,2.6-.5,3.7.4,3.6,2.8,0,1.3.3,2.7.5,4,.3,0,.6-.1.9-.2-.1-2.1-.2-4.3-.4-6.8h4.5Z"/>
      <path class="cls-11" d="M427.5,653.6c-.2-.3-.3-.5-.7-1.3,1.3-4.7,2.8-8.9,4.5-13.3,3.2-8.3,6.2-16.5,9.4-25.2-1.8.2-2.9.4-4.1.3,0-.2,0-.6,0-.6,4.3,0,8.5,0,13.1,0,.4.2.4.5.4.8-1.7,6.3-3.3,12.4-5.3,18.4-1.5,0-2.7,0-3.9-.4,2.1-6.2,4.1-12.2,6.1-18.1-.3-.4-.7-.7-1-1.1-1.5.9-4,1.4-4.5,2.7-2.7,6.7-5,13.6-7.6,20.7-2.3,5.8-4.4,11.3-6.5,16.9Z"/>
      <path class="cls-33" d="M527.5,636.1c-.2-7.2-.3-14.3-.1-21.9,1.7-.4,3-.5,4.3-.5.6,0,1.1,0,2.1.3.3,6.4.2,12.4,0,18.6-.2,1.3-.2,2.4-.7,3.4-2.1,0-3.8,0-5.6,0Z"/>
      <path class="cls-33" d="M414.9,637.7c3.5-7.4,6.9-14.8,10.6-22,.5-1,2.5-1.2,4.1-1.7.6,0,.8.1,1.4.4-2.2,5.9-4.8,11.5-7.5,17.2-1.4,2.5-2.6,4.8-4,6.8-1.6-.4-3.1-.5-4.5-.7Z"/>
      <path class="cls-33" d="M508.7,614.2c1.6-.2,3.2-.3,5.4-.3.5,7,.6,13.8.3,20.6-2.1.3-3.8.5-5.7.4,0-7.2,0-14,0-20.8Z"/>
      <path class="cls-33" d="M470.1,613.6c.5,1.8.9,3.5,1,5.2,0,6.3,0,12.6-.6,19.3-1.9.3-3.4.4-4.9,0,0-2.7,0-5.1,0-7.9.4-5.5.7-10.7,1-15.9,1.1-.2,2.1-.5,3.5-.7Z"/>
      <path class="cls-33" d="M524.4,614.1c.6,7.6.9,15.3.9,23.3-1.6.6-2.9.9-4.3.8-.3-2.2-.4-4.1-.6-6.4,0-5.3,0-10.2-.2-15.1,0-1.8.1-3.2,2.5-2.6.5,0,1,0,1.8,0Z"/>
      <path class="cls-33" d="M574.5,614c1.4,0,2.8,0,4.6.4,1.9,6.2,3.4,12,5,18.2.2,1.3.4,2.3.2,3.4-1.8.3-3.2.6-4.9.6-.4-1.1-.6-2-.9-3.2-1.5-6.6-2.9-12.9-4.3-19.2,0,0,.2-.2.2-.2Z"/>
      <path class="cls-19" d="M522.4,614c-2-.4-2.2.9-2.2,2.7.1,4.9.2,9.8-.1,15.1-3.5,0-4.8,1.2-4.5,4.4.2,2.3,0,4.6-.2,6.9-.1,0-.4,0-.4-.3-.1-2.2-.2-4-.2-6.1,0-.9,0-1.5,0-2.1,0-6.8,0-13.6-.3-20.7,2.5-.2,5.1-.1,8.1,0Z"/>
      <path class="cls-33" d="M585.6,614.1c3.7,6.9,7.1,13.8,10.1,21-2,.3-3.6.2-5.5,0-.7-1.3-1.2-2.5-1.8-4-2-5.9-4-11.4-5.9-17,.9,0,1.9,0,3.2,0Z"/>
      <path class="cls-19" d="M423.6,631.3c2.6-5.6,5.1-11.2,7.6-17.1,1.6-.5,3.3-.6,5.3-.7.3,0,.3.5.3.9-2.4,5.9-4.7,11.4-7.5,16.9-2.1,0-3.9,0-5.7,0Z"/>
      <path class="cls-33" d="M568.7,614.1c.2,0,.3,0,1,0,1.6,0,2.6.1,3.6.6,1.4,7.1,2.8,13.9,3.9,20.6-2.1,0-3.9,0-4.1,2.3-.6-2.2-1.1-4.2-1.5-6.3,0-.3,0-.4,0-.7,0-.5-.1-.7-.4-1.1-.8-5.3-1.7-10.3-2.5-15.2Z"/>
      <path class="cls-33" d="M541,613.7c.4,0,.7,0,1.4,0,.3.1.5.4.5.7.3,8.2.6,16.1.6,24-1.4-.3-2.5-.5-3.7-1.1-.2-1.9-.4-3.5-.4-5.5,0-6.3,0-12.2-.2-18.1.4,0,.8,0,1.6,0,.3,0,.2,0,.2,0Z"/>
      <path class="cls-19" d="M495.3,613.8c1.3,0,2.7-.1,4.4,0,.6.5.8.8,1,1.5.1,5.6.2,10.9,0,16.2-1.8,0-3.3,0-4.9-.3-.2-.9-.3-1.5-.3-2.5,0-5.1,0-9.9-.1-14.7,0,0,0-.2,0-.2Z"/>
      <path class="cls-33" d="M472.4,629.8c0-5.2,0-10.4.1-15.9.7-.3,1.2-.3,1.9-.3,2.7,0,3.7,1.1,3.6,3.8-.2,3.9,0,7.8-.3,12.1-2,.3-3.6.3-5.2.3Z"/>
      <path class="cls-19" d="M466.4,614c-.1,5.5-.5,10.7-1.2,16.2-2,.4-3.6.4-5.2,0,.5-5.7,1-11,1.6-16.3,0,0,0-.3,0-.3,1.5,0,3.1,0,4.8.3Z"/>
      <path class="cls-19" d="M553.9,614.2c.4,4.8.8,9.5.9,14.7-4.2,1.1-5.8-.9-6.2-4.7-.2-3.7-.3-7-.5-10.4,1.7,0,3.3,0,5.3.2.3.2.5.3.5.3Z"/>
      <path class="cls-19" d="M568.5,614c1.1,5.1,1.9,10,2.7,15.5,0,.8.1,1,.4,1.1,0,.1,0,.2-.2.6-2.1.7-3.9,1.2-5.7,1.5,0-.2-.2-.5-.2-.5-.3-5.8-.6-11.5-1-17.7,1.2-.5,2.5-.6,4-.6Z"/>
      <path class="cls-19" d="M538.8,613.7c.4,6,.5,11.9.1,18.2-2,.4-3.6.5-5.1.6.1-6,.3-12,.4-18.4,1.4-.4,2.8-.4,4.6-.4Z"/>
      <path class="cls-33" d="M495.3,614.1c0,4.8.2,9.5-.1,14.6-2,.1-3.6-.1-5.2-.4,0-4.4-.1-8.9-.1-13.7,1.4-.6,2.8-.8,4.5-.9.3.2.6.4.6.4,0,0,.3,0,.3,0Z"/>
      <path class="cls-33" d="M547.7,613.7c.5,3.3.6,6.7.7,10.7,0,3.6,0,6.4-.3,9.3-1.2,0-2,0-3-.3-.5-6.7-.9-13-1.2-19.5,0-.1.1-.4.1-.4.4,0,.9.1,1.6.2.3,0,.4,0,.4,0,.4,0,.9,0,1.6,0Z"/>
      <path class="cls-19" d="M582.2,614c2.2,5.6,4.1,11.2,5.8,17.1-1.5.6-2.8.9-4,1.2-1.5-5.9-3-11.7-4.6-17.9.8-.4,1.7-.4,2.8-.4Z"/>
      <path class="cls-18" d="M500.7,614.9c-.2-.3-.4-.6-.6-1.1,2.7-.2,5.5-.1,8.4.1.2,7.1.1,13.9.1,21.4,0,9.8,0,18.9,0,28,0,0-.3,0-.5-.3-.4-10.5-.7-20.7-1-31.2,0-6.1,0-11.9,0-18.3-2.7.6-4.6,1-6.5,1.4Z"/>
      <path class="cls-5" d="M461.3,613.7c.3,0,.4.3,0,.3-4.1-.6-6,.5-6.2,4.8-.3,5.2-1.5,10.4-2.3,15.6,0,0-.3,0-.3-.2-.2-.9-.4-1.5-.6-2.4.9-6,1.9-11.7,2.8-17.5h-4.5s0-.3,0-.4c3.6-.1,7.2-.2,11.1-.1Z"/>
      <path class="cls-7" d="M554.2,614.1c-.3,0-.5,0-.5-.2,3-.1,6-.1,9.3,0-1.1.1-2.5.1-4.2.1.1,2.6.3,4.7.4,6.8-.3,0-.6.1-.9.2-.2-1.3-.6-2.7-.5-4,.1-2.5-.9-3.3-3.6-2.8Z"/>
      <path class="cls-7" d="M531.5,613.8c-1.1,0-2.4,0-4.1,0-.3,0-.3,0-.3,0,1.4,0,2.7,0,4.4,0Z"/>
      <path class="cls-7" d="M573.4,614.2c-1,0-2-.2-3.4-.3,1.1,0,2.6-.1,4.3,0,.2.2.1.3-.2.3-.4,0-.6,0-.7,0Z"/>
      <path class="cls-7" d="M546.1,613.8s0,0,0,0c0,0,0,0,0,0Z"/>
      <path class="cls-7" d="M543.8,613.5c.4,0,.4.3,0,.4-.5.1-.7.2-.9.2,0,0-.2-.2-.3-.4.2-.2.5-.2,1.2-.2Z"/>
      <path class="cls-26" d="M604.6,631.4c.1.2.1.4,0,.8-.2,0-.4-.2-.6-.6,0-.2.4-.2.6-.1Z"/>
      <path class="cls-7" d="M541,613.6s0,0,0,0c0,0,0,0,0,0Z"/>
      <path class="cls-18" d="M495.4,614c0,0-.4.1-.4.1,0,0-.3-.2-.3-.4s.3-.1.5,0c.2,0,.2.2.2.3Z"/>
      <path class="cls-11" d="M949.4,552.5c0-7.2-.1-14.5.3-22,8.4-.4,16.4-.4,24.4-.5.9.6,1.9,1.6,2.8,1.6,3.9.2,7.8.1,12,.6.4,5.9.2,11.3.4,16.8,0,2.9-.8,3.8-3.8,3.8-12.1-.2-24.1-.2-36.2-.3Z"/>
      <path d="M1007.6,520c-7,0-13.9,0-21.3-.3-.4-3.7-.4-6.9,0-10.2,5.2,0,10.1,0,15.2,0,0-13.5,0-26.6,0-40,0-2,0-3.6,0-5.5,0-1.5,0-2.6,0-4,0-1.5.1-2.7.1-4,1.8,0,3.5,0,5.6.2.4,1.3.5,2.3.5,3.7,0,19.1,0,37.9,0,56.9-.1,1.2-.2,2.2-.3,3.2Z"/>
      <path class="cls-27" d="M949.2,552.6c12.2,0,24.3,0,36.3.1,2.9,0,3.9-.9,3.8-3.8-.2-5.4,0-10.9,0-16.7.3-.4.7-.4,1.1-.3.2,32.5.2,65,.2,97.4,0,1-.2,2.1-.4,3.3-13.5.3-26.7.4-40.3.6-.7-.9-1.2-1.9-1.2-2.9.2-8.1.4-16.2,1.2-24.5,12.3-.2,24-.2,35.7,0,2.9,0,3.9-.8,3.8-3.7-.2-6-.2-12,0-18,0-3-1-3.8-3.8-3.7-12,.2-23.9.2-35.9.2,0-.7-.2-1.3.1-2.2,12.2-.2,24.1-.2,35.9,0,3,0,3.8-1,3.7-3.8-.2-5.5-.2-10.9,0-16.4,0-2.8-.9-3.6-3.6-3.5-12.1.2-24.2.2-36.3.3-.1-.7-.2-1.5-.2-2.4M973.8,632.5c4,0,8.1,0,12.1,0,2.6,0,3.4-1,3.4-3.4-.1-5.8-.2-11.7,0-17.6,0-2.9-.9-3.8-3.8-3.8-10.8.2-21.6.2-32.4.2-1,0-2,.2-3.5.3,0,6.9.1,13.7,0,20.4,0,3.1,1.2,3.7,3.9,3.7,6.5-.1,13,0,20.3,0Z"/>
      <path d="M945.3,444.3c7.4-.4,14.7-.4,22.5-.5,1.9,0,3.4,0,5.2,0,.3,3.7.4,7.3.3,11.3-9.2.4-18.4.4-28.1.4,0-3.7,0-7.3,0-11.2Z"/>
      <path class="cls-6" d="M986,509.5c0,3.3,0,6.5,0,10.1-1.8.8-3.1.6-3.1-1.7,0-20.4.1-40.8.2-61.2,0-.1.1-.2.5-.9,5.6,0,11.5,0,17.8,0,.3,1.3.3,2.5-.1,4.1-5.3.3-10.3.3-15.4.3,0,1.7.2,2.9.2,4.3,0,2,0,3.6,0,5.6,0,13.3,0,26.3,0,39.3Z"/>
      <path class="cls-11" d="M949.3,527.6c0-2.3-.1-4.6-.2-7.3,8.1-.4,16.2-.5,24.6-.5.4,2.5.4,5,0,7.9-8.4.2-16.4,0-24.4-.1Z"/>
      <path class="cls-9" d="M1008,520.1c-.3-1-.2-2,.3-3.3,14.5-.3,28.6-.3,42.7-.4,1.1,1.1,2.2,2.2,3.5,3.4-15.3.2-30.7.2-46.5.2Z"/>
      <path class="cls-9" d="M1008,459.5c0-1-.2-2-.3-3.3,15.1-.3,30.3-.4,45.8-.4-.6,1.2-1.5,2.3-3.1,3.6-14.5,0-28.5,0-42.5,0Z"/>
      <path class="cls-27" d="M949.3,527.9c8.1-.2,16.1,0,24.4.2.4.4.5.8.4,1.6-8,.4-16,.4-24.3.4-.4-.6-.5-1.3-.5-2.2Z"/>
      <path class="cls-20" d="M1007.9,459.9c14-.3,28-.3,42.3-.3-8.3,11.8-12.1,24.8-7.9,39,1.8,6.1,5.6,11.6,8.6,17.6-14,.3-28.1.3-42.6.3-.4-18.8-.4-37.5-.4-56.6M1018.6,462.6c-5.3-.1-8.6,3.7-6.2,7.5,1,1.5,3.6,3.2,5.2,2.9,1.8-.3,4.1-2.3,4.8-4.1,1.1-2.7-.7-4.9-3.8-6.3M1022.6,507c-1-5.4-7.5-5.8-9.2-3-1,1.6-1.7,4.4-.9,5.9.7,1.6,3.3,3.1,5.1,3.1,3,0,4.8-2.2,5-6Z"/>
      <path d="M1085.5,457.2c16-.2,29.7,12.9,30.3,29.1.6,17.5-12.1,31.3-30,31.7-.4-3.3-.5-6.1-.5-9.3,0-3.6,0-6.8.2-10.1.3-.2.4-.4.7-.6,6.5-.9,10.2-5.3,9.8-11-.4-5.4-4.5-9.3-10.3-9.5-.1,0-.4,0-.4-.4,0-3.8-.1-7.2-.1-11,.1-3.2.1-6.1.2-9Z"/>
      <path class="cls-17" d="M1085.2,508.9c0,2.9.1,5.7.2,8.9-13,2.2-27.5-8.9-30.7-23.1-4.5-19.6,9.8-37.5,30.5-37.7.2,3,.2,5.8-.2,9.1-12.5.9-21.4,9.9-21.5,21.5,0,11.9,9.1,20.8,21.7,21.3Z"/>
      <path class="cls-5" d="M704.4,516.8c-15.8,0-31.6-.1-47.7-.5.7-3.2,2.3-6,2.5-9,.4-9.2.3-18.5,0-27.7-.1-4.7.2-8.7,5.2-10.9,1.1-.5,1.8-1.8,2.9-3,4.6-4.3,8.6-8.7,10.1-15.1.9-2.7,1.6-5.1,2.4-7.5,3.1-9.3,1.4-18.1-2.6-26.9-2.9-7.5-8-12.9-14.1-17.5-1.9,1.5-4,2.6-5.3,4.2-2.3,2.9-7.3,4.3-5.7,9.6.1.4-.7,1.3-1.3,1.8-1.8,1.8-3.7,3.5-5.9,5.2-2.7-2-5.2-3.9-7.6-6.2,0-6.4.1-12.3,0-18.3,0-2.7-.6-5-4.1-4.9-19,0-38,0-57,0-4,0-6.8,3-6.8,6.9,0,9.4,0,18.7,0,28.1,0,5.9-.1,11.9-.5,18.2-1.3.1-2.3,0-3.3-.3,0-.3,0-.7.2-1.5,0-2.5-.2-4.6-.2-6.6,0-14.6-.5-29.2.3-44.9-7.3,0-15.1,0-22.8,0-8.9,0-11.8,2.7-12.7,11.6,0,0-.3,0-.5,0-.2-1.3-.3-2.6-.3-3.9,0-7,3.4-10.5,10.6-10.5,20,0,40,0,60,0,1.6,0,3.1,0,5-.1,38.3,0,76.2,0,114.2,0,1.7,0,3.4,0,5.1,0,6,.6,9.1,4,9.1,10,0,19.6,0,39.3,0,58.9,0,1,0,2.1-.2,3.5-.9.5-1.5.5-2.5.6-3.2,0-6.1,0-9.3,0q-5.1-.1-5.6,5.6c-2.3,0-4.3,0-5.6,0-1-2-1.7-3.3-2.6-4.6-.7-.1-1.1-.2-1.8-.1-2.2,2.2-2.7,10.5-1.1,12.7.3.3.9.4,1.7.6.7,0,1.1-.1,1.7-.3,1.3-4.3,4.4-4.8,8-3.9,0,4.9,0,9.5,0,14.2-2.5,0-4.4,0-6.3-.3-.4-2.8-.3-5.9-4.8-4.2-.5,3.8-.8,7.5-.9,11.2,0,.5,1.2,1.1,2.1,1.8,3.4.1,3.3-2.3,3.9-4.5q6,0,6,5.4c0,3,0,5.9-.4,8.9-2.1,0-3.9,0-5,0-1.2-1.9-2.1-3.3-3.1-4.7-.6-.1-1.1,0-1.9,0-2.2,2.2-2.7,10.5-1.1,12.6.3.3.9.4,1.7.6.7,0,1.1-.1,1.7-.3,1.3-4.3,4.4-4.8,8-3.9,0,3.5,0,6.7-.5,9.9-2.3,0-4.4,0-6.6,0-.5-.2-.8-.3-1.4-.6-.7-.1-1.1-.1-1.7,0-.7.3-1.2.5-1.6.7Z"/>
      <path class="cls-29" d="M748.4,390.3c40.7-.3,81.5-.3,122.9-.3,0,4.6,0,9-.4,13.7-14.3.4-28.1.3-42,.5-1.2,0-2.5.9-3.8,1.8,0,1.5,0,2.6,0,4.1,0,16.6,0,32.8-.4,49.1-4.7,0-9-.2-13.4-.6-.6-.6-1-.9-1.5-1.4-.2-.3-.3-.4-.6-.6-.3-.3-.5-.5-.8-.8-.3-.3-.5-.5-.8-.8-.3-.3-.6-.5-.9-.8-.3-.3-.4-.5-.8-.8-2.8-2.6-5.5-4.9-8.2-7.5-.2-.4-.4-.5-.7-.8-4-3.8-7.8-7.3-11.8-11-.2-.4-.4-.5-.7-.8-4-3.8-7.8-7.3-11.8-11-.2-.4-.4-.5-.7-.7-4-3.8-7.8-7.3-11.8-11-.2-.4-.4-.5-.7-.7-3.4-3.3-6.7-6.3-10-9.3-.3-3.4-.6-6.7-1-10.4Z"/>
      <path class="cls-22" d="M731.2,460.3c.6,0,1.3-.1,2.2-.3,5.3,0,10.2,0,15.8,0,.9,0,1.2.1,1.5.5,0,7.2.1,14.1-.1,21-2.6.2-4.9.5-7.3.5-3.4,0-5,1.9-5.5,4.9-.4,2.6,2.4,5.1,5.5,5.2,3.5.1,7,.1,10.5.5,0,2.4,0,4.4-.4,6.5-3.3,0-6.3.3-9.2.1-3.6-.2-6,1.4-6.3,4.8-.2,3.2,1.8,5.5,5.3,6.2.2,4.2-.5,7.3-5.5,6.4-.3,0-.7.3-1.4.5-1.7,0-3,0-4.5-.3-.3-4.4-.8-8.6-.5-12.7.1-1.9,1.2-4.1,2.5-5.5,1.2-1.4,1.8-2.2,0-3.2-2.4-1.4-2.7-3.5-2.7-6,0-9.7,0-19.5,0-29.2Z"/>
      <path class="cls-28" d="M750.7,460.2c-.3,0-.6-.1-1.2-.2-.3-19.5-.3-39-.2-58.9,3.4,2.6,6.7,5.7,9.8,8.9-1.7-.6-3.2-1.4-5.2-2.4,0,17.6,0,34.9-.3,52.3-1.2.1-2,.2-2.9.3Z"/>
      <path class="cls-14" d="M968.5,438.4c-.4-6.6-.4-13.2-.5-20.1,25.3-.4,50.5-.3,75.8-.3,46.3,0,92.7,0,139.4,0,.4,6.6.4,13.1.4,20.1-71.6.4-143.1.4-215,.4Z"/>
      <path class="cls-34" d="M825,459.1c0-16.2,0-32.5.4-49.1,39.3-.4,78.3-.3,117.2-.3-.1,16-.3,32-.4,47.9,0,10.4,0,20.8-.5,31.6-1.7-.2-3.6-.4-4.2-1.4-4.9-8-11.3-14.5-18.8-20,4.3-3,4.8-4.8,2.7-10.1,7-5.2,6.9-10.7-.2-15.7,2.3-5.9,1.7-7.1-5.3-11.1.9-4.3,0-8-4.2-10.2-4.4-2.2-7.9-.2-10.6,2.8-2-.5-3.5-1-5.4-1.4-2.5-.2-4.6,3.8-6.9-.3-3.2-2-6.2-2.3-9.3,0-2.8,2-3.5,4.6-3.3,7.8,0,1.1-1.3,2.2-2.2,3.3-4.6,2.3-4.1,5.9-2.7,9.5-6.6,5.8-6.6,9.7,0,15.5.2.2,0,.8-.2,1.2-.2,0-.5.2-.9.1-6.3-.2-12.3-.3-18.2-.7,0-10-.2-19.7-.2-29.8,0-2.6,0-4.9,0-7.1h-15c0,2.6,0,5,0,7.8,0,10.1-.1,19.8-.5,29.6-4,0-7.6,0-11.2,0Z"/>
      <path class="cls-6" d="M918.5,468c7.7,5.3,14.1,11.8,19,19.8.6,1,2.5,1.2,4.1,1.8.4,6.9.4,13.8.1,21.1-4.9.4-9.5.2-14,.4-2.8.2-4.4-.7-4.9-3.8-4.5-14.4-14-22.9-28.2-26.5-1.2-.3-2.2-1.2-3.3-2.1,1.2-.6,2.4-.9,3.8-1,1.2,0,2.2,0,3.5-.2,1.7,0,3.4-.3,4.3.4,2.9,2.2,5.9,2.6,9.1,1.2,3.3-1.5,4.6-4.2,4.5-7.9,0-1.1,1.2-2.2,1.9-3.4Z"/>
      <path class="cls-4" d="M889,390.1c14.1,0,28.2-.1,42.7.2.4,1.5.4,2.5.5,4,0,3.5.1,6.6-.2,9.8-14.7,0-28.9,0-43.2-.4,0-3.5,0-6.6.1-10,0-1.4,0-2.5.1-3.6Z"/>
      <path class="cls-16" d="M942.7,409.3c-39,.3-77.9.3-117.2.3-.4-1.1-.4-2.3,0-3.7,39.3-.3,78.3-.3,117.2-.3,0,1.1,0,2.3,0,3.7Z"/>
      <path class="cls-20" d="M944.6,490h27.8c0,9,0,18.1-.2,27.3-1.4-.9-2.6-1.9-4-3.1-1.3-1.2-2.6-2.3-3.8-3.6-4.3-4.5-8.6-8.7-13-13.1-1.3-1.4-2.4-2.5-3.6-3.9-1.1-1.3-2.1-2.4-3.1-3.5Z"/>
      <path class="cls-11" d="M923,507.7c.4,2.8,2,3.6,4.8,3.5,4.5-.2,9.1,0,14,0,.4,1.9.4,3.8.4,6-14.2.4-28.3.4-43.1.4-4.3,0-7.8,0-11.4,0,0-2.8,0-5,.3-7.2,4.8-.5,9.2-1.3,13.7-1.5,5.7-.3,11.4,0,17-.1,1.4,0,2.9-.7,4.3-1Z"/>
      <path class="cls-20" d="M972,486c-7.9,0-15.8.1-23.9,0,6.6-7.2,13.5-14.2,20.4-21,1.2-1.2,2.6-2.1,3.9-3.1,0,7.7,0,15.3,0,23.4-.3.5-.3.7-.3.8Z"/>
      <path class="cls-9" d="M942.7,405.3c-39,.3-77.9.3-117.2.3.9-.5,2.1-1.4,3.4-1.4,13.9-.1,27.8,0,42,0,1.7,0,3.1,0,4.8,0,1.6,0,2.9,0,4.9,0,1.9,0,3.2-.1,4.8,0,1.3,0,2.3,0,3.3,0,14.3,0,28.6,0,43.5,0,1.7,0,2.7,0,4.1,0,1.6,0,2.9,0,4.1,0,.7.4,1.5.7,2.2,1.4Z"/>
      <path class="cls-23" d="M968.3,514.3c1.2,1,2.4,2,3.8,3.2-9,.2-18.2.2-28,.2,0-9,0-18.2.2-27.5,1.2.9,2.2,2,3.2,3.7,0,7.2,0,13.8,0,20.4h20.7Z"/>
      <path class="cls-23" d="M944.3,485.7v-27.9c9.1,0,18,0,27.2.3-.8,1.2-1.8,2.1-3.2,3-7.1,0-13.8,0-20.6,0,0,7.3,0,14.2-.1,21.3-1.2,1.2-2.2,2.3-3.2,3.3Z"/>
      <path class="cls-28" d="M944.5,485.9c.8-1.2,1.8-2.2,3.2-3.6,1.5-1.6,2.7-2.8,4-4.1,4.5-4.4,8.7-8.7,13.1-13.2,1.4-1.4,2.6-2.6,3.7-3.8,1-.9,2-1.8,3.2-2.9.3.8.5,1.9.6,3.2-1.4,1.3-2.8,2.2-4,3.4-6.9,6.9-13.8,13.8-20.8,21-1.1.2-2,.2-3.2,0Z"/>
      <path class="cls-22" d="M940.5,403.6c-1.3.4-2.6.4-4.1,0-.3-3.5-.3-6.6-.3-9.9-1.6,0-2.7.1-3.9.2,0-1.1,0-2.1-.1-3.5,2.7-.3,5.3-.3,8.4-.3,0,4.5,0,8.9,0,13.6Z"/>
      <path class="cls-22" d="M885.1,403.9c-1.3,0-2.6,0-4.2,0-.3-4.5-.3-9-.3-14.1,2.7,0,5.2,0,8.1,0,.3,1.2.3,2.2-.1,3.6-2.7-.3-3.8.4-3.6,3,.2,2.5,0,4.9,0,7.4Z"/>
      <path class="cls-28" d="M972.2,486c-.2-.2,0-.3.1-.5.2.2.2.3-.1.5Z"/>
      <path class="cls-20" d="M527.2,462.3c-10.5,10.7-20.9,21-31.5,31.4-.2-12.7-.2-25.6-.2-38.8,10.4,0,20.6,0,31.2,0,.4,2.4.5,4.7.4,7.4Z"/>
      <path class="cls-20" d="M527.1,441.6c0,2.1.1,4.2,0,6.8-.3.6-.4.8-.5,1-10,0-20,0-30.4-.1-.5-.4-.6-.5-.8-.6,0-12.1,0-24.2.2-36.8.7-.3,1.3-.3,1.6,0,6,6.1,11.9,12.3,18,18.4,3.8,3.8,7.9,7.5,11.8,11.2Z"/>
      <path class="cls-28" d="M527.2,441.3c-4-3.4-8.1-7-11.9-10.9-6.1-6.1-12-12.3-18-18.4-.3-.3-.9-.3-1.6-.4-.2-1.7-.2-3.5.1-5.3,2,1.6,3.7,3.2,5.6,5,2.1,2,4.1,3.8,6.2,5.9,6.6,6.8,13.1,13.3,19.5,19.8,0,1.3,0,2.6,0,4.2Z"/>
      <path class="cls-23" d="M501.3,411.2c-1.7-1.6-3.4-3.2-5.3-5,10.1-.3,20.3-.4,30.9-.5.4,1.6.4,3.2,0,5.2-8.8.3-17.2.4-25.7.4Z"/>
      <path class="cls-28" d="M495.5,448.9c.2-.1.3,0,.4.3-.2.2-.4.1-.4-.3Z"/>
      <path class="cls-28" d="M526.8,449.5c0-.3,0-.5.3-.8.2,0,.2.2.2.7,0,.3-.4.2-.5.1Z"/>
      <path d="M527.1,487.2c-6.4.4-12.8.4-19.6.4,6.1-6.6,12.7-13.2,19.4-20,.2,6.3.3,12.8.2,19.6Z"/>
      <path d="M527.2,436.7c-6.5-6.1-13-12.6-19.2-19.4,6.6-.3,12.9-.3,19.1-.3,0,6.4,0,12.9,0,19.7Z"/>
      <path class="cls-31" d="M527.2,416.7c-6.3.3-12.6.3-19.3.3-2.4-1.8-4.3-3.6-6.5-5.6,8.3-.3,16.7-.3,25.5-.3.3,1.8.3,3.5.3,5.6Z"/>
      <path class="cls-16" d="M1006.3,398.9c0,5.6-1.9,9.3-5.7,10.3-3.8,1-7.7,1.1-10.8-2.3-3.4-3.7-3.2-9.4.6-13.2,4-4,8.7-4.1,12.6-.1,1.4,1.4,2.2,3.3,3.2,5.4M1002,399.3c-.9-3-2.9-5-5.9-4.2-1.8.5-4.1,2.8-4.3,4.5-.2,1.7,1.6,4.3,3.2,5.3,3.1,1.8,6.1-.6,6.9-5.7Z"/>
      <path class="cls-16" d="M1022.8,409.1c-1.9-2.3-4.1-4.1-5.1-6.5-1.7-4.1.8-8.8,5-11,3.9-2,9.5-.4,12.4,3.6,2.5,3.4,1.8,7.9-1.1,11.4-3.1,3.8-7,3.3-11.3,2.6M1026.4,394.9c-4.7,1.7-6.5,5.9-3.4,8.6,1.4,1.2,4.2,1.9,5.8,1.3,1.5-.6,2.9-3.2,3.1-5,.3-3-2-4.5-5.5-4.9Z"/>
      <path class="cls-16" d="M970.7,409.3c-5.4,1.6-10.2-.3-12.5-4.8-2-3.9-.9-8.7,2.8-11.9,3.2-2.7,8.8-2.7,12.2,0,5.4,4.3,4.2,12.6-2.6,16.6M971.8,398.2c-1.2-2.5-3.3-4-5.9-3.1-1.6.6-3.5,2.5-3.9,4.1-.4,1.5.6,4.1,1.9,4.9,1.4.9,4.4,1.2,5.5.4,1.5-1.2,1.8-3.8,2.4-6.3Z"/>
      <path class="cls-23" d="M474.6,419c.4,20.1.4,40.2.2,60.7-.2.4-.5.6-.9.5-7.9,0-15.5,0-23.1,0,0-19.9,0-39.7-.1-59.6,0-.4.2-.7.4-1.5,7.7,0,15.4,0,23.5,0Z"/>
      <path class="cls-20" d="M450.7,480.4c7.6-.3,15.2-.3,23.1,0,.6.5.8.8,1,1.1,0,2.1,0,4.2-.4,6.6-8.2.4-16,.4-23.8.4,0-2.6,0-5.1,0-8Z"/>
      <path class="cls-28" d="M450.7,488.8c7.9-.4,15.6-.4,23.8-.4.4,2,.4,4,.4,6.5-8,0-15.7,0-23.7,0-.4-1.9-.4-3.9-.4-6.2Z"/>
      <path class="cls-2" d="M427.2,489.3c-3.6-.1-6.1-1.5-6.9-4.8-.8-3.3,1-6.2,3.9-6.9,4.2-1,7.6.6,8.5,4,.7,2.8-.9,7.2-5.5,7.7M429.1,483.7c.6-.2,1.2-.4,2.9-.9-2.3-.4-3.4-.6-4.4-.7-.2-1.2-.4-2.2-.6-3.2-.2,0-.4,0-.6,0-.3,1-.5,2.1-.8,3.1-1,.3-2.1.6-3.1.9,0,.2,0,.4.1.7,1,.1,2,.3,2.9.4.4,1.2.7,2.3,1.1,3.6.7-1.5,1.3-2.6,2.5-3.7Z"/>
      <path class="cls-2" d="M431.2,425.9c-5.9,3.1-9.7,2-10.8-2.6-.7-3.1.7-5.3,3.3-6.7,2.7-1.5,5.4-1.1,7.4,1.2,2.1,2.4,2.3,5.1,0,8M428.6,421.1c-.6-1.2-1.2-2.3-1.6-3.1-1.2,1.3-2.4,2.7-3.7,4.1,3.5-1.6,2.3,2.3,3.7,4.3.3-1.7.5-2.7.6-3.8,1.1-.3,2.1-.6,3.2-.8,0-.2,0-.3-.1-.5-.5,0-1-.1-2.1-.2Z"/>
      <path class="cls-28" d="M908.2,594.1c-7.2,3-14.3,6-21.5,9.1-5.1,2.2-10.2,4.5-15.8,7-11.3,5-22.2,9.5-32.8,14.6-4.8,2.3-8.9,2.3-13.8.1-16.8-7.3-33.8-14-50.9-21.1-8.2-3.4-16.2-6.7-24.4-10.1-5.7-2.5-11.2-4.8-17.2-7.3,6.7-2.6,12.8-5,19.2-7.4,17.3-6.3,34.3-12.6,51.5-18.9,6.3-2.3,12.4-4.5,18.6-6.6.8.3,1.4.4,2.2.8,1.1.6,2.1,1,3.3,1.6,10.8,4.9,21.5,9.6,31.9,14.4-14.3,5.5-28.4,10.9-43,16.5q9.7,3.6,17.5,0c10.2-4.8,20.4-9.6,30.9-14.2,14.8,6.5,29.3,12.8,44,19.3.2.9.2,1.6.2,2.3Z"/>
      <path class="cls-31" d="M908.6,594.3c-.4-.9-.4-1.6-.5-2.8-.3-3.3-.2-6.2-.8-9-1.5-6.4-3.3-12.7-4.7-19.1,2.6-1.7,5.6-2.9,7.2-5.1,2.6-3.6,1-8.7-2.6-11.4-4.1-3-8.9-2.2-13.3,2-2.6-3.1-4.9-6.1-7.5-8.8-14.8-15.7-33.2-24.4-54.3-28,.2-3.3-1.3-6.9,3.2-8.1.3,0,.6-1.1.6-1.7,0-3.1-.2-6.1-.4-9.4-.2-.3-.2-.5-.2-.9,0-2.4,0-4.5,0-6.9.1-.9.2-1.5.4-2.2.2-.3.3-.5.7-.7,4.5.8,8.7,1.7,12.9,2.8.1,1.4.2,2.5.1,3.8,0,4.7,0,9,0,13.3,3.6.5,3.7.5,3.7-2,0-3.9,0-7.7,0-11.8.1-.8.2-1.5.5-2,4.6,1.8,9,3.6,13.4,5.8,0,1.2-.1,2-.1,3,0,2.6,0,5,0,7.3,0,.2.7.4,1.4.5,1.1-.9,2.2-1.6,2.4-2.5.4-1.9.2-3.8.5-5.7,2.3,1.1,4.3,2.3,6.4,3.6,3.4,2.7,6.7,5.2,10,8,0,1.6.2,2.8.2,4v7.2c3.6,0,7.1,0,11,0,10.4,12.7,18.8,26.3,22.7,42,2.6,10.4,3.6,21.1,5.3,31.7.4,2.5-.7,3.5-3.3,3.4-4.8-.2-9.6-.2-14.8-.4Z"/>
      <path class="cls-29" d="M773.7,604.1c16.9,6.9,33.9,13.7,50.7,20.9,5,2.1,9,2.2,13.8-.1,10.6-5.1,21.5-9.7,32.6-14.5.3,10.8.3,21.7.3,33-10.4,0-20.5,0-31.2,0-16.6.1-32.6.3-48.5.4-4.4,0-8.7-.4-13.5-.7-1.6-.1-2.8-.2-4.1-.3v-38.7Z"/>
      <path class="cls-24" d="M778.1,643.2c4.4.2,8.7.6,13.1.6,16,0,31.9-.3,48.2-.3,0,6.6-.3,13.2-.4,19.7,0,4,.5,7.9.7,12.2-22.8,2.6-43.2-3.6-61.5-17.3,0-5.3-.1-10.1-.2-14.9Z"/>
      <path class="cls-12" d="M946.1,630c-1.4.9-2.9,1.4-4.2,2.1-1.6.9-4.2,1.9-4.5,3.3-1.4,5.6-5.4,4.7-9.7,4.3-1.1-1.7-1.9-3.1-2.7-4.8,1.7-2.3,1-4.4.4-6.6.3-6.6.3-13.1.3-19.6,1.7-5.4,4.2-9.9,10.3-11.2.8-.2,1.5-1,2.2-1.8,0-.3,0-.3.3-.2.9-.6,1.5-1.2,2.3-2.1,1-1.6,2.2-2.8,2.8-4.3.8-2,1.1-4.1,1.6-6.1.3,1.5.8,2.9.8,4.4,0,14.1,0,28.2,0,42.6M941.3,621.3v-5.7c-3,1.2-5.1,1.9-7.2,2.9-.3.1-.2,2.1.1,2.2,2.1.7,4.3,1.2,6.4,1.7.1,0,.3-.3.6-1.2Z"/>
      <path class="cls-7" d="M945.4,582.7c-.7,2.4-1,4.5-1.8,6.4-.6,1.5-1.7,2.8-3.1,4.4-1,.8-1.7,1.4-2.3,1.9,0,0,0,0,0,0-2.1.2-4.3.4-7.1.7,8.1-20.3,13-40.8,14.5-62.4.1,15.6.2,31.6.3,47.6,0,.4-.3.7-.5,1.4Z"/>
      <path class="cls-30" d="M924.9,635.2c.8,1.4,1.6,2.8,2.4,4.5-6.1.6-12.2,1-18.2,1.2-1.4,0-2.8-.2-4.4-.6,1.3-1.9,2.8-3.5,5-5.1,1,0,1.5-.2,2.1-.3,3-1.5,2.7-3.5,1.4-5.8,4.1-6.7,8.2-13.3,12.4-20.2.2,6.3.2,12.8-.5,19.4-3.5-.4-4.1,1-4.1,3.5,0,3,1.3,3.9,4,3.4Z"/>
      <path class="cls-15" d="M899.4,628.5c.6,1.6,1,3,1.6,5.1-.9.4-2.3,1.6-3.3,1.3-2.5-.7-4-2.5-3.3-5.7,1.5-.3,3.1-.6,5-.7Z"/>
      <path class="cls-15" d="M911.5,634.9c-.4,0-.9.1-1.6.2-.8-.6-1.3-1.1-1.8-1.7-2-2.3-1.1-3.4,2.2-3.5.8,1.8,1,3.4,1.2,5.1Z"/>
      <path class="cls-28" d="M911.7,634.9c-.4-1.6-.6-3.2-1.1-5,.5-.4,1.2-.7,2.2-1,1.6,2.4,1.8,4.4-1.2,5.9Z"/>
      <path class="cls-8" d="M750.8,579.1c-6.2,2.4-12.3,4.8-19,7.4,6,2.5,11.4,4.8,17.1,7.6-.6,2.4-1.9,4.3-1.9,6.3-.2,12.6-.2,25.2,0,37.7,0,3,1,6,1.5,9-14.6,3.8-23.8,14.4-32.1,26.1-.4-5.8-.4-11.5-.5-17.1,0-7.4.1-14.9.2-23,0-9.7,0-18.6,0-27.9,0-8.6,0-16.9,0-25.6,0-7.9,0-15.5,0-23.4,0-4.5,0-8.7,0-13.2,0-1.5,0-2.7,0-4.2,0-4.8,0-9.2,0-13.9,0-1.5-.1-2.7-.2-4.2.1-1.3.3-2.3.6-3.3.2,0,.6.1.6.2,0,0,.4.1.4.1,0,0,.3-.2.6-.3,1.4-.1,2.5-.2,3.9-.2,3,.1,5.7.2,8.6.4,4.8,0,9.3,0,14-.2.9,0,1.5,0,2.3.2.8.2,1.5.3,2.1.8,0,6.9,0,13.4-.3,20-.7,0-1.1,0-1.7,0-9.5-.9-15.8,7.1-12.1,15.1,2.4,5.3,7.2,7.2,14.1,6-.2,1.1-.4,1.9-.4,2.6.1,5.7-2.3,11.8,2,17Z"/>
      <path class="cls-3" d="M748.8,647.1c-.9-3-1.8-6-1.9-9-.2-12.6-.2-25.2,0-37.7,0-2,1.4-3.9,2.2-6.1,8.1,3,16.1,6.2,24.3,9.7.2,13,.2,25.8.2,38.9,1.3,0,2.5.2,4.1.3.4,4.9.5,9.7.4,14.7-2.3-1.1-4.4-2.3-6.3-3.8-6.7-5.1-14.1-7.9-23.1-7Z"/>
      <path class="cls-12" d="M715.8,655.9c0,5.9.1,11.5.3,17.5,0,1.2,0,2.1-.7,3.2-8.6.5-16.7.8-24.9,1.1-1.2-3.5-3.7-4.6-7.2-3.9-.2,0-.5,0-.8,0-11.1.3-8-1.7-13,8.1-2.8-.2-5.3-.2-7.7-.5-2.2-.2-4.4-.7-6.6-1,8.8-8.7,19.4-14.4,31.3-19.1,7.2-1.7,13.8-3.2,20.7-4.8,2.8-.5,5.3-.9,7.7-1.4.2.2.5.4.8.8Z"/>
      <path class="cls-4" d="M690.7,677.8c8-.5,16.1-.8,24.6-1.1.4,2.6.5,5.2.5,8.2-9.2.7-17.9-.3-25.2-7.1Z"/>
      <path class="cls-24" d="M871.6,685.5c2.8,3.3,2.9,6,.5,7.9-2.5,2-6,1.9-7.3-.8-.7-1.6-.8-4.2,0-5.7,1.3-2.2,3.8-3,6.7-1.4M870.6,691.7c0-1.5-.1-2.9-.2-4.4-1.2,0-3.1-.3-3.4.3-.7,1.3-.6,3-.9,4.8,2-.2,3-.3,4.5-.7Z"/>
      <path class="cls-11" d="M949.5,581c12.1-.4,24.1-.4,36-.6,2.9,0,3.9.8,3.8,3.7-.2,6-.2,12,0,18,0,2.9-1,3.8-3.8,3.7-11.7-.2-23.4-.2-35.5-.2-.5-8.1-.6-16.2-.5-24.6Z"/>
      <path class="cls-11" d="M949.3,555.3c12.2-.4,24.3-.4,36.4-.6,2.7,0,3.7.7,3.6,3.5-.2,5.5-.2,10.9,0,16.4,0,2.8-.7,3.9-3.7,3.8-11.8-.2-23.7-.2-35.9-.3-.4-7.5-.5-15-.4-22.9M967.1,566.2c-.8,2.4-1.3,4.9,2.3,5,.9,0,2.7-2.3,2.6-3.3-.2-2.5-2-3.5-4.9-1.7Z"/>
      <path class="cls-22" d="M631.7,715.9c3.6-10.8,9.4-20.4,17.5-28.9,2.5.2,4.4.5,6.3.6,3.9.2,7.9.1,11.8.2-2.7,6.4-5.4,12.8-8.1,19.4-.3,2.8-.6,5.4-.7,8.3,0,.3.1.3-.2.3-9.1,0-17.8,0-26.5.1Z"/>
      <path class="cls-4" d="M667.5,687.6c-4.1.1-8.1.2-12,0-1.9,0-3.8-.5-6.1-.8,1.6-2.1,3.6-4.1,5.7-6.3,2.4.2,4.6.6,6.8.9,2.4.3,4.8.3,7.5.7-.4,1.9-1.1,3.6-1.9,5.5Z"/>
      <path class="cls-28" d="M659,733.9c-.5-1.2-.5-2.4-.6-4.2,0-5,.1-9.4.2-13.8,0,0,0,0,0,0,3.6,0,7.2,0,10.8,0,3,0,4.6,1.2,4.6,4.4,0,3.1,0,6.2,0,9.3,0,2.9-1.4,4.3-4.2,4.3-3.5,0-7,0-10.8,0Z"/>
      <path class="cls-9" d="M711.2,725.2c-.4,9-3.9,14.1-11.1,16.5-6.5,2.1-13.8.1-18-5.2-4-5-4.8-10.6-2.1-16.5,2.9-6.4,8.4-9.4,15-9.4,6.7,0,11.9,3.4,14.9,9.6.5.9.7,2,1.1,3.5.1.8.1,1.2.2,1.5M707.7,722.1c-1.6-2-3-4.3-4.8-6-3.7-3.4-11.2-3.5-15.3-.5-5.1,3.7-7.4,9.8-5.5,15,2.4,6.7,10,10.7,16.6,8.6,7.8-2.4,11.4-8.8,9.1-17.2Z"/>
      <path class="cls-9" d="M721.8,723.6c1.9-8,6.5-13,13.4-14,7.1-1,12.9,1.3,16.9,7.3,4.9,7.3,2.5,17.3-5,21.8-8.2,4.9-19.1,2.3-23.3-5.9-1.1-2.1-1.3-4.7-2-7.6,0-.9,0-1.2,0-1.5M740.6,711.9c-3.5.8-7.5.7-10.3,2.5-6.9,4.2-8,13.2-3.1,19.5,4.7,6.1,14.5,6.8,20.6,1.6,5.9-5.1,6.2-13.7.4-19.4-1.9-1.8-4.6-2.7-7.6-4.2Z"/>
      <path class="cls-11" d="M721.4,723.6c.3.3.3.6.3,1.2-3.3.3-6.6.3-10.2.3-.4-.3-.4-.6-.4-1.2,3.3-.3,6.6-.3,10.3-.3Z"/>
      <path class="cls-4" d="M658.2,715.8c.3,4.4.3,8.8.1,13.5-9.9.4-19.7.4-29.9.5,0-2.4.2-4.8.5-7.6.8-2.2,1.6-4.1,2.6-6.2,8.9-.2,17.6-.3,26.7-.3Z"/>
      <path class="cls-27" d="M569.9,425.2c-.4-9.4-.4-18.7-.3-28.1,0-3.9,2.8-6.9,6.8-6.9,19,0,38,0,57,0,3.5,0,4,2.3,4.1,4.9,0,6,0,12-.4,18.2-5-.6-9.7-2.6-14.3-2.3-12.9.6-21.1,8.1-26,19.7-8.4-3.8-17.2-6-26.9-5.5Z"/>
      <path class="cls-27" d="M667,465.9c-.9,1-1.6,2.3-2.6,2.8-5,2.2-5.3,6.2-5.2,10.9.3,9.2.3,18.5,0,27.7-.1,2.9-1.8,5.8-2.8,8.9-15,.3-29.8.4-45,.5-.9-5.2-1.2-10.3-2-15.4-.8-4.9-1.8-9.9-3.3-14.6-1.9-6.1-2-6.3,4.8-7.3.6-.2.8,0,.9.5,0,1,0,1.7,0,2.3,0,6.3,2.1,8.4,8.3,8.4,3.5,0,7,.1,10.5,0,4.3-.2,6.6-2.6,6.8-6.9,0-1.4,0-2.8.2-4.4.7-.7,1.1-1.2,1.9-1.8,4.9-.9,9.4-1.6,13.9-2.7.7-.2,1.7-2.6,1.4-2.9-3.5-3.7-7.2-7.3-10.7-11.1,2.5-3.5,4.9-6.8,7.4-9.9,1.1,1.1,2.5,1.8,2.9,2.9,2.3,6.1,7.2,9.5,12.8,12.1Z"/>
      <path class="cls-27" d="M530.5,402c.9-9.3,3.8-11.9,12.7-11.9,7.8,0,15.5,0,22.8,0-.8,15.7-.2,30.3-.3,44.9,0,2,.2,4.1.2,6.3-5.5-1.1-10.7-2.8-16-3.6-6.1-.9-12.3-1.1-18.8-1.6-.4-11.3-.5-22.5-.6-34.2Z"/>
      <path class="cls-10" d="M651.2,450.7c-2.4,3.3-4.7,6.6-7.5,10.3-2.3,1.6-4.3,2.9-6.6,4.1-1.8-.1-3.4-.2-4.9-.6,0-5.7,0-11.1,0-16.4,10.4-1.9,13.1-3.9,12.9-8.9-.2-4.5-3.5-7.3-9-8-6.1-9.5-18.2-9.2-23.4.3-5.7.5-8.7,3.2-8.9,7.7-.2,5.3,2.3,7.1,12.8,9-.3,5.5-.5,11.1-1.2,16.8-1.5.1-2.7.2-3.9.3-12.9-6.3-18.5-19.2-14.7-34.3,4.9-11.9,13.1-19.4,26-20,4.6-.2,9.3,1.7,14.2,2.7,2.8,2,5.3,3.9,8.1,6.2,8.1,9.5,8.9,19.9,6,31Z"/>
      <path class="cls-34" d="M632.2,464.9c1.5,0,3,.1,4.8.6.3,3.7.3,7.1,0,10.5-8.7,0-17,0-25.3,0,0-3.3,0-6.7,0-10.4,1.2-.4,2.4-.5,4.2-.6,1.7,0,2.7-.1,4.1,0,3.4,0,6.4,0,9.7,0,1.1,0,1.8,0,2.6,0Z"/>
      <path class="cls-19" d="M611.4,476.1c8.5-.1,16.8,0,25.7,0,1,.5,1.4,1,1.9,1.4-.4.6-.9,1.1-1.9,1.7-8.8.1-17.1.2-25.4.2-.1-.2-.3-.3-.6-.3,0-1,0-2,.3-3.2Z"/>
      <path class="cls-27" d="M565.7,443.4c1.1-.1,2.1.1,3.3.3.3,5.8.3,11.7.3,17.6-.7.1-1.3.3-2,.4-.5-1.4-1.5-2.9-1.6-4.3-.2-4.5,0-9.1,0-14Z"/>
      <path class="cls-4" d="M515.2,574.7c-24.7.1-49.3-.1-73.9-.3-1.4,0-2.8.2-4.4.2,1.7-6.8,3.6-13.4,6.1-20.3,24.4-.2,48.3-.3,72.1-.3,0,6.8.1,13.6,0,20.7Z"/>
      <path class="cls-22" d="M515.2,553.6c-23.9.4-47.8.4-72,.5,3.1-8.4,8.4-15.5,15.4-21.7,1.4.2,2.3.6,3.2.6,17.7,0,35.5,0,53.2,0,.1,6.8.2,13.6.2,20.8Z"/>
      <path class="cls-12" d="M507.7,508.9c2.5-.2,4.8-.2,7.4-.2.3,6.8.3,13.6-.3,20.7-16.7.3-32.9.4-49,.3-1.4,0-2.8-.5-4.1-.8,12.6-11.1,27.2-17.6,43.9-19.5.6,0,1.3-.2,2.2-.5Z"/>
      <path class="cls-4" d="M461.4,529.1c1.6.2,3,.7,4.4.7,16.2,0,32.4,0,48.9,0,.4.8.4,1.7.4,2.8-17.8.3-35.6.4-53.3.4-.9,0-1.8-.3-2.9-.7.6-1.1,1.4-2.1,2.5-3.2Z"/>
      <path class="cls-28" d="M474.9,481.2c-.3,0-.5-.3-.7-.8,0-.2.3-.3.5-.4.2.3.3.6.2,1.1Z"/>
      <path class="cls-9" d="M715.1,654.8c-2.5.7-4.9,1.1-8.1,1.6-7,0-13.2,0-19.5,0-13.3,0-26.5-.1-40.1-.2-1.8-3.3-3.3-6.5-4.8-9.8-.5-1.1-1.2-2.2-2.2-3.9h75.4c-.2,3.7-.4,7.9-.7,12.3Z"/>
      <path class="cls-29" d="M687.5,656.7c6.3-.3,12.5-.3,19.1-.3-6.2,1.6-12.8,3.1-19.8,4.6,0-1.3.3-2.7.6-4.3Z"/>
      <path class="cls-30" d="M571.4,608.2c-3.1.1-6.2.6-9.1.1-1.4-.2-3.3-2.4-3.3-3.7,0-1.3,2.1-3.3,3.5-3.6,2.8-.6,5.9-.2,9.1,0,.3.3.2.7,0,.7-.8.3-1.4.6-2.3.8-2.2,0-4.2,0-5.9,0,.4,5.2,3.4,4.7,6.5,4.5.6.1,1,.2,1.4.4.3.3.3.5.3.7Z"/>
      <path class="cls-24" d="M432,601.8c1.3-2.6,3.7-3.1,5.7-1.8,1.5.9,3,3.2,2.9,4.8,0,1.6-1.8,3.8-3.3,4.5-2.6,1.1-5-.3-5.9-3.4.8,0,1.3.5,1.9.6,1.4.1,2.9.4,4.1,0,.6-.2,1.1-2.4.7-2.9-.8-.9-2.2-1.3-3.4-1.6-.8-.2-1.8,0-2.6,0Z"/>
      <path class="cls-3" d="M571.8,601.7s.1-.4.2-.6c3,0,7.1-1.3,7.1,3.5,0,4.8-4.1,3.4-7.3,3.6-.2-.3-.3-.4-.2-.7,1.2-1,3-2,2.8-2.6-.3-1.2-1.6-2.1-2.5-3.1Z"/>
      <path class="cls-11" d="M431.8,602c1.1-.2,2-.4,2.8-.1,1.2.4,2.7.7,3.4,1.6.4.5-.1,2.7-.7,2.9-1.2.4-2.7.2-4.1,0-.6,0-1.1-.6-1.9-.9-.1-1.1.1-2.2.5-3.6Z"/>
      <path class="cls-24" d="M565.2,632.2c.3,0,.4.3.4.8.5,4.4,1,8.3,1.5,12.6,0,1.4.2,2.5.3,3.5h7.9c-.4-1.5-.6-2.7-.9-4.2-.3-2.6-.7-4.9-1-7.1,0-2.5,1.8-2.5,4-2.5.4,0,.6,0,.6.4,1.4,6.6,2.8,13,4.3,19.3.5,2.7,1,5.3,1.7,8.6-3.8-.3-7.2-.7-10.6-.8-3.3,0-6.8,1.1-9.9.4-3.2-.8-6.1,1.8-9.6-.3,0-1.6,0-3.7,0-6.4,0-2.8,0-5,0-7.5,3.2.5,3.6-1.1,2.8-3.8-.3-4.7-.6-9.2-1-13.6.7-.6,1.4-1.2,2.2-1.6.7-.5,1.5-.8,2.3-1.2,0,.8.3,1.6.2,2.4-.2,2.2-.6,4.5-.4,6.9,1.7-2-.3-6.8,5.2-5.7Z"/>
      <path class="cls-24" d="M590.4,635.3c1.7,0,3.3,0,5.3,0,4.9,9.2,9.4,18.3,14.1,27.9-3.6,0-6.5,0-9.5,0-4.3.1-2.3-5-5.6-6.4.6,2.3,1.1,4.3,1.6,6.3h-10.8c-.7-2.7-1.3-5.2-2-8.3-1.4-6.4-2.6-12.2-3.9-18,1.5-.3,2.9-.5,4.8-.6,1.3,3.1,2.2,6.1,3,9.4.5,5.4,4.3,3,7.4,3.8-.6-1.8-.9-2.9-1.3-4.4-1.1-3.4-2.2-6.6-3.3-9.7Z"/>
      <path class="cls-24" d="M452.5,634.4s.2,0,.6,0c2.3.2,4.2.4,6.1.7,0,.2-.2.4-.4.7-.1,1.1-.1,1.9-.1,3,0,2.3-.2,4.3-.4,6.6-.4,4.4.4,4.8,6.4,3.2,0-1.1,0-2.2,0-3.7.3-2.4.6-4.5.9-6.6,1.5,0,2.9,0,4.8,0,.4,8.2.4,16.4.4,24.7-3.5-.2-6.3-.3-9.6-.8-.3-2.2-.1-4,0-5.8,0-.2,0-.4,0-.5,0,0,.3.2.2.2,0,.2-.2.3-.3.8-.6,2.1-1.1,3.9-1.6,5.8-3.2,0-6.3.2-9.5.2-.5,0-1.1-.7-1.5-1.7,1.4-9.4,2.8-18.1,4.1-26.8Z"/>
      <path class="cls-24" d="M472.3,630.2c1.7-.3,3.3-.3,5.2-.3.4,1.3.5,2.6.6,4.6,0,4.1.1,7.5.2,11.3-.3,5.1,2.8,3.4,5.4,3.4,0-1.4,0-2.5,0-4,0-3.8-.2-7.2-.3-10.6,0,0,.2,0,.5,0,1.7,0,3,0,4.3,0v28.4h-16c0-10.7,0-21.5,0-32.7Z"/>
      <path class="cls-24" d="M427.5,653.9c2.1-5.8,4.2-11.4,6.7-16.9,1.8.5,3.2.9,4.5,1.6-.8,2.3-1.5,4.3-2.3,6.5-.4,1.3-.6,2.3-.9,3.3,2,.4,4.1.9,6.3,1.3.4-1.8.7-3.1,1.1-4.6.5-1.7,1-3,1.8-4.4,2.1,0,3.8,0,5.4.4-1,6.9-2.1,13.5-3.1,20-.9.5-1.7,1.5-2.6,1.5-6.4.1-12.8,0-19.8,0,1-3,1.9-5.8,2.9-8.8Z"/>
      <path class="cls-24" d="M490,628.7c1.6-.1,3.2.1,5.1.4.4.6.5,1.3.6,2.4.1,5,.3,9.5.5,14.2-.2,2-.3,3.7,2.1,3.8v13.7h-8.3c0-11.4,0-22.8,0-34.5Z"/>
      <path class="cls-24" d="M507.1,632.2c.3,10.2.6,20.3.9,30.8-2.7.4-5.3.4-8.6.4,0-4.5,0-8.9.3-13.6,3.3-.8,1.7-2.9,1.9-4.7,0-4.5,0-8.7.4-12.8,1.9,0,3.6,0,5.2,0Z"/>
      <path class="cls-24" d="M527.5,636.5c1.8-.4,3.5-.4,5.7,0,.4,3.3.4,6.2.3,9.4-.7,2.8.7,3.5,2.8,3.5.2,4.5.4,9,.7,13.8h-9.4c0-8.7,0-17.6,0-26.8Z"/>
      <path class="cls-24" d="M508.9,663.3c-.3-9.1-.3-18.2-.2-27.7,1.8-.6,3.6-.9,5.7-1.1.3.6.4,1.2.2,2.3-.2,2.9,0,5.3,0,8,.3,1.9-.9,4.2,2.1,4.5v14c-2.6,0-5,0-7.7,0Z"/>
      <path class="cls-24" d="M414.7,637.9c1.6,0,3,0,4.6.7-.6,2.1-1.4,3.8-2.4,5.6-.8,1.4-1.4,2.6-2.1,4,.8.4,1.5.8,2.2,1.1-1.6,4.3-3.2,8.4-4.7,12.5-3,.4-6,.8-10,1.4,4.4-9,8.3-17.1,12.4-25.3Z"/>
      <path class="cls-24" d="M431.2,639.2c-1.5,4.2-3,8.4-4.5,13-1.3,3.7-2.7,7-4,10.3-3.2,0-6.2,0-9.2-.5,1.5-3.8,3-7.2,4.5-10.4.4-.9,1.2-2.3,1.7-2.3,3.6.4,3.9-2.1,4.6-4.7,1-2,1.8-3.8,2.9-5.5,1.5,0,2.7.1,3.9.2Z"/>
      <path class="cls-24" d="M521.1,638.4c1.3-.2,2.6-.5,4.2-.7.3,8.4.3,16.9.3,25.5h-7.5c0-4.3,0-8.7.3-13.5,3.7-.2,2.7-2.5,2.6-4.6,0-2.4.1-4.5.1-6.6Z"/>
      <path class="cls-24" d="M539.9,637.7c1.1.3,2.2.5,3.6,1.1.9,8.5,1.4,16.6,2,24.7h-6.9c-.3-4.5-.6-9-.5-13.8,3.1-.8,1.8-2.7,1.8-4.5,0-2.7,0-5.1,0-7.5Z"/>
      <path class="cls-24" d="M545.3,633.8c.9,0,1.7,0,2.9.3.4,4,.4,7.6.3,11.6.9,1.7,1.9,3,2.9,4.4.2-.1.4-.3.6-.4l.5,6.8v7.2c-1.6,0-3.4,0-5.7-.4-.8-10.1-1.2-19.8-1.5-29.5Z"/>
      <path class="cls-33" d="M488.3,634.2c-1.4.4-2.7.4-4.3.4-.3-6.6-.3-13.2-.3-20.1h4.7c0,6.5,0,12.9,0,19.7Z"/>
      <path class="cls-11" d="M545.2,633.4c.5,10,.8,19.7,1.3,29.8-.2.3-.4.3-.9.3-.8-8.1-1.3-16.3-1.9-24.7-.3-8.2-.6-16.1-.9-24.3.2-.4.4-.4.8-.4.7,6.4,1.1,12.7,1.6,19.4Z"/>
      <path class="cls-11" d="M424.1,644.8c-.5,2.4-.8,4.9-4.4,4.5-.5,0-1.3,1.4-1.7,2.3-1.6,3.3-3,6.6-4.7,10.1-.3.2-.4.2-.8.2,1.3-4.1,2.9-8.2,4.5-12.5-.7-.4-1.4-.7-2.2-1.1.7-1.4,1.3-2.7,2.4-3.8,2.6.2,4.8.3,6.9.4Z"/>
      <path class="cls-18" d="M483.1,634.4c.5,3.4.6,6.9.3,10.6-2,.3-3.5.3-5.1.3,0-3.4-.2-6.8-.2-10.6,1.6-.4,3.1-.4,5-.3Z"/>
      <path class="cls-11" d="M447.2,661.1c.8-6.6,1.9-13.1,3.1-20.3.6-3.3,1.1-6.1,1.6-8.8.2.6.3,1.3.6,2.1-1.3,8.9-2.6,17.6-4,26.7-.4.3-.7.3-1.2.3Z"/>
      <path class="cls-11" d="M552.8,656.4c-.4-2.3-.5-4.6-.7-6.8-.2.1-.4.3-.6.4-1-1.4-1.9-2.7-2.5-4.3,2.8-.3,5.2-.3,7.7-.3.9,2.5.5,4-2.7,3.5,0,2.5,0,4.7,0,7.2-.3.4-.6.4-1.1.4Z"/>
      <path class="cls-11" d="M579.5,636.6c1.4,6,2.7,11.8,4,17.9-.2.3-.4.3-.9.4-1.7-6.3-3.1-12.6-4.5-19.5.2-.9.4-1.3.6-1.7.2.9.5,1.8.9,2.9Z"/>
      <path class="cls-11" d="M520.9,645.4c.1,1.8,1.1,4.1-2.6,3.9-.6,0-.9,0-1.4,0-3.2-.3-2-2.6-2.2-4.7.1-.9.2-1.2.3-1.6,0,0,.2,0,.4.3,1.2,3.4,3.7,1.6,5.5,2Z"/>
      <path class="cls-16" d="M539.7,645.5c0,1.5,1.3,3.4-1.8,3.8-.5,0-.8,0-1.4,0-2.5,0-3.9-.6-2.8-3.4,2.3-.3,4.1-.4,6-.4Z"/>
      <path class="cls-11" d="M501.5,645.4c0,1.5,1.4,3.6-1.9,4-.5,0-.7,0-1.1.1-2.7,0-2.6-1.7-2-3.7,1.9-.3,3.5-.3,5-.4Z"/>
      <path class="cls-11" d="M459.7,662.7c.3-1.9.8-3.7,1.3-5.8,0-.3.1-.3.1-.3-.2,1.8-.3,3.6-.4,5.8-.2.4-.5.4-1.1.4Z"/>
      <path class="cls-33" d="M668.8,631.3c-6.8,0-13.6,0-20.8-.4-.4-8-.4-15.5-.2-22.9,1.7,1.1,3,2.3,4.6,3.2,5.8,3.4,11.6,6.6,17.2,10.1-.4,3.5-.6,6.7-.8,9.9Z"/>
      <path class="cls-2" d="M638.1,631.2c-2.9,0-5.7,0-8.9-.2-.7-2.4-1-4.5-1-6.7.7-2.7,1.4-5.2,1.5-7.7.2-8.4.2-16.8.4-25,2.9,2.9,5.6,5.6,8.2,8.8,0,10.6-.1,20.8-.2,31Z"/>
      <path class="cls-23" d="M627.9,624.5c.3,2.1.6,4.1.9,6.5-.3.4-.7.4-1.3.6-5,0-9.7,0-14.8-.5-.4-8.3-.4-16.3-.3-24.1.4.1.5.1.9.3,2.4,1.7,4.6,3.2,7,4.9,2.6,4.2,5.1,8.3,7.5,12.3Z"/>
      <path class="cls-15" d="M638.5,631.3c-.3-10.2-.3-20.4,0-30.9,3.2,2.3,6.1,4.9,9,7.5,0,7.5,0,15.1,0,23-2.9.4-5.8.4-9.1.4Z"/>
      <path class="cls-1" d="M669.1,631.3c-.2-3.3,0-6.5.7-10,12.5,4.8,24.9,8.4,38.3,9.3.8,0,1.4,0,2,.3,0,.1.1.4.1.4-13.5,0-27.1,0-41,0Z"/>
      <path class="cls-16" d="M710.5,631.4c-.3,0-.4-.3-.2-.7.4-1.8.7-3.2.7-4.6,0-6.9,0-13.8.3-20.7,1.8,0,3.3,0,4.8,0,0,9,0,17.9,0,27.2-1.8-.2-3.6-.7-5.7-1.3Z"/>
      <path class="cls-7" d="M677,522.8c1.3-.5,2.6-1.5,4-1.5,7.4-.1,14.8,0,22.6.4.4,1.7.4,2.9,0,4-8.9,0-17.4,0-26-.2-.3-1.1-.4-1.9-.5-2.6Z"/>
      <path class="cls-16" d="M676.7,522.8c.5.8.6,1.5.9,2.7.1.4,0,.6-.3.5-7.7-.1-15-.2-22.3-.2-.1-.8-.2-1.6-.4-2.7,7.2-.3,14.5-.4,22.2-.4Z"/>
      <path class="cls-4" d="M703.9,525.8c0-1.3,0-2.5,0-4.1,0-1.7.2-3,.4-4.6.6-.5,1-.8,1.7-.7.2,4.6.2,8.9,0,13.2-.2,0-.5,0-.6-.2-.6-1.4-1.1-2.5-1.5-3.6Z"/>
      <path class="cls-21" d="M629.8,529.8c8.2,0,16.4,0,25.1.2,4.9,24.6,26.9,45.1,52.9,49.6,0,8.7,0,17-.4,25.4-3-.4-5.7-.7-8.3-1.4-37.6-8.7-63-35.6-69.6-73.7.1,0,.3,0,.3,0Z"/>
      <path class="cls-13" d="M707.9,579.2c-26.1-4.1-48-24.6-52.5-49.3-.2-1.3-.3-2.3-.4-3.7,7.3-.3,14.6-.2,22.4.1.9,1.3,1.3,2.4,1.7,3.8,6,15.5,17.1,24.2,33.5,26.5.4.1.6.2.8.5,0,7.5,0,14.7-.4,21.9-1.9,0-3.4,0-5,.1Z"/>
      <path class="cls-16" d="M612.3,606.8c0,7.9,0,15.8.1,24.1-2.1.4-4.2.4-6.7.3,0-28,.2-55.9.4-83.9,0-4.1-.6-8.3-.6-12.4,0-7.7,4.6-12.2,12.3-12.2,2.5,0,5-.2,7.4,0,1.2.1,2.3,1.1,3.1,2-3.6.3-6.8.3-10.1.3-5.1,0-9.8,4.4-9.6,9.5.4,8.9,1.3,17.8,1.5,26.7.3,13.5,0,27,.2,40.5,0,1.7,1.3,3.3,2.1,4.9Z"/>
      <path class="cls-27" d="M612.5,606.9c-.9-1.7-2.3-3.4-2.3-5-.2-13.5,0-27-.2-40.5-.2-8.9-1.1-17.8-1.5-26.7-.2-5.1,4.5-9.5,9.6-9.5,3.2,0,6.5,0,10.1,0,.7,1.3,1,2.7,1.4,4.3,0,.3-.1.3-.6.3-4.6,0-8.7,0-12.9,0-2.9-.1-3.9,1.1-3.8,3.9.1,4.7,0,9.3,0,14,.2,5.8.5,11.6.8,17.7,0,14.2,0,27.9,0,41.7-.1,0-.3,0-.7-.2Z"/>
      <path class="cls-18" d="M556.7,645.1c-2.5.3-4.9.3-7.7.3-.3-3.7-.3-7.3-.4-11.3,0-3.2,0-6.1,0-9.3.4,3.1,2.1,5.1,6.2,4.4.5.6.6,1.2.8,2,.4,4.7.8,9.1,1.1,13.8Z"/>
      <path class="cls-33" d="M451.9,631.7c-.5,3-.9,5.8-1.6,8.8-1.9.2-3.6.2-5.6-.1,0-2.7.3-5.1.6-7.5,1.6-6,3.2-12,4.9-18.4,1.4-.3,2.7-.3,4.5-.3-1,5.9-1.9,11.6-2.8,17.5Z"/>
      <path class="cls-33" d="M438.8,638.3c-1.4-.4-2.8-.8-4.4-1.5,2.3-7.1,4.5-14.1,7.3-20.8.5-1.3,3-1.8,4.5-2.7.3.4.7.7,1,1.1-2,5.9-4,11.9-6.2,18.3-.8,2.2-1.5,3.9-2.1,5.5Z"/>
      <path class="cls-33" d="M431.4,639c-1.4.2-2.5.1-4-.2.5-2.7,1.4-5.1,2.2-7.5,2.4-5.5,4.7-10.9,7.2-16.7,1.1-.4,2.3-.6,4.1-.8-3.2,8.7-6.3,16.8-9.4,25.2Z"/>
      <path class="cls-18" d="M438.7,638.6c.7-2,1.3-3.7,2.1-5.5,1.3-.2,2.5-.2,4.1-.2,0,2.4-.3,4.7-.6,7.5-.5,1.7-.9,3.1-1.8,4.8-2.3,0-4.2-.1-6.1-.3.7-2,1.4-3.9,2.2-6.2Z"/>
      <path class="cls-18" d="M539.8,645.2c-1.9.4-3.7.5-5.9.5-.3-3-.3-5.9-.4-9.2,0-1.4.1-2.5.3-3.8,1.6-.3,3.2-.4,5.1-.5.5,1.6.7,3.2.9,5.2,0,2.7,0,5.1,0,7.8Z"/>
      <path class="cls-18" d="M429.2,631.4c-.5,2.4-1.3,4.7-2.2,7.4-.9,2.1-1.6,3.9-2.7,5.8-2.4,0-4.5,0-6.9-.3.5-1.8,1.3-3.5,2.1-5.4,1.2-2.6,2.5-4.9,3.8-7.3,1.9-.2,3.7-.1,5.8-.1Z"/>
      <path class="cls-18" d="M465.5,638.1c-.2,2.4-.5,4.5-1.1,7-2.3.3-4.1.2-6,.2.1-2,.2-4,.4-6.6.1-1.4.1-2.2.1-3.1,0,0,.3-.2.3-.5,0-.4.2-.5.4-.9.2-1.3.3-2.3.4-3.4,0,0,0-.2,0-.2,1.6,0,3.2,0,5.1-.1.3,2.4.3,4.8.3,7.5Z"/>
      <path class="cls-18" d="M520.9,645.1c-1.9,0-4.4,1.7-5.4-1.7,0-2.6.2-4.9,0-7.2-.3-3.2,1-4.5,4.5-4.1.5,1.9.7,3.8,1,6,0,2.4,0,4.5,0,6.9Z"/>
      <path class="cls-18" d="M587.5,645.3c-.8-2.9-1.7-5.9-2.7-9.1-.3-1.3-.5-2.3-.7-3.6,1.2-.6,2.4-.9,4-1.2.9,1.2,1.4,2.4,2.1,3.7,1.3,3.3,2.4,6.5,3.1,9.9-2.2.3-4,.3-5.8.3Z"/>
      <path class="cls-18" d="M578.6,633.4c-.1.7-.3,1.1-.5,1.7,0,.2-.3.1-.4,0-1.5-6.8-2.9-13.6-4.3-20.7.1-.3.3-.3.6-.3,1.7,6.3,3.1,12.6,4.6,19.2Z"/>
      <path class="cls-33" d="M514.9,642.8c0,.7-.1,1-.3,1.6-.2-2.2-.3-4.5-.2-7.2.2,1.6.3,3.4.4,5.6Z"/>
      <path class="cls-18" d="M567.2,645.3c-.5-3.9-1-7.8-1.5-12.1,1.8-.8,3.6-1.3,5.7-1.8.8,2,1.2,3.9,1.8,6.1.5,2.5.9,4.8.8,7.5-2.6.4-4.7.4-6.9.3Z"/>
      <path class="cls-18" d="M571.6,630.4c-.3,0-.4-.2-.4-.6.3,0,.4.1.4.6Z"/>
      <path class="cls-33" d="M507.1,631.8c-1.7.4-3.3.4-5.3.3-.5-.3-.6-.5-.8-.6,0-5.3-.2-10.5-.3-16.2,1.9-.8,3.8-1.2,6.5-1.7,0,6.4,0,12.2,0,18.3Z"/>
      <path class="cls-18" d="M500.7,631.5c.6.1.7.3.8.6.1,4.3.1,8.4,0,12.9-1.6.4-3.2.4-5,.4-.5-4.5-.7-8.9-.8-13.7,1.6-.3,3.1-.3,4.9-.2Z"/>
      <path class="cls-33" d="M460.1,630.3c0,.4,0,.5-.1.8-.2,1.3-.3,2.3-.4,3.4-.1,0-.2.2-.3.4-2,0-3.8-.3-6.1-.5.4-5.3,1.6-10.5,1.9-15.7.3-4.2,2.1-5.3,6.2-4.7-.2,5.3-.7,10.6-1.2,16.3Z"/>
      <path class="cls-23" d="M986.3,509.5c-.4-13-.4-25.9,0-39.3,5.3-.4,10.3-.4,15.2-.4v39.6c-5.1,0-10,0-15.2,0Z"/>
      <path class="cls-20" d="M1001.6,469.5c-5,.3-10,.3-15.3.3-.4-1.6-.4-3.3,0-5.2,5.3-.3,10.3-.3,15.2-.3,0,1.6.1,3.2,0,5.2Z"/>
      <path class="cls-28" d="M1001.6,464c-5,.3-9.9.3-15.2.3-.4-1.1-.5-2.3-.6-4,5.2,0,10.1,0,15.4,0,.4,1.1.4,2.2.4,3.7Z"/>
      <path class="cls-11" d="M973.4,632.5c-6.9,0-13.4-.1-19.9,0-2.7,0-4-.6-3.9-3.7.2-6.7,0-13.5,0-20.4,1.5-.2,2.5-.3,3.5-.3,10.8,0,21.6,0,32.4-.2,2.9,0,3.9.8,3.8,3.8-.2,5.8-.1,11.7,0,17.6,0,2.5-.8,3.5-3.4,3.4-4-.2-8.1,0-12.5,0Z"/>
      <path class="cls-18" d="M1018.9,462.6c2.9,1.4,4.6,3.6,3.5,6.3-.7,1.8-3,3.8-4.8,4.1-1.6.2-4.2-1.4-5.2-2.9-2.4-3.8.9-7.6,6.4-7.4M1020.4,465.6c-1.7-.4-3.5-1.2-5.1-.9-.8.1-1.9,2.3-1.7,3.4.2,1.3,1.4,2.8,2.5,3.4,3,1.4,5.3-1.2,4.4-5.8Z"/>
      <path class="cls-18" d="M1022.7,507.3c-.2,3.5-2,5.7-5,5.7-1.8,0-4.4-1.5-5.1-3.1-.7-1.5,0-4.3.9-5.9,1.7-2.8,8.2-2.4,9.2,3.3M1013.8,505.8c.3,1.6.2,3.5,1,4.8.5.8,2.7,1,3.8.7,2.5-.9,3.3-3,2-5.3-1.6-2.8-4-2.8-6.8-.2Z"/>
      <path class="cls-20" d="M1085.3,508.6c-12.7,0-21.9-9.1-21.8-20.9,0-11.6,9-20.6,21.4-21.2.4,3.4.5,6.8.2,10.6-4.6.4-7.9,2.2-9.7,6.1-1.9,3.9-1.6,8,1.3,10.9,2.2,2.2,5.7,3.1,8.7,4.5,0,3.2,0,6.4,0,10Z"/>
      <path class="cls-28" d="M1085.5,498.5c-3.1-1.4-6.6-2.3-8.8-4.5-3-2.9-3.2-7-1.3-10.9,1.9-3.9,5.1-5.7,9.7-5.7.3,0,.6,0,.7.3.1,1.1.1,1.9-.2,2.7-5.1,1.2-7.2,3.5-7,7.5.2,3.8,2.4,5.7,7.3,6.7,0,1.3,0,2.3,0,3.3,0,.2,0,.4-.4.6Z"/>
      <path class="cls-20" d="M1086.2,498c-.3-1.1-.3-2.1,0-3.4,3.7-1.2,5.8-3.3,5.9-6.9.1-4.2-2.6-6.2-6.3-7.3,0-.8,0-1.5,0-2.5,5.6-.1,9.8,3.7,10.1,9.2.4,5.7-3.3,10-9.8,11Z"/>
      <path class="cls-15" d="M651.4,451c2.7-11.3,1.8-21.7-6-31,1.7-2,3.6-3.7,5.5-5.5.5-.5,1.4-1.4,1.3-1.8-1.6-5.3,3.4-6.7,5.7-9.6,1.3-1.7,3.4-2.7,5.3-4.2,6.1,4.7,11.1,10,13.8,17.6-5.7,2.8-9.4,7.1-12,12.8-1.2-2.3-2.1-3.8-2.9-5.4-4.8,1.7-8.4,6.7-8.2,11,.2,3.7,4.2,8.3,8.3,9.4.8-1.5,1.6-3.1,2.7-5.1,3.1,5.4,5.8,10.7,12.3,11.8-1.4,6.1-5.3,10.5-10,14.8-5.8-2.4-10.7-5.8-13-11.9-.4-1.1-1.8-1.8-2.9-2.9Z"/>
      <path class="cls-32" d="M677.3,450.7c-6.7-.8-9.3-6.2-12.4-11.6-1.1,2.1-1.9,3.6-2.7,5.1-4.1-1.1-8.1-5.7-8.3-9.4-.2-4.3,3.4-9.3,8.2-11,.8,1.5,1.7,3.1,2.9,5.4,2.6-5.7,6.3-10.1,12.1-12.6,4.1,8.5,5.8,17.3,2.7,26.5-.8,2.4-1.5,4.8-2.4,7.5Z"/>
      <path class="cls-4" d="M730.5,517.5c-2.7,0-5.3-.1-8.3-.6-.3-19.2-.3-37.9-.3-56.7,2.9,0,5.8,0,9,0,.3,9.8.4,19.5.3,29.3,0,2.5.3,4.6,2.7,6,1.8,1,1.2,1.8,0,3.2-1.3,1.5-2.4,3.6-2.5,5.5-.2,4.1.2,8.3.3,12.7-.4.4-.8.5-1.1.5Z"/>
      <path class="cls-23" d="M721.5,460.2c.3,18.8.3,37.6.3,56.7-1.1.4-2.2.5-3.7.5-.6,0-.8,0-.9,0,0,0-.4,0-.7-.3-.3-.2-.4-.5-.4-.5,0-3.2.1-6.3.2-10.2,0-1.8,0-2.9,0-4,0-3,0-5.9,0-8.9q0-5.5-6.2-5.7c-.4-1.4-.3-2.6-.2-3.7h6.3c0-4.7,0-9.2,0-14.5,0-1.8,0-2.9,0-4q.1-5.8,5.2-5.6Z"/>
      <path class="cls-12" d="M715.9,502.5c.3,1.1.4,2.2.3,3.6-3.6-.2-6.7.3-8,4.2-.3-4.3-.3-8.4-.3-12.4.9,1.3,1.7,2.7,2.9,4.6,1.1,0,2.9,0,5,0Z"/>
      <path class="cls-12" d="M715.9,465.8c.4,1.1.4,2.2.3,3.6-3.6-.2-6.7.3-8,4.2-.3-4.3-.2-8.3-.2-12.4.7,1.3,1.3,2.6,2.3,4.6,1.3,0,3.3,0,5.6,0Z"/>
      <path class="cls-12" d="M716,521c0,1.2.2,2.4-.1,3.8-3.3,0-6.5-.6-7,3.8,0,.2-.6.3-1,.2,0-4.4,0-8.5,0-12.5.3.1.7.3,1.2.7,0,3.2,1.2,4.5,4.2,4.1.9-.1,1.8,0,2.6,0Z"/>
      <path class="cls-22" d="M710,484c-.1,1.5-.2,2.6-.2,4.1,0,2.4,0,4.8-3.4,4.3-.5-4.6-.7-8.6-1-12.7,4.2-1.6,4.1,1.5,4.5,4.3Z"/>
      <path class="cls-11" d="M716.1,520.7c-.9.3-1.8.3-2.7.4-2.9.5-4.2-.8-4-4,2-.3,4-.3,6.4-.4.3,0,.5.3.6.5,0,1.2-.1,2.2-.3,3.5Z"/>
      <path class="cls-4" d="M706.3,511c-.5-.2-1.1-.2-1.4-.6-1.7-2.1-1.1-10.4,1.1-12.2.3,4.5.3,8.7.3,12.8Z"/>
      <path class="cls-4" d="M706.3,474.3c-.5-.2-1.1-.2-1.4-.6-1.7-2.2-1.1-10.4,1.1-12.3.3,4.5.3,8.7.3,12.9Z"/>
      <path class="cls-4" d="M705.2,479.8c.5,3.9.8,8,1,12.4-.7-.2-1.9-.7-1.9-1.3,0-3.7.4-7.3.9-11.2Z"/>
      <path class="cls-22" d="M706.6,511.1c-.3-4.2-.3-8.4-.3-12.9.5-.4.9-.4,1.6-.3.2,4.2.2,8.3.2,12.7-.4.4-.8.5-1.4.5Z"/>
      <path class="cls-22" d="M707.8,516.1c.3,4.2.2,8.2.2,12.7,0,.5,0,.7-.2.7-.7,0-1.1,0-1.5,0,0-4.3,0-8.5,0-13.2.4-.4.8-.4,1.5-.2Z"/>
      <path class="cls-22" d="M706.6,474.3c-.3-4.2-.3-8.4-.3-13,.4-.3.8-.3,1.5-.2.3,4.1.3,8.2.3,12.6-.4.4-.8.5-1.5.5Z"/>
      <path d="M849.5,488.4c0-1.1,0-2.2-.1-3.9,0-1.6-.1-2.6-.2-3.9-4.2,0-8.2,0-12.2,0-.5,0-1,.8-1.6,1.4,0,.4,0,.6,0,.8,0,.6-.1,1.2-.6,2.1-1.2.3-2.1.3-3,0-.1-1.6-.2-2.8-.3-4.2-1.6,0-2.9,0-4.5-.1-2.2,0-4.2,0-6.4,0-1.1.6-2.3,1.1-2.6,1.9-.4,1.3-.2,2.8-.5,4.2-1.2,0-2.1,0-3.1-.4,0-1.9,0-3.5,0-5.2-.1-.3-.3-.4-.9-.6-2.1,0-4,0-6,0-.4,0-.6,0-1.1,0-2.1,0-3.8,0-6,0,0,3.6,0,6.8-.3,10-1.2,0-2.2,0-3.2-.4,0-3.4,0-6.4,0-9.3h-7.2c0,3,0,5.7,0,8.4,0,2.2.8,4.6-2.3,5.8-.4.1-.3,3.4,0,3.5,3.2.8,2,3.5,2.4,5.7,0,2,.1,3.7,0,5.7-.2,2.6-.2,4.9-.6,7.2-3.2,0-6,0-8.9-.5,0-19.2,0-38,.1-57,6-.4,11.8-.5,18-.6,3.9-.1,7.3-.3,11.1-.4.8,0,1.2,0,1.6,0,4.3.1,8.6.2,13.3.3,4,0,7.6,0,11.9,0,1.4,0,2.1-.1,3.1-.1,3.4,0,6.5,0,9.9,0,.9,0,1.6,0,2.3-.1,6,.1,11.9.2,18.3.7.5.6.5.8.5,1.3-.5,3.7.9,5.9,4,7.4.9.4,1.9,1.9,1.9,2.9,0,5.6,2.2,8.3,8,9.2.9,0,1.6,0,2.6,0,.8,1.1,1.7,2.1,1.7,3.1.1,6.2.2,12.5,0,18.7,0,1.3-1.1,2.5-1.6,3.8-3.3-2.5-6.5-5-9.9-8.1-.1-6.1-.1-11.5-.1-16.9h-6.7c-.1,2.2-.2,4.1-.6,6-1.2,0-2.1,0-3-.4,0-2.1,0-3.8,0-5.6h-13.8v5.2c0,.6-.1,1.2-.5,2-1.3.2-2.2.2-3.2.3Z"/>
      <path class="cls-20" d="M798.2,459.2c-5.8.1-11.6.3-17.9.6-1.7.3-2.9.4-4.5.4-3.4,0-6.4,0-9.8,0-4.3-.1-8.2-.2-12.1-.2v-52.3c1.9,1,3.4,1.9,5.3,2.7.5,0,.7.1.9.8,2.2,2.8,4.2,5.3,6.6,7.5,1.5,1.4,3.5,2.3,5.3,3.4.2,0,.4.1.6.8,2.2,2.8,4.2,5.3,6.6,7.5,1.5,1.4,3.5,2.3,5.3,3.4.2,0,.4.1.6.8,2.2,2.8,4.2,5.3,6.6,7.5,1.5,1.4,3.5,2.3,5.3,3.4.2,0,.4.1.6.8,2.1,2.8,4.2,5.3,6.1,7.8-2,1.8-3.7,3.5-5.5,5.1Z"/>
      <path class="cls-28" d="M784.4,433.5c-1.7-.9-3.7-1.8-5.2-3.2-2.3-2.2-4.3-4.7-6.5-7.3,3.9,3.2,7.7,6.8,11.7,10.5Z"/>
      <path class="cls-28" d="M796.9,445.2c-1.7-.9-3.7-1.8-5.2-3.2-2.3-2.2-4.3-4.7-6.5-7.3,3.9,3.2,7.7,6.8,11.7,10.5Z"/>
      <path class="cls-28" d="M771.9,421.8c-1.7-.9-3.7-1.8-5.2-3.2-2.3-2.2-4.3-4.7-6.5-7.3,3.9,3.2,7.7,6.8,11.7,10.5Z"/>
      <path class="cls-28" d="M803.9,453.9c-2.1-2.4-4.2-4.8-6.2-7.5,2.6,2.1,5.3,4.4,8,7.2,0,.4-.2.5-.5.6-.6-.1-.9-.2-1.2-.2Z"/>
      <path class="cls-28" d="M811.2,458.6c-.3.3-.7.3-1.5,0-.3-.3-.4-.6-.3-.8.2-.3.3-.4.4-.5.4.3.8.7,1.4,1.2Z"/>
      <path class="cls-28" d="M806.7,454.3c.2.2.4.3.6.8-.1.4-.2.5-.5.5-.4-.2-.5-.4-.5-.8.2-.3.3-.4.4-.5Z"/>
      <path class="cls-28" d="M805.8,453.8c.4,0,.5.1.8.4,0,.2,0,.3-.5.5-.5,0-.6-.3-.8-.5,0,0,.2-.2.4-.4Z"/>
      <path class="cls-28" d="M807.4,455.3c.4,0,.6.2.7.6-.2.4-.3.5-.5.5-.4-.2-.5-.4-.6-.7.1,0,.2-.2.5-.4Z"/>
      <path class="cls-28" d="M808.2,456.1c.4,0,.6.2.7.6-.2.4-.3.4-.6.4-.4-.2-.5-.4-.6-.7.1,0,.2-.2.5-.4Z"/>
      <path class="cls-28" d="M809,456.9c.3,0,.5,0,.7.4,0,.2,0,.4-.4.5-.5,0-.7-.3-.7-.5.1,0,.2-.2.5-.4Z"/>
      <path class="cls-4" d="M753.6,460c4.2,0,8.1,0,12.4.5.4,6.5.4,12.6.3,18.6,0,1.3-.7,2.6-1.3,3.8-3.1-.3-5.9-.4-9-.8-1.9-.3-3.5-.4-5.1-.6,0-6.8-.1-13.7-.2-20.9.8-.4,1.7-.5,2.9-.6Z"/>
      <path class="cls-4" d="M746.9,517.5c-.6,0-1.2,0-2.4-.1-3,0-5.4-.2-7.7-.2.3-.2.7-.5,1-.5,5,.8,5.7-2.2,5.8-6.5,4.5-.6,8.7-.7,13.3-.9,1.5,0,2.8.2,4.1.6,0,2.7.1,5-.2,7.4-4,0-7.7.1-11.7.1-.9,0-1.5,0-2,0Z"/>
      <path class="cls-4" d="M753.9,499.2c0-2,0-4,.3-6.5,1-.5,1.7-.6,2.7-.7,2.8-.1,5.3-.3,7.9,0,0,2.9,0,5.5-.3,8-2.6-.2-4.9-.3-7.5-.5-1.2-.1-2.1-.2-3.1-.2Z"/>
      <path class="cls-12" d="M756.6,492c-.7.1-1.3.2-2.4.4-3.8,0-7.3,0-10.8-.1-3.1-.1-5.9-2.6-5.5-5.2.4-3,2.1-4.9,5.5-4.9,2.3,0,4.6-.3,7.3-.5,2,0,3.6.1,5.5.6.3.6.3.9,0,1.2-1,.2-1.6.3-2.6.3-2.1,0-3.8,0-5.8,0-.9,0-1.6,0-2.5,0-.9,0-1.5,0-2.4,0-1.2,1.3-2.9,2.6-2.8,3.7.1,1.2,2,2.2,3.4,3.3.9,0,1.6,0,2.5,0,.9,0,1.5,0,2.4,0,2.1,0,3.8,0,5.9,0,1,.1,1.7.2,2.3.5,0,.4,0,.7,0,1Z"/>
      <path class="cls-12" d="M753.5,499.3c1.3,0,2.2,0,3.4.4.3.5.2.8-.1,1.1-1.2.1-2.1.2-3.3.3-2.6,0-4.8,0-7.3-.1-1.3,0-2.2,0-3.4,0-1.2,1.3-2.8,2.7-2.8,4,0,1,2,2,3.4,3,1.3,0,2.2,0,3.4,0,2.6,0,4.8,0,7.3,0,1,.1,1.7.2,2.3.5,0,.4,0,.7,0,1-4.2.1-8.4.3-12.9.5-3.8-.2-5.8-2.5-5.6-5.7.2-3.4,2.7-5,6.3-4.8,2.9.2,5.9,0,9.2-.1Z"/>
      <path class="cls-24" d="M736.4,517.3c2.7,0,5.1,0,7.8.2-4.1.2-8.6.3-13.4.2,0-.2.4-.3,1-.4,1.6,0,2.9,0,4.6,0Z"/>
      <path class="cls-29" d="M918.7,467.8c-.9,1.3-2.1,2.5-2.1,3.6.1,3.7-1.1,6.4-4.5,7.9-3.2,1.4-6.2,1-9.1-1.2-.9-.7-2.7-.3-4.4-.8-.5-10.9-.8-21.5-.8-32.3,4.7-5,4.1-8.2-1.9-10.9,0-4.2,0-8,0-11.8,1.6.4,3.1.9,5.1,1.4,2.6-3,6.1-5.1,10.6-2.8,4.2,2.1,5.1,5.9,4.2,10.2,7,4,7.6,5.2,5.3,11.1,7.2,5,7.3,10.5.2,15.7,2.1,5.3,1.6,7-2.7,10.1M913,446.3c-2.9-1.7-5.1-1.6-6,2.7.7,1.4,1.4,2.8,2,4.8-.7.9-1.1,2.2-2,2.6-3.8,1.7-4.4,4.7-3.8,8.3.2,1.2,1,2.2,1.5,3.3.5-1.1,1.6-2.2,1.5-3.2-.3-3,.8-5,3.4-6.2,2.3-1.1,3.2-2.9,2.8-5.9,3.7-3.1,3.8-3.8.7-6.5Z"/>
      <path class="cls-23" d="M896,434.4c6,2.3,6.6,5.5,1.6,10.6-3.2.3-3,2.2-3,4.1.1,9.5.3,19.1.4,28.6-1.2.3-2.4.6-3.9,1.2-.6.3-1,.3-1.2,0,0-3.7,0-7.1,0-10.8,0-1.7,0-2.9,0-4.2,0-5.7-3.5-8.6-9.6-8.1-4.2-3.3-4.7-4.7-2.7-9.5,2.8-1.1,5.4-2,8.2-3.1-1.1-6-2.1-11.8-3.4-17.6-.3-1.4-1.8-2.5-2.7-3.7,2.9-2.2,5.9-1.9,9,.4.2,2.4.2,4.3.5,6.1.3,2,.2,4.6,1.4,5.8.9,1,3.6.2,5.5.3M880.6,447c-2.9,3.6-2.3,5.4,2.7,6.4,2.7-.8,3.3-2.9,2.3-5.1-.8-1.8-2.3-3.2-5-1.2M893.1,441.4c1.1.4,2.7,1.5,3.1,1.2,1-.9,1.4-2.4,2.5-4.1-1-1-1.9-2.5-3-2.7-1.1-.1-2.7,1-3.4,2-.4.5.5,2,.9,3.6Z"/>
      <path class="cls-33" d="M877.4,446.3c-1.7,4.7-1.3,6.1,3,9.6.4.9.6,1.4.8,2.3,1.1,7.6,2.2,14.9,3.3,22.2-5.6-.9-7.8-3.6-7.8-9.1,0-1-1-2.5-1.9-2.9-3.2-1.4-4.6-3.7-3.9-7.6.3-.8.3-1.2.3-1.5,0-.4.2-1,0-1.2-6.5-5.7-6.5-9.7,0-15.5-1.4-3.7-1.9-7.2,2.8-9.3,1.4,4.5,2.4,8.8,3.4,13.1Z"/>
      <path class="cls-12" d="M877.7,446.1c-1.2-4.1-2.2-8.4-3.4-12.9.6-1.4,1.9-2.5,1.8-3.6-.2-3.2.6-5.7,3.3-7.8,1.2,1.2,2.6,2.3,2.9,3.6,1.3,5.8,2.3,11.7,3.4,17.6-2.7,1-5.3,2-8.2,3.1Z"/>
      <path class="cls-21" d="M836.8,429.1v-7.5h15c0,2.3,0,4.5-.3,7.1-.9.4-1.5.4-2.5.4-3.5,0-6.6,0-10,0-.9,0-1.6,0-2.2,0Z"/>
      <path class="cls-2" d="M849.4,429.2c.6,0,1.2,0,2,0,.3,9.7.4,19.4.5,29.5-.7.4-1.4.5-2.3.1-.2-10.1-.2-19.8-.2-29.5Z"/>
      <path class="cls-25" d="M896.1,434c-1.9.3-4.6,1-5.5,0-1.2-1.2-1.1-3.8-1.4-5.8-.3-1.9-.3-3.7-.3-5.9,2.3,3.6,4.4-.4,6.9-.2.3,3.9.3,7.7.3,11.8Z"/>
      <path class="cls-16" d="M836.7,429.5c.7-.4,1.3-.4,2.3,0,.3,10.1.4,19.8.4,29.5-.7,0-1.4.2-2.4.1-.3-9.8-.3-19.5-.2-29.6Z"/>
      <path class="cls-18" d="M871,459.2c.1.3,0,.7-.1,1.2-.2,0-.3-.2-.3-.7,0-.3.3-.5.4-.5Z"/>
      <path class="cls-19" d="M889.8,479.1c.3,0,.7,0,1.3,0,1.4.6,2.4,1.5,3.6,1.8,14.2,3.6,23.8,12.2,28.2,26.5-1.4.6-2.8,1.3-4.3,1.3-5.7.1-11.4-.1-17,.1-4.5.2-8.9,1-13.7,1.5-.4-1.2-.4-2.5-.5-4,.5-1.6,1.6-2.8,1.6-4.1.2-6.2.1-12.5,0-18.7,0-1-.9-1.9-1.4-3.2.5-.4,1-.5,1.7-.6.3-.2.4-.4.6-.6,0,0,0,0,0,0Z"/>
      <path class="cls-10" d="M895.2,477.8c-.3-9.7-.5-19.2-.6-28.8,0-1.8-.3-3.8,2.8-3.9.6,10.5.8,21.1,1,32.1-1,.5-2,.6-3.2.6Z"/>
      <path class="cls-11" d="M885.4,404c-.3-2.5-.2-5-.4-7.4-.2-2.5.9-3.3,3.5-2.7.3,3.2.3,6.3.2,9.8-1.1.4-2.1.4-3.4.3Z"/>
      <path class="cls-11" d="M932.2,394.2c1.1-.4,2.3-.5,3.9-.6,0,3.4,0,6.5,0,9.9-1,.4-2.1.4-3.4.4-.3-3.1-.4-6.3-.5-9.7Z"/>
      <path class="cls-32" d="M968.2,514.1c-6.7.2-13.5.2-20.6.2,0-6.7,0-13.3.1-20.2,1.2.8,2.4,2,3.6,3.7.1,4.5.1,8.5.1,13h13c1.2,1,2.4,2.1,3.8,3.3Z"/>
      <path d="M964.3,510.5c-4.2.3-8.4.3-12.9.3,0-4.4,0-8.4,0-12.8,4.3,3.8,8.6,8,12.9,12.5Z"/>
      <path class="cls-32" d="M968.3,461.2c-.8,1.3-2,2.5-3.7,3.8-4.7,0-8.8,0-13,0v13.2c-1.1,1.2-2.3,2.5-3.7,3.8-.2-6.8-.2-13.6-.2-21,6.9,0,13.6,0,20.6,0Z"/>
      <path d="M951.8,478.2c-.2-4.2-.2-8.4-.2-13.1,4.2,0,8.3,0,12.8,0-3.9,4.3-8.1,8.6-12.5,13.1Z"/>
      <path class="cls-17" d="M1002,399.6c-.9,4.8-3.9,7.2-7,5.4-1.6-1-3.4-3.6-3.2-5.3.2-1.7,2.5-4,4.3-4.5,3-.9,5,1.2,5.9,4.5M1000,400c-1.3-.9-2.5-2.1-3.9-2.6-.4-.1-2.1,1.9-2.1,3,0,1,1.7,2.9,2.2,2.8,1.4-.4,2.6-1.6,3.8-3.2Z"/>
      <path class="cls-17" d="M1026.7,394.9c3.2.4,5.5,1.9,5.2,4.9-.2,1.8-1.6,4.4-3.1,5-1.5.6-4.4,0-5.8-1.3-3.1-2.7-1.3-6.9,3.7-8.6M1030,399.3c-1.2-2.6-3.2-3.2-5.2-1.2-.7.7-1.1,2.6-.7,3.4.4.9,2.4,2,3,1.6,1.2-.6,2-2.1,2.9-3.8Z"/>
      <path class="cls-17" d="M971.9,398.5c-.7,2.3-1.1,4.9-2.5,6-1.1.9-4.1.6-5.5-.4-1.2-.8-2.2-3.5-1.9-4.9.4-1.6,2.3-3.5,3.9-4.1,2.6-1,4.7.6,6,3.3M969.4,401.6c-.4-1.3-.6-2.8-1.4-3.7-.3-.4-2.6.3-3.2,1-.5.7-.2,3,.3,3.2,1.1.5,2.6,0,4.3-.5Z"/>
      <path class="cls-18" d="M428.8,483.7c-.9,1.1-1.4,2.3-2.2,3.7-.4-1.2-.7-2.3-1.1-3.6-.9-.1-1.9-.3-2.9-.4,0-.2,0-.4-.1-.7,1-.3,2.1-.6,3.1-.9.3-1,.5-2.1.8-3.1.2,0,.4,0,.6,0,.2,1,.4,2,.6,3.2,1,.2,2.1.3,4.4.7-1.7.5-2.3.7-3.2.9Z"/>
      <path class="cls-11" d="M428.9,421.1c.8,0,1.3.1,1.8.2,0,.2,0,.3.1.5-1,.3-2.1.5-3.2.8-.2,1.1-.4,2.1-.6,3.8-1.5-2-.2-5.8-3.7-4.3,1.3-1.4,2.6-2.8,3.7-4.1.4.7,1,1.9,1.9,3.1Z"/>
      <path class="cls-15" d="M832.1,512.5c21.2,3.2,39.5,12,54.3,27.7,2.6,2.7,4.8,5.7,7.4,9-3,8,.1,13.3,8.5,14.3,1.7,6.3,3.5,12.6,4.9,19,.6,2.7.5,5.6.7,8.8-14.5-6-29.1-12.3-43.6-19,8.2-4.2,16.4-8.2,24.7-12.1-.1-.3-.3-.6-.4-1-9.9,3.6-19.8,7.3-29.7,10.9-10.6-4.7-21.2-9.4-32.1-14.7-.3-14.8-.3-29.2,0-43.5.6,0,.8,0,1.3,0,1.5.2,2.8.4,4.1.5Z"/>
      <path class="cls-3" d="M749.2,517.5c3.7,0,7.3,0,11.7-.1,1.8,0,2.8,0,4.3,0,4.2.2,8,.4,12.1.6,1.2-.3,2.2-.5,3.2-.8,2.8,0,5.7,0,9.1.2.7,0,.9,0,1.3.2,2.5,0,4.7-.2,7.1-.3.5,0,.9,0,1.3.3.3,1.8.7,3.4.7,4.9,0,10,.1,20,0,30,0,3,.3,5.6,2.4,7.8-17,6.3-34,12.6-51.2,18.9-4.6-5.2-2.2-11.3-2.3-17,0-.8.3-1.5.6-2.8,4.6-2.8,6.7-6.5,6.4-11.8-.4-4.6-3.2-7-6.6-9.1,0-6.6,0-13.1,0-20.1,0-.5,0-.8,0-.8Z"/>
      <path class="cls-24" d="M802.6,560.2c-2.3-2.2-2.7-4.8-2.7-7.8.2-10,0-20,0-30,0-1.5-.4-3.1-.7-5.2.2-4.8.6-9,1.1-13.2.2-.3.3-.5.7-.7,2.1-.2,3.9-.5,5.7-.4,0,4.7,0,9.1,0,13.5.3,0,.6,0,.9,0,0-5.4,0-10.8.3-16.2,2.2.3,4.1.5,6.1,1,.8,1.4,1.6,2.5,2.3,3.5.5-1,1.2-2.1,1.4-3.1.3-2,.2-4.1.5-6.1,1,0,1.7,0,2.5.4.1,5.5.2,10.7.2,16.3,0,14,0,27.6-.1,41.2-6,2.3-12.1,4.5-18.4,6.8Z"/>
      <path class="cls-10" d="M858.6,570.3c10.1-3.8,20-7.4,29.9-11,.1.3.3.6.4,1-8.2,3.9-16.5,7.8-25,11.9-10.4,5-20.7,9.7-30.9,14.5q-7.8,3.7-17.5,0c14.7-5.6,28.7-11,43-16.5Z"/>
      <path class="cls-5" d="M826.4,512c0,14.3.1,28.6.1,43.3-1,0-2-.4-3.1-1.4-.2-14.3-.2-28.1.2-41.9,1.1,0,2,0,2.8,0Z"/>
      <path class="cls-18" d="M823.3,512.1c0,13.8,0,27.5,0,41.7-.6.2-1.3,0-2.1-.2-.2-13.8-.2-27.4.2-41.3.9-.3,1.4-.2,1.9-.1Z"/>
      <path class="cls-32" d="M832.1,512.1c-1.3.2-2.5.1-4.1-.5-.4-10.6-.4-20.7-.5-30.8h4.1c0,1.3.1,2.6.2,4.5,0,2.8,0,4.9,0,7.4-.1,3.5-.1,6.6-.1,9.8.5.2,1.1.4,1.6.6.7-1,1.8-2,1.9-3.1.4-2.3.2-4.6.3-6.9.1,3.1.3,6.1.3,9.2,0,.6-.3,1.6-.6,1.7-4.5,1.2-3,4.9-3.2,8.1Z"/>
      <path class="cls-9" d="M902.6,563.4c-8.6-1-11.8-6.2-8.6-14.1,4.3-4.7,9.2-5.5,13.2-2.5,3.6,2.7,5.1,7.8,2.6,11.4-1.6,2.2-4.6,3.4-7.2,5.1M895.9,551.3c-1.5,3.8.5,6.7,3.1,8.6,1.4,1,4.9.9,6.3-.2,1.7-1.4,3.3-4.3,3.1-6.4-.2-1.9-2.5-4.4-4.4-5.2-2.8-1.3-5.9-.3-8,3.2Z"/>
      <path class="cls-33" d="M853.4,486.3c-.3-1.7-.3-3.4-.3-5.3h13.8c0,1.8,0,3.5,0,6,0,2-.1,3.4-.2,4.7-4.4-1.8-8.7-3.5-13.4-5.4Z"/>
      <path class="cls-33" d="M870.4,486.9c0-1.9.2-3.8.3-6h6.7c0,5.4,0,10.9,0,16.7-2.1-.7-4.1-1.8-6.4-3.3-.4-2.7-.5-5.1-.5-7.4Z"/>
      <path class="cls-18" d="M849.4,488.7c1-.3,2-.4,3.2-.4.3,3.9.5,7.8.4,11.6,0,2.5-.1,2.5-3.7,2,0-4.3,0-8.7,0-13.3Z"/>
      <path class="cls-18" d="M870.1,486.9c.4,2.3.5,4.7.6,7.4,0,2.3.1,4.2-.2,6.1-.2.9-1.4,1.5-2.7,2.2-.8-2.7-1-5.2-1.2-7.8,0-.8.1-1.6.2-2.8,0-1.8,0-3.1.2-4.8,1-.3,1.8-.3,3-.3Z"/>
      <path class="cls-33" d="M835.5,481.9c.5-.4,1-1.2,1.5-1.2,4,0,8,0,12.2,0,0,1.3.1,2.3.1,3.6-4.2-.5-8.4-1.4-13-2.3-.5,0-.7-.1-.7-.1Z"/>
      <path class="cls-18" d="M835.5,492.9c0,2.5.1,4.8-.2,7.1-.2,1.1-1.3,2.1-1.9,3.1-.5-.2-1.1-.4-1.6-.6,0-3.1,0-6.3.4-9.8,1.3-.4,2.2-.4,3-.4,0,.1.1.3.3.6Z"/>
      <path class="cls-19" d="M835.2,492c-.9.4-1.8.4-3,.4-.4-2.1-.4-4.2-.4-6.7.9-.3,1.8-.3,3-.4.4,2.1.4,4.2.4,6.7Z"/>
      <path class="cls-33" d="M866.7,495.1c.2,2.3.3,4.9.8,7.7-.1,0-.8-.1-.8-.4,0-2.4,0-4.7,0-7.3Z"/>
      <path class="cls-32" d="M835.4,482.2c0-.3.3-.2.5-.1,0,.3,0,.5-.3.8-.2,0-.2-.2-.2-.6Z"/>
      <path class="cls-11" d="M941.2,621.7c-.2.5-.5.9-.6.9-2.2-.5-4.3-1-6.4-1.7-.3-.1-.4-2.1-.1-2.2,2.1-1,4.2-1.8,7.2-2.9,0,2.7,0,4.2,0,6Z"/>
      <path class="cls-15" d="M925,634.9c-2.8.7-4-.2-4-3.2,0-2.5.6-4,3.8-3.4,1.3,2.1,1.9,4.2.2,6.6Z"/>
      <path class="cls-1" d="M938.5,595.5c.3-.6,1-1.1,1.9-1.8-.3.5-1,1.2-1.9,1.8Z"/>
      <path class="cls-7" d="M755.8,547.8c.3,5-1.8,8.6-6.3,11.1-7.1,1.7-11.9-.3-14.3-5.5-3.7-8,2.6-16,12.1-14.8.6,5.6,2.8,7.9,8.6,9.2Z"/>
      <path class="cls-18" d="M707.9,579.5c1.6-.4,3.1-.4,5.2-.3,1.3.3,2.2.5,3,.6,0,8.3,0,16.6,0,25.2-1.6.3-3.1.3-5.1.1-1.4-.1-2.3-.1-3.2-.2,0,0,0-.2,0-.2,0-8.3,0-16.6,0-25.3Z"/>
      <path class="cls-16" d="M716.2,579.6c-.9.2-1.7,0-2.8-.3-.2-7.4-.2-14.6.2-22.1,1.1-.4,1.8-.5,2.6-.6,0,7.6,0,15.1,0,23Z"/>
      <path class="cls-7" d="M708,529.5s0-.2,0-.3c.3-.3.9-.4,1-.6.5-4.4,3.6-3.8,6.9-3.4.3,4.5.3,8.9,0,13.7-1.2.4-2.1.4-3,0,0-1.8-.1-3.2,0-4.6.4-3.7-1.2-5.3-4.9-4.7Z"/>
      <path class="cls-7" d="M716.2,556.2c-.8.4-1.5.5-2.6.6-.5,0-.7,0-.9-.5,0-4.6,0-8.8.3-13,1.2,0,2.1,0,3.1,0,0,4.2,0,8.3,0,12.8Z"/>
      <path class="cls-12" d="M716.2,543c-1,.3-1.9.3-3.5.3-1.4.7-2.4,1.2-3.1,2-.6.7-1.1,1.6-1.6,2,0-4.4,0-8.5.3-12.6,1.9,1.3.3,5.8,4.5,4.5.9,0,1.8,0,3,0,.3,1.1.3,2.3.3,3.8Z"/>
      <path class="cls-32" d="M755.8,547.5c-5.7-.9-7.9-3.3-8.3-8.8.4-.3.8-.3,1.4-.3,3.7,2.1,6.4,4.5,6.9,9.1Z"/>
      <path class="cls-24" d="M748.9,517.5c.3,0,.3.4.3.5-.6,0-1.3,0-2.1-.3.4-.2,1-.2,1.8-.2Z"/>
      <path class="cls-24" d="M717.3,517.6c0-.1.2-.1.5-.1.2,0,0,.3,0,.3,0,0-.3,0-.4-.1Z"/>
      <path class="cls-11" d="M870.3,691.9c-1.3.3-2.3.4-4.3.5.3-1.8.2-3.6.9-4.8.3-.5,2.2-.2,3.4-.3,0,1.5.1,2.9,0,4.6Z"/>
      <path class="cls-15" d="M967.3,565.9c2.7-1.6,4.5-.6,4.7,1.9.1,1.1-1.7,3.4-2.6,3.3-3.6,0-3.1-2.6-2.1-5.2Z"/>
      <path class="cls-16" d="M707.7,722.4c2.2,8.1-1.3,14.5-9.2,16.9-6.6,2-14.2-1.9-16.6-8.6-1.8-5.2.4-11.3,5.5-15,4.1-3,11.6-2.9,15.3.5,1.9,1.7,3.2,4,4.9,6.3M700.6,722.8c-2-2.4-4.6-3.9-7.5-2.6-1.9.9-3.8,2.7-4.7,4.6-1.2,2.7-.1,5.9,2.7,6.9,2.4.8,5.7.9,7.9-.2,3.1-1.6,3.3-5,1.6-8.7Z"/>
      <path class="cls-6" d="M740.9,712c2.7,1.4,5.4,2.3,7.2,4.1,5.8,5.6,5.5,14.3-.4,19.4-6,5.3-15.8,4.5-20.6-1.6-4.9-6.3-3.8-15.3,3.1-19.5,2.9-1.8,6.9-1.7,10.7-2.4M749.9,728.1c0-1.2.1-2.3.1-3.5-.2-4.5-3.3-8.5-7.9-10-4.5-1.5-9.5-.2-12.8,3.4-3.1,3.4-3.9,8.3-1.8,12.3,2.3,4.5,6.1,6.7,11,6.6,5.5,0,9.2-3,11.3-8.7Z"/>
      <path class="cls-34" d="M611.7,479.9c8.3-.4,16.6-.5,25.2-.5.3,1.5.4,2.9.4,4.3-.2,4.3-2.5,6.7-6.8,6.9-3.5.1-7,0-10.5,0-6.2,0-8.3-2.1-8.3-8.4,0-.6,0-1.3,0-2.3Z"/>
      <path class="cls-5" d="M639.4,477.5c-.8-.4-1.2-.9-1.9-1.5-.2-3.5-.2-6.8-.1-10.5,2-1.6,4-2.9,6.2-4.3,3.9,3.5,7.6,7,11.1,10.8.3.3-.7,2.7-1.4,2.9-4.5,1.1-9,1.8-13.9,2.7Z"/>
      <path class="cls-29" d="M632.2,464.5c-.8.4-1.5.4-2.6,0-.4-4.1-.5-7.8-.6-11.9,0-1.8,0-3.3,0-4.7h-9.3c0,1.9,0,3.5,0,5.4,0,4.1-.1,7.8-.1,11.5-1,0-2,0-3.4,0,0-5.7.3-11.3.5-16.8-10.5-1.9-13-3.7-12.8-9,.2-4.5,3.1-7.2,9.2-7.6,1.6.5,2.7,1,3.8,1.7,1.3,3.6,2.6,7,4,10.8h7c1.5-4,2.8-7.5,4.4-11.1,1.5-.6,2.7-1.1,3.9-1.6,5.5.5,8.8,3.3,9,7.8.2,5-2.5,7-12.9,8.9,0,5.2,0,10.6,0,16.4M637.1,434.8c-4.6,1.5-5.7,3.8-4.1,9.2,5.5.6,8-.4,8.6-3.5.6-3.1-1.1-4.9-4.5-5.7M608.7,435.9c-.4,2-1.6,4.4-.9,5.8,1.6,3.4,5.1,2.4,8.1,2.3,1.1-7.5-1.2-10.2-7.2-8.1Z"/>
      <path class="cls-8" d="M636.1,431.1c-1.2.8-2.4,1.3-4.1,1.8-3.8-2.6-7.3-4.4-11.5-2-1.2.7-2.5,1.4-3.7,2-1.1-.4-2.1-.9-3.5-1.4,4.6-9.6,16.7-9.9,22.8-.4Z"/>
      <path class="cls-10" d="M629,453c0,3.7.2,7.4.3,11.5-3,.4-6.1.4-9.4.4-.3-3.8-.3-7.5.1-11.5,3.3-.3,6.2-.4,9-.4Z"/>
      <path class="cls-7" d="M569.6,607c-2.9.2-5.8.7-6.3-4.4,1.8,0,3.7,0,6,.4.3,1.6.3,2.8.3,4.1Z"/>
      <path class="cls-17" d="M569.8,607.1c-.2-1.3-.2-2.5-.2-4.1.6-.6,1.1-.9,2-1.2,1.1,1,2.4,1.9,2.8,3.1.1.5-1.7,1.6-2.9,2.4-.7,0-1-.1-1.6-.3Z"/>
      <path class="cls-11" d="M567.1,645.7c2.2-.3,4.4-.3,6.9-.4.6,1.1.9,2.3,1.3,3.9h-7.9c-.1-1-.2-2-.3-3.5Z"/>
      <path class="cls-11" d="M587.5,645.6c1.8-.3,3.6-.3,5.8-.3.7,1.1,1.1,2.3,1.6,4.1-3.1-.8-6.9,1.7-7.4-3.8Z"/>
      <path class="cls-11" d="M458.3,645.5c2-.2,3.9-.2,6.1-.1.3,1.1.3,2.2.3,3.3-6,1.6-6.8,1.2-6.4-3.2Z"/>
      <path class="cls-33" d="M458.8,636c.1.5.1,1.3,0,2.4-.1-.5-.1-1.3,0-2.4Z"/>
      <path class="cls-11" d="M461.1,656.6c0-.1.2-.3.3-.5,0,0-.2-.1-.2-.2,0,.2-.2.3,0,.5.1,0,0,0,0,0Z"/>
      <path class="cls-11" d="M478.2,645.7c1.6-.3,3.2-.3,5-.3.3,1.1.3,2.3.3,3.7-2.6,0-5.7,1.7-5.4-3.4Z"/>
      <path class="cls-11" d="M436.4,645.1c2-.1,3.9,0,6.1.3,0,1.3-.3,2.6-.7,4.4-2.2-.5-4.3-.9-6.3-1.3.3-1,.5-2,.9-3.3Z"/>
      <path class="cls-22" d="M613.2,565c-.3-5.8-.6-11.6-.8-17.4-.1-4.7,0-9.3,0-14,0-2.8.9-4,3.8-3.9,4.1.1,8.3,0,12.8,0,7.1,38.1,32.5,65,70.1,73.7,2.6.6,5.3.9,8.3,1.4.3,0,.3,0,.3.5,0,8.7,0,17,0,25.3-13.1-.9-25.4-4.5-37.7-9.5-6.1-3.3-11.9-6.6-17.7-9.9-1.5-.9-2.9-2.1-4.6-3.2-3.2-2.7-6.1-5.2-9.3-8-2.9-2.9-5.5-5.7-8.5-8.8-2.9-3.8-5.5-7.2-8.2-10.9-2.9-5.3-5.7-10.3-8.6-15.3Z"/>
      <path class="cls-30" d="M621.9,580.6c2.6,3.4,5.2,6.8,7.9,10.5,0,8.6,0,17-.1,25.4,0,2.5-.8,5-1.5,7.7-2.7-3.8-5.2-7.9-7.6-12.4.2-8.9.3-17.2.6-25.6,0-1.9.5-3.8.7-5.7Z"/>
      <path class="cls-4" d="M621.8,580.3c-.2,2.2-.6,4.1-.7,5.9-.3,8.4-.4,16.7-.7,25.4-2.3-1.2-4.5-2.8-7-4.4-.2-13.9-.2-27.7-.2-41.9,2.9,4.7,5.7,9.7,8.6,15Z"/>
      <path class="cls-27" d="M708.1,630.7c-.3-8.3-.3-16.6-.3-25.3.9-.3,1.7-.3,2.9-.1.3,7,.3,13.9.2,20.8,0,1.4-.3,2.8-.7,4.4-.8.2-1.3.2-2.1.1Z"/>
      <path class="cls-32" d="M679,529.8c-.4-1.1-.8-2.2-1.3-3.5-.1-.2,0-.4,0-.4,8.5-.2,17.1-.3,25.9-.2.8,1.3,1.3,2.4,1.5,3.8-8.9.3-17.5.3-26.1.3Z"/>
      <path class="cls-34" d="M679,530.1c8.6-.3,17.3-.3,26.3-.4.4,0,.7,0,.9-.1.6,0,.9,0,1.6,0,4-.6,5.6.9,5.1,4.7-.2,1.4,0,2.8,0,4.6-4.2,1.6-2.6-2.8-4.7-4.2-.9-.2-1.4-.1-2.2,0-2.2,2.4-2.7,10.4-1,12.6.3.3.9.4,1.6.7.7,0,1.1-.1,1.5-.2.5-.8.9-1.7,1.6-2.4.7-.8,1.7-1.3,2.8-1.9.3,4.2.3,8.4,0,12.9-16.4-1.9-27.5-10.6-33.5-26.1Z"/>
      <path class="cls-19" d="M459.7,634.3c0-.7,0-1.8.3-3,0,.7,0,1.8-.3,3Z"/>
      <path class="cls-2" d="M1020.5,465.8c.8,4.4-1.5,7-4.5,5.6-1.2-.5-2.3-2.1-2.5-3.4-.2-1.1,1-3.2,1.7-3.4,1.6-.3,3.4.5,5.3,1.1Z"/>
      <path class="cls-2" d="M1014,505.5c2.6-2.4,4.9-2.4,6.6.4,1.3,2.2.5,4.4-2,5.3-1.1.4-3.3.1-3.8-.7-.8-1.3-.7-3.2-.8-5Z"/>
      <path class="cls-18" d="M1085.6,480.4c4,1,6.7,3.1,6.6,7.3-.1,3.5-2.2,5.7-6,6.6-5.2-.7-7.3-2.6-7.6-6.4-.2-4,1.8-6.3,7-7.5M1087.3,492c2.5-1.3,3.7-3.3,2.8-6.1-.9-2.7-2.9-4-5.7-3.4-2.8.6-4.3,2.6-3.9,5.4.5,3.4,2.8,4.8,6.8,4Z"/>
      <path class="cls-14" d="M839.7,459c-.3-9.8-.4-19.5-.4-29.5,3.1-.4,6.2-.4,9.7-.3.3,9.7.3,19.4.3,29.5-3.1.4-6.2.5-9.6.4Z"/>
      <path class="cls-11" d="M780.5,516.8c-1,.6-2,.9-3.3.8-.5-2.1-.9-3.9-1-5.7,0-17.2,0-34.5,0-51.7,1.2,0,2.4-.2,3.9-.2.3,18.8.4,37.6.4,56.8Z"/>
      <path class="cls-7" d="M827.1,480.7c.4,10.2.4,20.3.6,30.8-.1.4-.4.4-.9.5-1.2,0-2,0-3.1,0-.8,0-1.4-.1-2.2-.2-.3-5.2-.4-10.4-.5-16.3,0-5.4,0-10,0-14.7,1.9,0,3.8-.1,6.1,0Z"/>
      <path class="cls-33" d="M790,504.1c-.5-1.9.7-4.6-2.5-5.4-.3,0-.4-3.4,0-3.5,3.1-1.1,2.3-3.6,2.3-5.8,0-2.7,0-5.4,0-8.4h7.2c0,2.9,0,5.9,0,9.7,0,4.9,0,9-.4,13.3-2.4,0-4.5,0-6.6,0Z"/>
      <path class="cls-33" d="M806.8,502.5c-1.8.2-3.6.5-5.8.4-.4-4.3-.5-8.3-.5-12.2v-10c2.2,0,4,0,6,.4.3,7.4.3,14.4.2,21.4Z"/>
      <path class="cls-33" d="M814.1,500.9c-1.9-.2-3.8-.4-6-1.1-.3-6.6-.3-12.8-.2-19,1.8,0,3.6,0,5.9,0,.5.3.6.4.7.5,0,1.6,0,3.2,0,5.5,0,5.1-.1,9.6-.2,14.1Z"/>
      <path class="cls-12" d="M889.1,479.7c-.5.1-1.1.2-1.9.5-.9.2-1.7.3-2.6.3-1.3-7.4-2.4-14.6-3.2-22.1,3.5,1.4,6.3,3.3,5.6,7.7,0,.6,1.9,1.6,2.9,2.4,0,3.4,0,6.8,0,10.5,0,.3,0,.3-.2.4-.3.2-.5.4-.6.5Z"/>
      <path class="cls-24" d="M789.9,504.4c2.2-.3,4.2-.3,6.7-.4.3,0,.3,0,.4.3.3,4.5.5,8.7.7,12.9-2.2.2-4.4.4-6.9,0-.4-2.8-.6-5.1-.7-7.4,0-1.7-.2-3.4-.2-5.4Z"/>
      <path class="cls-11" d="M814.2,501.2c0-4.8,0-9.2.2-14,1-.3,2-.3,3.2,0,.4,3,.5,5.6.5,8.3,0,2,0,4.1-.2,6.1-.1,1.1-.9,2.1-1.4,3.1-.8-1.1-1.5-2.2-2.3-3.5Z"/>
      <path class="cls-18" d="M800.2,490.7c.3,4,.4,7.9.5,12.2,0,.6-.1.8-.7,1.1-1.3,0-2.2,0-3.1,0,0,0,0,0,0,0,0-4.2,0-8.3.1-12.9,1-.4,2-.4,3.2-.4Z"/>
      <path class="cls-33" d="M818.4,495.5c-.3-2.6-.4-5.3-.5-8.3,0-1.8-.3-3.3.2-4.6.3-.8,1.5-1.3,2.6-1.9.3,4.7.3,9.4.3,14.4-.8.4-1.5.3-2.5.3Z"/>
      <path class="cls-18" d="M808.4,457.2c.3.3.4.5.8.8.2,0,.2.4.2.6-3.5.4-6.9.6-10.8.7,1.4-1.7,3.2-3.3,5.1-5.2.5-.1.8,0,1.4,0,.3.3.5.5.9.7.3.3.4.5.8.8.3.3.4.5.8.8.3.3.4.5.8.8Z"/>
      <path class="cls-27" d="M807.6,480.8c.2,6.2.2,12.5.2,19,0,5.8,0,11.2,0,16.6-.3,0-.6,0-.9,0,0-4.4,0-8.8,0-13.5,0-7.4,0-14.3,0-21.7.2-.4.3-.4.7-.4Z"/>
      <path class="cls-33" d="M790,510.1c.3,2,.5,4.2.6,6.9-.1.4-.3.4-.7.3-.2-2.3-.1-4.6,0-7.2Z"/>
      <path class="cls-11" d="M814.5,481.3c-.2,0-.3,0-.5-.4.1,0,.3.1.5.4Z"/>
      <path class="cls-23" d="M775.8,460.2c.4,17.3.4,34.5.4,51.8,0,1.8.4,3.6.7,5.7-3.7.1-7.6,0-11.8-.7-.4-3-.3-5.6-.1-8.4,3-3.2,2.3-5.9-.3-8.5,0-2.6,0-5.1.2-8.3,2.9-3.2,2.6-5.9.4-8.7.4-1.3,1-2.6,1-3.9.1-6.1,0-12.1,0-18.5,3-.4,6-.4,9.4-.4Z"/>
      <path class="cls-8" d="M765,482.9c2.5,2.9,2.8,5.6-.1,8.5-2.7.4-5.2.5-8,.7-.3-.3-.4-.5-.1-1,1.4-1.6,3.4-3,3.3-4.2,0-1.2-2.3-2.3-3.6-3.4,0-.2,0-.5-.1-.9,2.8,0,5.6.2,8.7.4Z"/>
      <path class="cls-8" d="M764.4,499.9c3,2.7,3.6,5.4.3,8.7-1.7.5-2.8.8-4,1-1.2,0-2.5-.2-4-.3-.3-.3-.3-.5,0-1,1.4-1.4,3.4-2.7,3.4-3.9,0-1.3-1.9-2.5-3-3.7,0-.3,0-.5.1-1,2.3,0,4.6,0,7.2.2Z"/>
      <path class="cls-12" d="M760.8,509.9c1.1-.6,2.3-.8,3.7-1.2.3,2.6.2,5.2.2,8.2-1.1.4-2.1.4-3.5.4-.3-2.4-.4-4.7-.4-7.4Z"/>
      <path class="cls-7" d="M748,483.8c1.7,0,3.5,0,5.5.4.3,2.4.3,4.4.3,6.4-1.7,0-3.5,0-5.6-.2-.4-2.4-.3-4.5-.2-6.5Z"/>
      <path class="cls-17" d="M754.1,490.6c-.3-2-.3-4.1-.3-6.4.7-.4,1.3-.5,2.3-.7,1.6,1.1,3.9,2.1,4,3.4,0,1.2-2,2.7-3.3,4-.9,0-1.6-.2-2.6-.3Z"/>
      <path class="cls-9" d="M743,490.7c-1.1-1.1-3-2.1-3.1-3.3-.1-1.1,1.6-2.5,2.8-3.4.3,2.4.3,4.5.3,6.6Z"/>
      <path class="cls-16" d="M743.3,490.7c-.3-2.1-.3-4.2-.3-6.7.6-.4,1.2-.4,2.1,0,.3,2.5.4,4.5.4,6.6-.6,0-1.3,0-2.2.1Z"/>
      <path class="cls-5" d="M745.8,490.6c-.3-2.1-.4-4.1-.4-6.6.7-.4,1.3-.4,2.2-.4.3,2.1.2,4.2.2,6.5-.5.4-1.1.4-2,.4Z"/>
      <path class="cls-7" d="M746.5,501c2.2,0,4.4,0,7,.4.3,2.4.3,4.4.3,6.4-2.2,0-4.4,0-7.1-.2-.4-2.4-.3-4.5-.2-6.6Z"/>
      <path class="cls-17" d="M754.1,507.9c-.3-2-.3-4.1-.3-6.4.9-.4,1.8-.5,3-.7,1.4,1.2,3.3,2.4,3.4,3.7,0,1.2-2,2.4-3.4,3.7-1,0-1.6-.2-2.6-.3Z"/>
      <path class="cls-16" d="M746.1,501c.3,2.1.2,4.2.2,6.6-.8.4-1.7.4-3,0-.3-2.5-.3-4.6-.3-6.7.9,0,1.8,0,3.1,0Z"/>
      <path class="cls-9" d="M742.7,501c.3,2.1.3,4.2.3,6.6-1.1-.7-3.1-1.7-3.1-2.7,0-1.3,1.6-2.6,2.8-4Z"/>
      <path class="cls-10" d="M912,453.2c.7,2.5-.2,4.3-2.5,5.4-2.7,1.3-3.7,3.2-3.4,6.2.1,1-1,2.1-1.5,3.2-.5-1.1-1.3-2.2-1.5-3.3-.6-3.6,0-6.6,3.8-8.3.9-.4,1.3-1.7,2.3-2.9,1.1-.3,1.9-.3,2.7-.3Z"/>
      <path class="cls-11" d="M912.2,453c-1,.2-1.8.3-2.8.2-1-1.4-1.7-2.8-2.1-4.4,3.1,1.6,4.8.3,5.9-2.3,3,2.4,2.9,3-1,6.4Z"/>
      <path class="cls-28" d="M913.1,446.4c-1,2.8-2.7,4.1-5.8,2.2.5-4,2.8-4.1,5.8-2.2Z"/>
      <path class="cls-10" d="M890,468c-1.1-.4-3-1.4-2.9-2,.7-4.4-2-6.3-5.5-8-.5-.6-.7-1.1-.9-1.8,5.9-.9,9.4,2,9.4,7.7,0,1.3,0,2.6,0,4.2Z"/>
      <path class="cls-19" d="M893,440.9c-.3-1.1-1.2-2.6-.8-3.1.8-1,2.3-2.1,3.4-2,1.1.1,2,1.7,2.5,2.8-2.8-.8-4,.6-5.1,2.3Z"/>
      <path class="cls-28" d="M882.7,453.2c-4.4-.9-5-2.6-1.6-6.1,3.1,1.7,1.6,4,1.6,6.1Z"/>
      <path class="cls-28" d="M893,441.1c1.1-1.9,2.3-3.3,4.9-2.3-.4,1.3-.8,2.8-1.8,3.7-.3.3-2-.7-3.1-1.4Z"/>
      <path d="M883,453.3c-.3-2.2,1.3-4.5-1.6-6.2,2-2,3.5-.6,4.2,1.2,1,2.3.4,4.3-2.6,5.1Z"/>
      <path class="cls-23" d="M889.3,479.7c0-.2,0-.3.4-.5,0,.1-.1.4-.4.5Z"/>
      <path class="cls-7" d="M1000,400.3c-1.3,1.2-2.4,2.5-3.9,2.8-.5.1-2.2-1.8-2.2-2.8,0-1.1,1.7-3.1,2.1-3,1.4.5,2.6,1.7,3.9,2.9Z"/>
      <path class="cls-7" d="M1030.1,399.6c-.9,1.4-1.7,3-3,3.6-.6.3-2.6-.8-3-1.6-.4-.9,0-2.8.7-3.4,2.1-1.9,4-1.3,5.3,1.5Z"/>
      <path class="cls-7" d="M969.2,401.9c-1.5.3-3,.7-4.1.2-.5-.2-.8-2.5-.3-3.2.6-.8,2.8-1.4,3.2-1,.8.9,1,2.4,1.3,4Z"/>
      <path class="cls-12" d="M797,504.3c.8-.3,1.7-.2,2.9-.2,0,4.1-.4,8.3-.8,12.8-.3.4-.6.4-1.2.3-.4-4.2-.6-8.4-.9-13Z"/>
      <path class="cls-16" d="M896,551c2-3.2,5-4.2,7.9-2.9,2,.9,4.2,3.3,4.4,5.2.2,2.1-1.4,5-3.1,6.4-1.4,1.1-4.8,1.2-6.3.2-2.6-1.9-4.6-4.9-3-8.9M898.7,556.5c.5.4,1,.9,1.6,1.1,2.3.8,4.2.1,5-2.2.7-2.3-.2-4.6-2.6-4.6-1.5,0-3.2,1.7-4.5,2.9-.4.4,0,1.7.6,2.9Z"/>
      <path class="cls-22" d="M708,547.3c-.4.4-.8.5-1.5.2-.3-4.6-.3-8.8-.3-13,.5,0,1,0,1.6,0,.1,4.2.1,8.3.1,12.8Z"/>
      <path class="cls-17" d="M700.7,723.1c1.6,3.5,1.4,6.9-1.7,8.5-2.2,1.1-5.5,1.1-7.9.2-2.8-1-3.9-4.2-2.7-6.9.8-1.9,2.8-3.8,4.7-4.6,2.9-1.3,5.5.1,7.6,2.8M696.1,730.3c2.8-1.2,3.4-3.5,1.9-5.6-.7-1.1-3.5-2-4.4-1.5-1.2.8-2.3,3.2-2,4.6.2,1.1,2.6,1.8,4.6,2.5Z"/>
      <path class="cls-16" d="M749.8,728.4c-2.1,5.4-5.7,8.3-11.3,8.4-5,0-8.7-2.1-11-6.6-2-4-1.3-8.9,1.8-12.3,3.3-3.6,8.3-5,12.8-3.4,4.5,1.6,7.7,5.6,7.9,10,0,1.2,0,2.3-.2,3.8M732.1,728.4c3.1,3.8,6.4,4.6,9.8,2.5,3-1.9,4-5.4,2.4-8.5-1.5-3-5-4.4-8.3-3.3-3.6,1.2-5.1,4.3-3.8,9.3Z"/>
      <path class="cls-3" d="M616.8,433.2c1.2-.9,2.4-1.6,3.6-2.3,4.2-2.5,7.6-.6,11.2,2-1,3.6-2.4,7.1-3.9,11.1h-7c-1.4-3.9-2.7-7.2-4-10.8Z"/>
      <path class="cls-8" d="M637.4,434.8c3.2.8,4.8,2.6,4.2,5.7-.6,3.1-3.1,4.1-8.6,3.5-1.5-5.4-.5-7.8,4.4-9.2Z"/>
      <path class="cls-8" d="M609,435.7c5.8-1.9,8.1.8,7,8.3-3,.1-6.5,1.2-8.1-2.3-.7-1.5.5-3.9,1.2-6Z"/>
      <path class="cls-8" d="M629,452.7c-2.9.4-5.8.4-9,.3-.3-1.6-.3-3.2-.3-5.1h9.3c0,1.4,0,2.9,0,4.7Z"/>
      <path class="cls-4" d="M705.9,534.5c.3,4.2.3,8.3.3,12.9-.5.2-1.1.1-1.3-.2-1.6-2.2-1.2-10.3,1-12.6Z"/>
      <path class="cls-2" d="M1087,492.1c-3.7.6-6-.7-6.5-4.1-.4-2.8,1.1-4.8,3.9-5.4,2.8-.6,4.9.7,5.7,3.4.9,2.8-.4,4.8-3.1,6.2M1085.2,484.4c-.8,1.1-1.6,2.2-2.4,3.3.5-.7,1-1.4,1.5-2.1,1,1.2,1.9,2.5,2.9,3.7l-1.7.9c1.1-1,2.2-2.1,2.6-2.4-.8-1.3-1.6-2.4-2.8-3.3Z"/>
      <path class="cls-17" d="M898.4,556.4c-.3-1-.7-2.3-.3-2.7,1.3-1.2,3-3,4.5-2.9,2.4,0,3.3,2.3,2.6,4.6-.8,2.4-2.7,3-5,2.2-.6-.2-1.1-.7-1.8-1.2M901.9,552c-.8.8-1.8,1.6-2.2,2.5-.1.3,1.2,1.7,1.9,1.8.7,0,2.3-.9,2.3-1.3-.2-1-.9-2-2-3Z"/>
      <path class="cls-7" d="M695.8,730.4c-1.7-.8-4.1-1.5-4.3-2.6-.2-1.5.8-3.8,2-4.6.9-.6,3.7.4,4.4,1.5,1.4,2.2.8,4.5-2.2,5.7Z"/>
      <path class="cls-17" d="M732,728.1c-1.1-4.8.3-7.9,4-9,3.3-1.1,6.8.4,8.3,3.3,1.6,3.1.5,6.6-2.4,8.5-3.4,2.1-6.7,1.3-9.9-2.8M738.6,721.8c-3.7.7-5.4,3.1-3.5,5.3.9,1,2.7,2,3.9,1.7,1.2-.2,3-2,2.9-3-.1-1.4-1.7-2.7-3.3-4.1Z"/>
      <path class="cls-18" d="M1085.4,484.3c1,1,1.7,2.2,2.6,3.5-.4.4-1.5,1.4-2.6,2.4l1.7-.9c-1-1.2-1.9-2.5-2.9-3.7-.5.7-1,1.4-1.5,2.1.8-1.1,1.6-2.2,2.7-3.5Z"/>
      <path class="cls-7" d="M902.2,552c.8,1,1.6,2,1.7,3,0,.4-1.5,1.4-2.3,1.3-.7,0-2-1.5-1.9-1.8.4-1,1.4-1.7,2.4-2.5Z"/>
      <path class="cls-7" d="M738.9,721.8c1.3,1.4,2.9,2.6,3,4.1,0,.9-1.7,2.7-2.9,3-1.2.2-3-.7-3.9-1.7-1.9-2.2-.1-4.6,3.8-5.3Z"/>
    </g>
  </g>
</svg>